<?xml version="1.0" encoding="UTF-8" standalone="no"?>
<!-- Created with Inkscape (http://www.inkscape.org/) -->
<svg
   xmlns:svg="http://www.w3.org/2000/svg"
   xmlns="http://www.w3.org/2000/svg"
   version="1.0"
   width="1303.9451"
   height="786.1853"
   viewBox="0 0 1303.9451 786.1853"
   id="svg2"
   xml:space="preserve"><defs
   id="defs36" />
	
		<g
   style="display:none"
   id="Hilfslinien_anzeigen">
		</g>
		<g
   id="Meer">
			<rect
   width="1303.9451"
   height="786.1853"
   x="0"
   y="0"
   style="fill:#c6ecff;fill-rule:evenodd"
   id="rect8" /> 
		</g>
		<g
   id="Land">
			<path
   d="M 1209.3562,717.30933 C 1210.1306,718.69312 1211.3196,719.76392 1212.6824,720.55201 C 1213.3689,721.59693 1213.5168,723.31471 1213.3479,724.51637 C 1215.6448,729.70289 1223.2097,723.54078 1226.7082,724.30006 C 1227.3127,724.54664 1228.0466,725.34352 1228.2605,725.95729 C 1229.7253,726.61305 1230.9265,728.0486 1232.4177,728.47975 C 1234.3445,729.0359 1236.4187,728.18727 1238.4055,728.47975 C 1240.1067,728.72975 1241.9333,729.49537 1243.6716,729.84938 L 1244.5588,729.05641 C 1244.8455,728.23512 1244.9988,727.18678 1244.947,726.31764 C 1243.2541,723.75221 1244.4836,722.41041 1244.1706,719.90358 C 1244.0398,718.85524 1242.1257,716.93141 1241.676,715.79567 C 1241.3567,714.98952 1241.4187,713.99489 1240.9558,713.20143 C 1240.5447,712.49782 1239.7414,712.17799 1239.2371,711.61598 C 1236.5295,708.59938 1238.4734,708.64284 1233.6931,707.29176 C 1232.78,707.03346 1231.8899,706.66725 1230.9211,706.64332 C 1229.4587,706.6067 1228.363,707.5442 1226.9851,707.57984 C 1226.5373,707.59156 1225.9831,707.32789 1225.5437,707.36402 C 1223.7527,707.51246 1223.0134,708.97095 1220.3328,708.51685 C 1218.6775,709.77515 1214.4841,709.84449 1212.2947,710.31861 C 1210.405,712.89526 1209.0925,713.87671 1209.3562,717.30933 z "
   style="fill:#fefee9;fill-rule:evenodd;stroke:#0978ab;stroke-width:1.98430002;stroke-linejoin:round;stroke-miterlimit:3.8636899"
   id="path11" />
			<path
   d="M 1088.0603,490.79858 C 1087.5784,491.42993 1087.3186,492.69116 1087.3948,493.46508 C 1086.9875,494.13158 1086.178,494.72436 1085.8425,495.33862 C 1085.1379,496.62866 1085.5784,498.36548 1085.1218,499.66284 C 1085.0378,499.9021 1084.5286,500.40649 1084.4011,500.67163 C 1083.3328,502.89331 1084.3147,505.01099 1085.2327,507.08569 C 1087.8376,508.71801 1089.8889,511.46801 1092.1623,513.49975 C 1093.2546,514.47631 1094.6208,515.70483 1095.8767,516.45483 C 1096.5427,516.85229 1097.55,517.01879 1098.1497,517.46362 C 1099.0037,518.09839 1099.9275,519.17456 1100.7551,519.91382 C 1101.9075,520.94361 1103.4519,521.61157 1104.5803,522.65259 C 1107.5847,525.42456 1112.2224,529.85864 1116.1668,531.08472 C 1119.6863,532.17896 1121.6921,529.83374 1123.6506,529.71558 C 1124.5999,529.65796 1125.6546,529.9607 1126.5886,529.85962 C 1127.6511,529.74487 1128.3606,529.35376 1129.5271,529.57105 C 1130.0691,530.37476 1131.0242,530.72095 1131.8552,531.13257 C 1133.2747,531.83569 1134.2976,532.83032 1135.9578,533.03052 C 1137.5007,533.21607 1139.2805,532.94361 1140.781,533.39087 C 1141.1536,533.50171 1141.5188,533.83325 1141.8894,533.96753 C 1143.1345,534.41919 1144.5291,534.49634 1145.7703,535.04858 C 1147.7341,535.92212 1149.5222,538.90942 1151.4797,539.08422 C 1152.3337,538.34106 1153.5481,537.55346 1154.6956,537.42651 C 1156.9729,537.17456 1158.6248,539.33618 1161.0706,539.156 C 1162.4114,539.05737 1163.47,538.20434 1164.7293,537.9309 L 1165.7273,537.8352 C 1166.8533,537.7268 1168.0046,537.94458 1169.1648,537.85913 C 1170.2815,537.7771 1171.3342,537.48462 1172.4353,537.37866 L 1173.4329,537.28247 C 1174.2566,537.30542 1174.9964,537.55054 1175.8723,537.49878 C 1178.2786,537.35669 1180.2532,535.4563 1182.4695,534.68823 C 1184.4431,534.00366 1186.5632,534.58325 1188.5672,534.32788 C 1189.3469,534.22876 1191.9431,532.55933 1192.3924,531.87768 C 1194.3958,531.2937 1201.1516,530.81762 1203.2581,530.8684 C 1204.7776,530.90502 1206.1253,531.45873 1207.6931,531.22875 C 1209.7937,528.8767 1216.5925,531.41186 1219.6121,526.83275 C 1221.0554,524.64379 1221.2654,518.73607 1221.6634,515.97435 C 1221.8089,514.96556 1222.6873,514.42357 1222.6609,513.06761 C 1222.6385,511.87865 1221.8728,510.32982 1221.5525,509.17601 C 1221.3123,508.31029 1221.3074,507.26732 1220.9978,506.43773 C 1219.8435,503.34252 1213.9939,499.57933 1210.6868,500.09544 C 1209.5252,500.27659 1208.3841,501.34007 1207.3606,501.6804 L 1206.3997,501.77708 C 1205.761,501.84056 1206.075,501.86546 1205.4573,501.70481 C 1204.0315,501.3342 1202.9988,501.71506 1201.595,501.6804 C 1199.1648,501.62132 1196.679,500.74095 1194.2219,500.67161 C 1192.8933,500.63401 1191.616,501.20823 1190.2859,501.17649 C 1188.3064,501.12864 1186.7102,499.95383 1184.6868,500.38352 C 1183.0979,500.72092 1181.7219,501.8552 1180.2517,502.40159 C 1179.6892,502.61057 1179.0916,502.61936 1178.5149,502.85813 L 1177.7019,503.19407 C 1177.0496,503.61839 1176.6394,504.23704 1175.8723,504.63548 C 1174.4978,505.35081 1172.2898,505.29515 1171.4373,506.72532 C 1170.1336,507.1511 1168.7317,507.17259 1167.4461,507.59055 C 1164.0286,508.7009 1160.2532,508.94211 1156.7463,507.87864 C 1156.0027,506.9553 1154.9983,506.11057 1154.6956,504.92405 L 1153.2537,504.70774 C 1151.0525,505.5217 1144.718,509.54172 1143.4417,509.67991 C 1141.9534,509.84153 1140.8377,508.73069 1139.3391,508.74339 C 1136.5925,510.51927 1133.2014,508.59251 1130.5247,507.87864 C 1128.8884,507.4426 1127.1096,507.37425 1125.4802,506.86985 C 1124.7092,506.63108 1123.8474,506.01682 1123.0408,505.93284 C 1121.6048,505.78343 1120.0593,506.36204 1118.6057,505.71653 C 1117.9197,505.41184 1116.5843,504.13548 1116.0559,503.55442 C 1113.9739,501.26438 1115.8162,499.4304 1115.0579,496.99631 C 1113.7869,496.18723 1112.3299,495.155 1111.1775,494.18576 C 1110.6052,493.7048 1110.1092,492.94797 1109.5144,492.52805 C 1108.0193,491.47336 1105.1052,490.99875 1103.3606,490.36594 C 1102.1199,489.91574 1101.1638,488.99778 1099.7571,488.92453 C 1095.3035,488.6926 1094.8308,493.40695 1090.0554,490.50998 L 1088.0603,490.79858 z "
   style="fill:#fefee9;fill-rule:evenodd;stroke:#0978ab;stroke-width:1.98430002;stroke-linejoin:round;stroke-miterlimit:3.8636899"
   id="path13" />
			<path
   d="M 797.5144,289.22339 C 797.15014,290.86206 797.26928,293.2273 799.12231,293.90747 C 799.53198,294.62671 799.81518,295.61011 799.89819,296.42993 C 801.53051,298.18384 804.19116,300.71753 806.38452,301.69116 C 807.23852,302.07055 807.83911,302.13891 808.65698,302.70044 C 809.67944,303.40161 810.36938,304.49927 811.31811,305.15064 C 812.73559,306.12281 815.03198,306.57105 816.69555,306.88013 C 818.52221,307.21949 823.26684,306.51099 824.45678,307.81714 C 824.63061,308.5564 824.91821,309.2898 825.23315,309.97925 C 825.98413,310.31128 827.08276,310.44898 827.89379,310.3396 C 828.40307,309.89087 828.83568,309.09351 829.05834,308.46558 L 830.0559,307.81714 C 833.35766,310.20288 833.32787,308.57398 836.32006,308.89819 C 837.09838,309.29907 837.53246,309.94995 838.20531,310.41186 C 839.8308,311.52709 842.54711,312.44262 844.41429,311.78051 C 845.60667,311.35766 846.61009,310.40697 847.90648,310.33959 C 849.90502,310.23559 851.00462,311.80492 852.89623,311.70873 C 855.07543,311.59789 856.76293,309.79564 858.71703,309.18627 C 860.76683,307.29809 859.29711,303.56078 859.43773,301.18676 C 860.55052,298.3894 865.36791,298.38061 865.70189,295.9978 C 864.89476,293.33569 862.13109,293.406 861.48851,291.74585 C 861.29906,290.69067 862.09642,289.6311 862.92992,289.07935 L 863.20726,287.70972 C 863.01195,286.9773 862.58275,286.13257 862.09837,285.54761 L 860.93431,284.97144 C 860.42894,284.45826 860.01536,283.37623 859.99193,282.66529 C 859.61986,282.07496 858.67211,281.44459 857.99632,281.29566 C 857.46556,280.75953 857.00169,279.80494 856.88743,279.06128 C 856.27171,278.55737 854.89475,278.46411 854.17112,278.70142 C 853.29563,278.03296 848.81956,275.28931 847.90647,274.95386 C 846.61594,274.47974 845.27952,274.68628 843.97043,273.94458 C 843.18479,273.49927 842.63742,272.91479 841.64231,272.86353 C 841.17258,272.8396 840.61497,273.10376 840.14573,273.07984 C 838.44309,272.99293 836.67112,271.8274 834.98997,271.49439 C 834.34056,271.91675 833.06272,272.0271 832.32884,271.85474 C 830.37279,269.64624 814.00267,269.33081 810.7639,269.90894 C 807.32298,270.5232 803.98363,272.8147 800.56322,273.22437 C 800.0642,273.84693 799.40453,274.29615 798.90062,274.8816 L 798.45677,275.55445 C 798.37034,275.68531 798.29857,275.74732 798.23509,275.89088 C 797.78978,276.89625 797.65111,277.64088 797.01536,278.60524 L 796.572,279.2776 C 796.21507,280.29274 796.52805,281.44655 796.35032,282.44899 C 796.2844,282.82106 795.94505,283.2278 795.8513,283.60231 C 795.33374,285.67847 796.34253,287.55493 797.5144,289.22339 z "
   style="fill:#fefee9;fill-rule:evenodd;stroke:#0978ab;stroke-width:1.98430002;stroke-linejoin:round;stroke-miterlimit:3.8636899"
   id="path15" />
			<path
   d="M 669.45483,197.55249 C 669.7854,203.27466 666.40795,201.35571 665.79614,205.33569 C 665.77026,205.50464 665.66821,206.7146 665.6853,206.84936 C 665.9353,208.85424 670.4226,216.74536 672.50366,216.93872 C 673.14184,216.78833 673.97876,216.40747 674.44409,215.92993 C 676.03638,216.40063 677.76098,216.90161 679.323,217.44311 C 680.41333,217.82104 681.7522,218.81225 682.81519,219.02905 L 683.92408,219.02905 C 688.23707,219.02856 687.50172,218.69653 690.02222,216.07397 C 690.44312,215.63598 691.63648,214.48071 691.85132,213.98413 C 692.43237,212.64087 691.92896,209.86108 691.01978,208.72339 C 690.2483,207.75708 689.07203,207.26245 688.13697,206.48901 C 686.93629,205.49536 686.01197,204.16723 684.8108,203.17358 C 683.84742,202.3767 682.51685,202.21069 681.81715,201.156 C 681.08473,200.05053 681.09694,198.59496 680.48707,197.40844 L 679.32301,196.97582 L 677.99196,197.33666 C 674.49146,195.61206 672.8064,194.53442 669.45483,197.55249 z "
   style="fill:#fefee9;fill-rule:evenodd;stroke:#0978ab;stroke-width:1.98430002;stroke-linejoin:round;stroke-miterlimit:3.8636899"
   id="path17" />
			<path
   d="M 620.72583,282.8811 C 620.12866,286.54907 620.70435,286.13989 622.72144,288.57446 C 623.43726,289.43872 623.28931,289.61157 624.38453,290.23217 C 625.4983,290.86352 626.78492,291.11059 627.87721,291.74584 C 629.26295,292.55199 629.82936,293.87621 631.03688,294.74877 C 632.04665,295.47777 633.54616,296.07689 634.03053,297.29467 C 633.89088,298.10131 634.05201,299.48266 634.52955,300.17748 L 635.58277,300.82641 C 636.32545,300.72729 637.29517,300.32397 637.85572,299.81713 L 639.18629,299.81713 C 641.12135,301.26244 641.78443,306.06908 643.62135,307.02416 C 644.00416,307.22338 644.60084,307.21264 645.00709,307.38451 C 645.66578,307.66332 646.51539,308.18871 647.1692,308.53783 C 648.22486,309.10082 649.10719,309.99242 650.16285,310.55541 C 650.46949,310.71898 650.99586,310.9685 651.32691,311.06029 C 652.37037,311.34886 653.41285,311.12035 654.4314,311.27611 C 655.72339,311.47386 656.6648,312.47142 657.75757,312.93382 C 660.58618,314.13109 665.13501,314.46409 667.73609,316.24876 C 669.11597,317.19505 669.48609,319.11106 670.34205,320.35667 C 671.55787,322.12767 674.16773,322.84886 675.99635,321.65403 C 677.34694,321.71897 678.65211,322.22385 679.82155,322.87962 C 681.33717,322.83665 682.25417,321.91868 683.59157,321.65403 C 686.67458,321.04417 687.84645,323.85764 689.63405,325.40159 C 695.67751,325.87132 693.58815,327.17552 697.33962,329.22141 C 699.77712,328.89133 700.27614,330.15256 702.16286,330.80686 C 703.01735,331.10276 703.82741,331.14084 704.65749,331.59934 C 706.05007,332.36887 707.32009,333.58616 708.92604,333.97776 C 709.69508,334.16477 715.24147,334.23508 716.07741,334.1218 C 716.91237,334.00852 717.84694,333.39231 718.6277,333.32932 C 719.59743,333.25022 720.79079,333.66037 721.84303,333.61741 L 722.67457,332.82493 L 723.83863,332.60862 L 725.00269,333.18528 L 725.66822,332.82493 L 725.50172,331.31126 C 725.04127,330.82786 724.43385,330.01438 723.8943,329.65355 C 723.1775,329.17455 722.19508,329.06468 721.39967,328.7888 C 719.73365,328.21116 716.21071,326.47972 714.636,325.6179 C 712.87623,324.65452 711.6111,322.77024 709.9236,321.87034 C 708.54909,321.13694 706.88649,321.65061 705.48903,321.36595 C 704.75465,321.21605 704.02712,320.49339 703.38258,320.14036 C 702.28297,319.5388 700.99684,319.21751 699.8899,318.62718 C 698.48316,317.87718 697.30543,316.62034 695.89869,315.88841 C 694.43336,315.12669 692.89088,314.5178 691.40797,313.72679 C 689.46656,312.69115 687.05201,312.75755 685.08815,311.70872 L 684.42262,310.69993 C 681.13893,309.32298 681.76491,310.3679 679.65504,307.16819 C 676.68678,305.50803 677.26051,307.47727 674.83229,303.63694 C 672.38258,303.83176 672.20338,302.3928 670.50807,301.61887 C 669.05104,301.65207 667.6609,302.33957 666.23952,302.33957 C 665.54225,302.33957 664.97048,302.05539 664.40993,301.69113 C 662.88405,300.69943 659.99489,299.44552 658.25661,298.88058 C 657.86013,298.75167 657.30544,298.8171 656.92604,298.66427 C 656.26344,298.39767 655.60524,297.63595 654.93043,297.29464 C 652.48316,296.05782 650.05445,294.70968 647.44654,293.76339 C 646.594,293.45431 645.61988,293.37081 644.78541,293.04269 C 642.02857,291.95919 638.47535,290.01144 635.5276,289.72775 C 634.47731,289.62668 633.43239,289.74875 632.36744,289.58371 C 631.26148,288.43381 630.37769,286.95236 629.37379,285.90793 C 627.23608,283.68481 623.6853,282.54858 620.72583,282.8811 z "
   style="fill:#fefee9;fill-rule:evenodd;stroke:#0978ab;stroke-width:1.98430002;stroke-linejoin:round;stroke-miterlimit:3.8636899"
   id="path19" />
			<path
   d="M 592.72974,367.12915 C 595.19995,367.91968 597.5271,365.02124 600.10328,365.25513 C 602.61305,367.56324 605.49683,365.20337 608.19703,365.68775 C 611.14039,368.0232 612.50025,366.91285 615.73609,366.91285 C 617.4314,366.91285 619.14625,367.20142 620.87379,367.20142 C 624.88893,367.20142 629.63014,366.26197 630.8152,371.14087 C 631.10377,372.32886 631.39577,373.37573 631.25856,374.62427 L 632.09059,375.41724 C 637.11012,376.33033 640.03883,368.31714 643.95387,367.2732 C 644.59694,367.1023 652.03785,367.3064 652.71315,367.48951 C 655.72145,368.30445 656.72438,369.64967 660.47389,369.36305 C 660.87184,369.92897 661.89869,370.46608 662.58082,370.51637 C 664.68189,369.79127 667.50904,369.87819 669.73219,369.93971 C 670.53785,369.22975 672.62867,367.46168 673.22438,366.84108 C 673.5779,366.08669 673.60182,364.73756 673.33522,363.95827 C 672.3445,363.16188 672.08473,361.9197 671.22877,361.07546 C 670.64137,360.49636 669.77369,360.29763 669.12232,359.85036 C 668.07105,359.12917 667.80738,357.87575 666.57203,357.3279 C 663.71607,356.06032 660.96607,357.88308 658.14576,357.54372 C 656.54029,357.35085 654.25904,356.94069 652.82398,356.17507 C 652.15406,355.81765 651.50171,355.16189 650.71705,355.02175 C 650.20289,354.92995 649.57887,355.08474 649.05396,355.02175 C 645.0022,354.53396 643.18726,352.98806 640.29468,350.48171 C 639.70191,349.96804 639.23218,349.27663 638.46558,348.96804 C 637.60474,348.62136 636.76783,348.63308 635.91529,348.10329 C 635.25025,347.11843 634.60816,346.10036 634.14136,345.00417 L 632.9773,344.42751 C 627.93824,345.91481 627.68628,340.21169 623.38648,341.40065 C 622.54859,339.92555 621.41968,338.04762 620.00513,337.07692 C 615.54859,334.0193 606.0105,330.80641 600.65747,329.86989 C 597.57739,329.33083 595.26392,330.78884 592.17554,329.72585 C 591.28345,329.89187 590.53492,330.4822 589.73609,330.66286 C 588.84644,330.86354 587.78834,330.44997 586.90894,330.51833 C 583.01441,330.82253 578.89332,334.54372 576.48706,337.29274 C 575.79565,338.08278 576.21362,343.93239 576.70874,345.07643 C 577.0271,345.81276 577.72095,346.38454 577.92847,347.23854 C 578.1731,348.24586 577.85083,349.28102 577.92847,350.2654 C 578.06177,351.95388 579.19019,352.12478 579.75757,353.4363 C 580.51538,355.18728 580.23706,356.57497 581.58716,358.26491 C 582.64087,359.58425 584.2937,360.03298 585.41236,361.14772 C 585.67506,361.40944 585.81177,361.90016 586.07789,362.15651 C 587.39625,363.42799 589.78541,363.92604 591.1775,365.3279 C 591.7439,365.89771 592.05493,366.60181 592.72974,367.12915 z "
   style="fill:#fefee9;fill-rule:evenodd;stroke:#0978ab;stroke-width:1.98430002;stroke-linejoin:round;stroke-miterlimit:3.8636899"
   id="path21" />
			<path
   d="M 544.83228,309.18628 C 543.76148,309.448 543.62281,310.05444 542.89234,310.55542 C 541.74683,311.34155 541.00513,311.56714 540.0647,312.7898 C 538.23365,315.16968 538.45874,318.19117 534.79859,319.20386 C 533.81031,319.4773 531.073,319.52027 530.03052,319.42017 C 528.63062,319.28492 527.26392,318.56958 525.87281,318.41089 C 523.05689,318.0896 519.77808,319.40454 520.10767,322.73511 C 520.87769,324.33863 524.54566,326.24878 526.26099,326.55493 C 526.70972,326.63452 527.33619,326.5647 527.75757,326.69897 C 529.07495,327.11743 529.42407,328.28833 531.19507,328.21264 L 532.02612,327.27514 L 533.19067,327.49194 C 534.10473,328.71948 534.50708,329.7229 535.07544,331.11889 C 535.28784,331.64086 535.70093,331.98803 535.90698,332.46459 C 536.6228,334.1184 536.06421,336.89525 536.12866,338.73412 L 536.90454,339.59935 L 538.06909,339.74339 C 538.5603,339.41966 539.08325,339.1179 539.62134,338.87864 C 540.1814,339.30637 542.30835,340.42405 542.94751,340.53587 C 544.04224,340.72776 544.87134,340.322 545.8855,340.17552 C 547.52466,339.93919 549.00073,340.50267 550.5979,340.46361 C 551.99194,340.43041 553.65112,339.8098 555.03296,339.95922 C 555.60425,340.02123 556.73853,340.69506 557.13941,341.11254 C 558.53443,341.24682 560.17212,341.61986 561.51929,341.11254 L 562.29517,340.17553 C 561.63746,340.24487 560.59205,339.85668 560.13306,339.38256 C 558.99195,337.28442 559.15161,333.64428 561.74048,332.60863 C 563.36548,331.95873 564.22339,333.75658 567.83862,332.10424 C 568.12524,331.38695 568.05395,330.15697 567.83862,329.43774 C 567.10229,328.47241 565.96704,328.04028 565.17749,327.13159 C 564.81128,325.72534 565.33179,324.31811 565.01147,322.87964 L 565.62133,321.87036 C 565.53588,321.67309 565.22387,320.84936 565.12231,320.71704 L 564.49389,320.23657 C 563.15209,319.21069 561.93188,317.85376 560.52123,316.96948 L 557.13939,316.96948 C 555.40599,316.00317 554.07543,314.50122 552.37181,313.5105 C 549.11548,311.61646 548.03101,312.3064 544.83228,309.18628 z "
   style="fill:#fefee9;fill-rule:evenodd;stroke:#0978ab;stroke-width:1.98430002;stroke-linejoin:round;stroke-miterlimit:3.8636899"
   id="path23" />
			<path
   d="M 75.33594,93.48584 C 74.30982,92.59229 71.06104,92.9436 69.79224,93.19751 C 69.44239,93.80322 68.99341,94.71997 68.51734,95.21533 C 67.04493,96.74658 64.62134,96.86206 64.1377,99.25122 C 63.72535,101.28857 63.58082,108.0437 62.80738,109.41284 C 61.86378,110.11084 60.48316,110.45727 59.86915,111.50268 C 59.69142,112.71581 59.93678,114.66259 61.14405,115.3225 L 60.86695,116.69164 C 60.44678,117.29247 59.74757,117.93944 59.09302,118.27709 L 58.59424,119.50268 C 58.75513,120.70605 59.59229,121.86498 60.53443,122.60131 C 60.71241,124.36645 59.99634,126.27465 61.86475,127.42992 C 62.62964,129.56566 62.45899,131.9663 64.08228,133.77196 C 65.62183,134.84471 70.51343,134.08495 72.67505,134.34862 C 73.89917,133.8037 74.84693,132.91454 76.27857,133.05101 C 77.43384,133.77196 78.76856,134.40257 80.15894,134.06004 L 81.15674,133.33958 L 81.60034,132.1865 C 82.49951,131.98606 83.40088,131.7219 84.26147,131.39353 C 84.53369,130.57957 85.13403,129.96702 85.42553,129.23166 C 86.08984,127.55515 85.71484,125.36154 86.36791,123.61008 C 86.92064,122.12815 88.31981,120.82541 88.58544,119.14206 C 88.91869,117.02927 87.57836,113.68137 89.91601,112.2236 C 90.22827,111.40036 90.11425,110.36081 89.80493,109.5571 C 89.28247,108.19821 88.30664,107.79196 87.53222,106.74631 C 86.28637,105.06418 86.0371,101.80588 84.42773,99.61154 L 83.208,99.1069 C 79.95849,101.11252 77.68334,99.96505 75.28051,97.52169 C 74.77026,96.62183 75.08521,94.40015 75.33594,93.48584 z "
   style="fill:#fefee9;fill-rule:evenodd;stroke:#0978ab;stroke-width:1.98430002;stroke-linejoin:round;stroke-miterlimit:3.8636899"
   id="path25" />
			<path
   d="M 88.69629,42.74951 L 87.86475,43.6145 C 87.57203,46.50439 84.92627,47.94848 84.98194,50.82129 C 85.51734,52.45215 87.32911,53.06299 88.03126,54.5686 C 88.62013,55.83178 88.69068,58.99707 88.91798,60.55053 L 90.02687,60.69482 C 91.8318,59.89965 92.42946,58.91699 93.85207,57.73974 C 94.82839,56.93212 95.98879,56.49291 96.95656,55.79418 C 99.70802,53.80688 99.22975,47.99706 97.95436,45.34398 C 97.50221,44.40379 96.97316,42.70165 95.73683,42.53343 C 94.22291,42.32738 92.5049,42.3867 90.96925,42.31712 C 90.24512,42.28442 89.36694,42.49512 88.69629,42.74951 z "
   style="fill:#fefee9;fill-rule:evenodd;stroke:#0978ab;stroke-width:1.98430002;stroke-linejoin:round;stroke-miterlimit:3.8636899"
   id="path27" />
			<path
   d="M 1274.9085,638.04663 C 1273.9636,638.10962 1273.8377,639.18042 1274.4675,639.49536 C 1275.0974,639.8103 1275.9793,639.87329 1276.1052,639.18042 C 1276.2312,638.48755 1275.8533,637.98413 1274.9085,638.04663 z "
   style="fill:#fefee9;fill-rule:evenodd;stroke:#0978ab;stroke-width:1.98430002;stroke-linejoin:round;stroke-miterlimit:3.8636899"
   id="path29" />
			<path
   d="M 1279.6321,643.21362 C 1278.8132,643.21362 1277.7429,645.4812 1278.9397,645.79614 C 1280.136,646.11108 1280.4509,643.21362 1279.6321,643.21362 z "
   style="fill:#fefee9;fill-rule:evenodd;stroke:#0978ab;stroke-width:1.98430002;stroke-linejoin:round;stroke-miterlimit:3.8636899"
   id="path31" />
			<path
   d="M 1282.0886,651.27563 C 1281.7107,651.65356 1281.5847,652.22045 1281.8997,652.59838 C 1282.2146,652.97631 1282.3406,653.29076 1282.9705,652.85033 C 1283.6003,652.40941 1283.6003,652.09447 1283.2849,651.59056 C 1282.9705,651.08667 1282.4666,650.89771 1282.0886,651.27563 z "
   style="fill:#fefee9;fill-rule:evenodd;stroke:#0978ab;stroke-width:1.98430002;stroke-linejoin:round;stroke-miterlimit:3.8636899"
   id="path33" />
		</g>
	</svg>