<?xml version="1.0" encoding="UTF-8" standalone="no"?>
<!-- Creator: CorelDRAW -->
<svg
   xmlns:dc="http://purl.org/dc/elements/1.1/"
   xmlns:cc="http://web.resource.org/cc/"
   xmlns:rdf="http://www.w3.org/1999/02/22-rdf-syntax-ns#"
   xmlns:svg="http://www.w3.org/2000/svg"
   xmlns="http://www.w3.org/2000/svg"
   xmlns:sodipodi="http://inkscape.sourceforge.net/DTD/sodipodi-0.dtd"
   xmlns:inkscape="http://www.inkscape.org/namespaces/inkscape"
   xml:space="preserve"
   width="250"
   height="366"
   style="shape-rendering:geometricPrecision; text-rendering:geometricPrecision; image-rendering:optimizeQuality; fill-rule:evenodd; clip-rule:evenodd"
   viewBox="0 0 250 366.667"
   id="svg1627"
   sodipodi:version="0.32"
   inkscape:version="0.43"
   sodipodi:docname="LocalLisboa.svg"
   sodipodi:docbase="D:\municipios"
   version="1.0"><metadata
   id="metadata1927"><rdf:RDF><cc:Work
       rdf:about=""><dc:format>image/svg+xml</dc:format><dc:type
         rdf:resource="http://purl.org/dc/dcmitype/StillImage"
	 class="Concelhos Viseu" />

	<dc:title>Munícipios de Portugal</dc:title><cc:license
         rdf:resource="http://creativecommons.org/licenses/GPL/2.0/" />

	<dc:creator><cc:Agent><dc:title>Rei-artur (rei.artur@gmail.com)</dc:title></cc:Agent></dc:creator></cc:Work><cc:License
       rdf:about="http://creativecommons.org/licenses/GPL/2.0/"><cc:permits
         rdf:resource="http://web.resource.org/cc/Reproduction"
	 class="Concelhos Viseu" />

	<cc:permits
         rdf:resource="http://web.resource.org/cc/Distribution"
	 class="Concelhos Viseu" />

	<cc:requires
         rdf:resource="http://web.resource.org/cc/Notice"
	 class="Concelhos Viseu" />

	<cc:permits
         rdf:resource="http://web.resource.org/cc/DerivativeWorks"
	 class="Concelhos Viseu" />

	<cc:requires
         rdf:resource="http://web.resource.org/cc/ShareAlike"
	 class="Concelhos Viseu" />

	<cc:requires
         rdf:resource="http://web.resource.org/cc/SourceCode"
	 class="Concelhos Viseu" />

	</cc:License></rdf:RDF></metadata><sodipodi:namedview
   inkscape:window-height="706"
   inkscape:window-width="820"
   inkscape:pageshadow="2"
   inkscape:pageopacity="0.0"
   borderopacity="1.0"
   bordercolor="#666666"
   pagecolor="#ffffff"
   id="base"
   fill="#b22222"
   inkscape:zoom="8.1607079"
   inkscape:cx="111.94775"
   inkscape:cy="128.53256"
   inkscape:window-x="0"
   inkscape:window-y="0"
   inkscape:current-layer="layer4"
   showguides="true"
   inkscape:guide-bbox="true"
	 class="Concelhos Viseu" />

	
 <defs
   id="defs1629">
   
   
   
   
  
  <metadata
   id="CorelCorpID_0Corel-Layer"
	 class="Concelhos Viseu" />

	
  <sodipodi:namedview
   inkscape:guide-bbox="true"
   showguides="true"
   inkscape:current-layer="layer1"
   inkscape:window-y="-4"
   inkscape:window-x="-4"
   inkscape:cy="327.60442"
   inkscape:cx="146.08303"
   inkscape:zoom="17.548964"
   fill="#fa8072"
   id="namedview5974"
   pagecolor="#ffffff"
   bordercolor="#666666"
   borderopacity="1.0"
   inkscape:pageopacity="0.0"
   inkscape:pageshadow="2"
   inkscape:window-width="1024"
   inkscape:window-height="712"
	 class="Concelhos Viseu" />

	
  
 
   
   
   
   
   
   
   
   
   
   
   
   
   
   
   
   
   
   
   
   
   
   
   
   
   
   
   
   
   
  </defs>
 <g
   inkscape:groupmode="layer"
   id="layer3"
   inkscape:label="fundo"
   style="display:inline"
   sodipodi:insensitive="true"><rect
     style="fill:#4169e1;fill-opacity:1;fill-rule:evenodd;stroke:none;display:inline"
     id="rect2247"
     width="250.4556"
     height="366.66699"
     x="-0.22779924"
     y="-0.093148045"
	 class="Concelhos Viseu" />

	<path     style="fill:#daa520;fill-opacity:1;fill-rule:evenodd;stroke:none;display:inline"
     d="M 104.96355,-0.093148047 L 250.2278,-0.093148047 L 250.2278,366.57385 L 230.60102,366.76015 C 224.84386,360.77777 202.75417,347.28119 187.24716,348.6267 L 183.09201,346.14312 L 108.94015,24.953375 C 105.45983,18.143664 106.28908,8.255693 104.96355,-0.093148047 z "
     id="rect2249"
     sodipodi:nodetypes="cccccccc"
	 class="Concelhos Viseu" />

	</g><g
   inkscape:groupmode="layer"
   id="layer11"
   inkscape:label="escala"
   sodipodi:insensitive="true"><g
     id="g4517"
     transform="translate(2.003645,8.01458)"><text
   sodipodi:linespacing="125%"
   id="text1670"
   y="321.5386"
   x="196.01671"
   style="font-size:5.29479313px;font-style:normal;font-weight:normal;text-align:start;line-height:125%;writing-mode:lr-tb;text-anchor:start;fill:#000000;fill-opacity:1;stroke:none;stroke-width:1px;stroke-linecap:butt;stroke-linejoin:miter;stroke-opacity:1;font-family:Bitstream Vera Sans"
   xml:space="preserve"><tspan
     y="321.5386"
     x="196.01671"
     id="tspan1672"
     sodipodi:role="line">0</tspan></text>




<text
   sodipodi:linespacing="125%"
   id="text1674"
   y="321.5386"
   x="230.56879"
   style="font-size:5.29479313px;font-style:normal;font-weight:normal;text-align:start;line-height:125%;writing-mode:lr-tb;text-anchor:start;fill:#000000;fill-opacity:1;fill-rule:evenodd;stroke:none;stroke-width:1px;stroke-linecap:butt;stroke-linejoin:miter;stroke-opacity:1;font-family:Bitstream Vera Sans"
   xml:space="preserve"><tspan
     y="321.5386"
     x="230.56879"
     id="tspan1676"
     sodipodi:role="line">40mi</tspan></text>




<text
   sodipodi:linespacing="125%"
   id="text1678"
   y="332.85284"
   x="196.01671"
   style="font-size:5.29479313px;font-style:normal;font-weight:normal;text-align:start;line-height:125%;writing-mode:lr-tb;text-anchor:start;fill:#000000;fill-opacity:1;fill-rule:evenodd;stroke:none;stroke-width:1px;stroke-linecap:butt;stroke-linejoin:miter;stroke-opacity:1;font-family:Bitstream Vera Sans"
   xml:space="preserve"><tspan
     y="332.85284"
     x="196.01671"
     id="tspan1680"
     sodipodi:role="line">0</tspan></text>




<text
   sodipodi:linespacing="125%"
   id="text1682"
   y="332.85471"
   x="216.407"
   style="font-size:5.17134809px;font-style:normal;font-weight:normal;text-align:start;line-height:125%;writing-mode:lr-tb;text-anchor:start;fill:#000000;fill-opacity:1;fill-rule:evenodd;stroke:none;stroke-width:1px;stroke-linecap:butt;stroke-linejoin:miter;stroke-opacity:1;font-family:Bitstream Vera Sans"
   xml:space="preserve"><tspan
     y="332.85471"
     x="216.407"
     id="tspan1684"
     sodipodi:role="line">40km</tspan></text>




<text
   sodipodi:linespacing="125%"
   id="text1698"
   y="332.85284"
   x="206.74045"
   style="font-size:5.29479313px;font-style:normal;font-weight:normal;text-align:start;line-height:125%;writing-mode:lr-tb;text-anchor:start;fill:#000000;fill-opacity:1;fill-rule:evenodd;stroke:none;stroke-width:1px;stroke-linecap:butt;stroke-linejoin:miter;stroke-opacity:1;font-family:Bitstream Vera Sans"
   xml:space="preserve"><tspan
     y="332.85284"
     x="206.74045"
     id="tspan1700"
     sodipodi:role="line">20</tspan></text>




<text
   sodipodi:linespacing="125%"
   id="text1702"
   y="321.5386"
   x="213.91254"
   style="font-size:5.29479313px;font-style:normal;font-weight:normal;text-align:start;line-height:125%;writing-mode:lr-tb;text-anchor:start;fill:#000000;fill-opacity:1;fill-rule:evenodd;stroke:none;stroke-width:1px;stroke-linecap:butt;stroke-linejoin:miter;stroke-opacity:1;font-family:Bitstream Vera Sans"
   xml:space="preserve"><tspan
     y="321.5386"
     x="213.91254"
     id="tspan1704"
     sodipodi:role="line">20</tspan></text>




<path   id="path2683"
   d="M 197.34348,324.8711 L 237.0821,324.8711"
   style="fill:#000000;fill-opacity:1;fill-rule:evenodd;stroke:#000000;stroke-width:0.50091118;stroke-linecap:round;stroke-linejoin:round;stroke-miterlimit:4;stroke-dasharray:none;stroke-opacity:1"
	 class="Concelhos Viseu" />

	<path   id="path2685"
   d="M 197.34348,322.56122 L 197.34348,327.53349"
   style="fill:#000000;fill-opacity:1;fill-rule:evenodd;stroke:#000000;stroke-width:0.50091118;stroke-linecap:round;stroke-linejoin:miter;stroke-miterlimit:4;stroke-dasharray:none;stroke-opacity:1"
	 class="Concelhos Viseu" />

	<path   id="path2697"
   d="M 217.37545,324.85366 L 217.37545,322.84777"
   style="fill:#000000;fill-opacity:1;fill-rule:evenodd;stroke:#000000;stroke-width:0.50091118;stroke-linecap:round;stroke-linejoin:miter;stroke-miterlimit:4;stroke-dasharray:none;stroke-opacity:1"
	 class="Concelhos Viseu" />

	<path   id="path2699"
   d="M 209.6553,325.20729 L 209.6553,327.53663"
   style="fill:#000000;fill-opacity:1;fill-rule:evenodd;stroke:#000000;stroke-width:0.50091118;stroke-linecap:round;stroke-linejoin:miter;stroke-miterlimit:4;stroke-dasharray:none;stroke-opacity:1"
	 class="Concelhos Viseu" />

	<path   id="path2701"
   d="M 222.02209,325.20729 L 222.02209,327.53663"
   style="fill:#000000;fill-opacity:1;fill-rule:evenodd;stroke:#000000;stroke-width:0.50091118;stroke-linecap:round;stroke-linejoin:miter;stroke-miterlimit:4;stroke-dasharray:none;stroke-opacity:1"
	 class="Concelhos Viseu" />

	<path   id="path2705"
   d="M 237.0821,324.70946 L 237.0821,322.70357"
   style="fill:#000000;fill-opacity:1;fill-rule:evenodd;stroke:#000000;stroke-width:0.50091118;stroke-linecap:round;stroke-linejoin:miter;stroke-miterlimit:4;stroke-dasharray:none;stroke-opacity:1"
	 class="Concelhos Viseu" />

	</g></g>
<g
   inkscape:groupmode="layer"
   id="layer2"
   inkscape:label="rosa"
   sodipodi:insensitive="true"><path     style="fill:#ffffff;fill-rule:evenodd"
     d="M 18.251699,17.711304 C 23.493301,17.549377 28.145332,22.60625 27.466226,27.827279 C 27.095606,32.440817 22.864806,36.324716 18.215934,36.1748 C 13.475968,36.277549 9.1650878,32.207803 9.0194844,27.465141 C 8.6046337,22.286551 13.077901,17.609348 18.251699,17.711304 z M 18.251699,19.409882 C 22.839147,19.246125 26.771105,24.01828 25.65354,28.494429 C 24.87373,32.399665 20.708015,35.24553 16.787119,34.335714 C 13.032267,33.667999 10.200544,29.864943 10.757579,26.070404 C 11.13263,22.331109 14.503472,19.350734 18.251699,19.409882 z "
     id="path4830"
	 class="Concelhos Viseu" />

	<path     style="fill:#ffffff;fill-rule:evenodd"
     d="M 19.904699,25.582275 C 24.2099,26.052886 28.5151,26.523495 32.820301,26.994105 C 28.510634,27.615178 24.200967,28.236244 19.8913,28.857314 C 19.429433,33.066651 18.967566,37.275989 18.505699,41.485326 C 17.899799,37.297849 17.2939,33.110372 16.688,28.922895 C 12.353333,28.448757 8.0186666,27.974621 3.684,27.500483 C 7.9707668,26.882841 12.257533,26.265198 16.5443,25.647555 C 17.0291,21.232459 17.513899,16.817363 17.998699,12.402267 C 18.634033,16.795603 19.269366,21.188939 19.904699,25.582275 z "
     id="polygon4832"
	 class="Concelhos Viseu" />

	<path     style="fill:#ffffff;fill-rule:evenodd"
     d="M 21.894382,27.21599 C 21.914158,28.652369 20.988715,30.037064 19.658983,30.581488 C 18.352588,31.150006 16.729735,30.855294 15.710718,29.85968 C 14.677988,28.901915 14.300182,27.323951 14.782719,26.00256 C 15.249314,24.632996 16.59697,23.622628 18.046825,23.568054 C 19.456278,23.47721 20.864473,24.293385 21.493859,25.553554 C 21.757527,26.065478 21.89526,26.640486 21.894382,27.21599 z "
     id="circle4834"
	 class="Concelhos Viseu" />

	<path     style="fill:#ffffff;fill-rule:nonzero"
     d="M 20.157,11.726497 C 18.906,10.097805 17.654999,8.4691132 16.403999,6.8404212 C 16.403999,8.4355075 16.403999,10.030594 16.403999,11.625681 C 15.963333,11.625681 15.522666,11.625681 15.082,11.625681 C 15.082,9.0504912 15.082,6.4753024 15.082,3.9001135 C 15.302567,3.9001135 15.523133,3.9001135 15.7437,3.9001135 C 16.961367,5.4531732 18.179033,7.0062328 19.3967,8.5592924 C 19.3967,7.0062328 19.3967,5.4531732 19.3967,3.9001135 C 19.836233,3.9001135 20.275766,3.9001135 20.7153,3.9001135 C 20.7153,6.5089082 20.7153,9.1177028 20.7153,11.726497 C 20.5292,11.726497 20.3431,11.726497 20.157,11.726497 z "
     id="polygon4836"
	 class="Concelhos Viseu" />

	</g><g
   inkscape:groupmode="layer"
   id="layer1"
   inkscape:label="ilhas"
   style="display:inline"
   sodipodi:insensitive="true"><rect
     id="_152988768"
     class="fil4 str0"
     x="3.3568699"
     y="306.55099"
     width="79.914398"
     height="57.0816"
     rx="2.55867"
     ry="2.55867"
     style="fill:none;fill-rule:evenodd;stroke:#ffffff;stroke-width:0.70566702;stroke-opacity:1"
	 class="Concelhos Viseu" />

	<path     style="fill:#ffefd5;fill-rule:evenodd;stroke:#656b6f;stroke-width:0.25400001"
     d="M 15.9873,281.698 C 15.760637,281.8392 15.462996,282.02886 15.2503,282.00067 C 14.98642,282.31588 14.424848,281.59046 14.139634,281.58234 C 12.934436,281.53593 11.950948,280.84111 10.888968,280.38199 C 10.326905,280.54649 10.067312,280.14475 9.6347424,279.80966 C 8.9622092,279.22304 8.112728,278.92091 7.3819671,278.43799 C 6.6413245,277.70559 6.3068374,276.7401 5.9175856,275.7924 C 5.5839504,275.15701 6.8216393,274.81995 7.1435789,274.24725 C 7.742032,273.16785 8.9648752,273.78854 9.4004887,274.68898 C 9.605176,275.30652 10.35449,275.06161 10.484633,275.39066 C 10.88702,275.67645 11.487578,275.65193 11.969967,275.85968 C 12.608587,275.73201 13.330869,275.68102 13.806299,275.15633 C 14.498385,275.41997 15.209989,275.1431 15.911697,275.0491 C 16.602594,274.77949 17.629281,275.98446 17.706633,276.17401 C 17.825551,276.62381 18.318354,276.72983 18.638298,277.12265 C 18.731668,277.66657 19.610678,277.42594 19.826632,277.651 C 20.214159,277.9269 20.983153,277.66963 21.362633,278.14267 C 21.615105,278.10313 21.984941,278.2181 22.201204,278.12471 C 22.673655,278.02706 22.647752,278.00482 22.943966,278.38834 C 23.002963,278.97244 22.427323,277.7078 22.410299,278.41766 C 21.831383,278.39113 21.029114,278.36786 20.834424,278.8885 C 20.725603,279.22636 20.279932,279.16025 20.535299,279.56366 C 20.318369,279.70645 20.188226,279.85525 20.161966,280.15466 C 19.649886,280.18779 19.245381,280.63309 19.2593,281.11667 C 19.04646,281.32131 18.736354,281.59167 18.494968,281.80066 C 18.194775,281.96988 17.656522,282.01258 17.288965,281.77466 C 16.888795,281.69354 16.384439,281.53695 15.9873,281.698 z M 23.063971,278.67801 C 22.863699,278.28511 23.963775,279.15402 23.09697,278.70932 M 23.593969,278.92133 C 23.273918,278.93132 23.918955,278.64344 23.593969,278.92133 z M 42.82967,296.23364 C 43.643144,296.42982 42.608625,297.43293 42.641631,296.48164 C 42.640483,296.36248 42.771122,296.31899 42.82967,296.23364 z M 37.182999,300.50629 C 37.344497,300.61553 37.266694,300.56374 37.182999,300.50629 z M 37.821667,300.39465 C 38.099523,300.33837 38.116652,300.60529 37.848667,300.4823 C 37.918008,300.42619 37.775317,300.45895 37.821667,300.39465 z M 32.439999,266.02393 C 32.734199,265.94385 33.005319,265.49426 33.067466,265.09296 C 33.022867,264.58092 33.416896,264.63538 33.776658,264.24293 C 34.017777,264.05473 34.420828,263.93398 34.729664,263.68228 C 34.838707,264.10498 35.481576,263.89633 35.549,264.16727 C 35.308721,264.58172 35.663074,264.78589 35.473331,265.25327 C 35.386381,265.4169 34.413537,265.00787 34.132739,265.57087 C 33.736661,265.76001 33.150576,266.89555 32.817665,266.34528 C 32.556964,266.43756 32.573529,266.17187 32.439999,266.02393 z M 32.824665,266.72961 C 32.926122,266.78206 32.867643,267.49771 32.890331,267.52161 C 32.785966,267.30311 32.303094,267.26542 32.728329,266.93295 C 32.733386,266.8697 32.899729,266.78343 32.824665,266.72961 z M 32.052998,265.93793 C 32.565604,266.01338 31.958624,266.38214 32.052998,265.93793 z M 35.640667,265.44193 C 35.984509,265.33218 36.142106,265.90766 35.640667,265.44193 z M 26.952667,285.16995 C 27.258794,285.31444 27.101206,285.89088 26.941,285.24826 L 26.952667,285.16995 z M 27.157667,285.77493 C 27.413864,286.00427 27.614129,286.38592 27.810667,286.73093 C 27.947287,287.20266 28.390599,287.59399 28.433334,288.1546 C 28.542045,288.33717 28.756817,289.16429 28.493668,289.09393 C 28.407419,288.63601 28.165812,288.16865 27.969555,287.7134 C 27.997316,287.26916 27.388996,287.08729 27.278667,286.8486 C 27.349549,286.4651 27.16187,286.13869 27.157667,285.77493 z M 28.571337,289.60526 C 28.70559,290.13246 28.569376,290.78945 28.946671,291.22528 C 29.435693,291.55893 29.300685,291.90269 28.844004,291.40027 C 28.612834,290.81096 28.338723,290.22713 28.571337,289.60526 z "
     id="_152980704"
	 class="Concelhos Viseu" />

	<path     style="fill:#ffefd5;fill-rule:evenodd;stroke:#656b6f;stroke-width:0.25400001"
     d="M 69.848297,360.00699 C 70.419266,360.5856 72.204851,360.2875 71.307968,359.19434 C 70.352768,358.88975 70.850318,357.80724 70.072304,357.88034 C 69.162207,357.73534 68.453206,358.08123 67.636963,358.01501 C 66.881186,358.57223 67.430184,359.54691 68.022845,359.95869 C 68.610443,360.10462 69.452591,359.16351 69.848297,360.00699 z M 68.355301,348.22769 C 67.346549,348.36657 66.297431,348.17931 65.378231,348.4586 C 64.384621,348.48163 64.030815,347.34965 62.984158,347.44136 C 61.987745,346.87148 61.073277,348.22584 60.0793,347.68271 C 59.511223,347.26117 58.983344,346.90927 58.370223,346.35413 C 57.830743,345.77898 57.100606,345.65569 56.6343,344.98004 C 55.715829,344.30791 56.085173,343.3636 56.790778,342.77342 C 57.431474,342.36774 58.273195,342.05997 58.929396,342.62966 C 59.861812,342.89566 59.928977,343.71931 60.600657,344.37256 C 61.229157,344.88775 62.161794,344.48425 62.77957,345.03444 C 63.721491,345.11215 64.70968,345.02259 65.392632,344.28003 C 66.158771,344.78086 66.825107,344.79327 67.723339,344.65812 C 68.454369,344.3657 69.472553,344.05885 70.178004,343.58865 C 71.164054,343.5272 72.138596,343.8326 73.086873,343.66155 C 73.747867,343.56022 74.875898,343.57455 74.883291,344.43983 C 75.052592,345.1426 74.942656,346.12987 74.816066,346.71081 C 74.459424,347.35159 73.258708,347.78747 72.602214,347.32549 C 71.6814,346.99395 71.084004,347.78297 70.298585,347.92178 C 69.557404,347.72344 69.047948,348.50776 68.355301,348.22769 z M 27.872999,336.66769 C 27.718603,336.03746 26.737479,335.41736 27.067941,334.61928 C 27.157419,333.30674 28.712591,332.39534 29.935331,332.87003 C 31.319802,332.49185 32.465665,333.30611 33.625332,333.87704 C 34.077317,334.74161 35.027024,335.06535 35.960999,335.08771 C 36.571879,335.58694 37.066872,336.09579 37.775661,336.44171 C 38.609884,336.55069 39.373828,336.73268 40.198994,336.93335 C 40.850481,336.96441 41.767946,337.37085 41.879846,338.06928 C 41.436261,338.47225 40.287032,338.69583 39.671854,338.46421 C 38.944363,338.36374 37.803758,337.95074 37.238225,338.48639 C 36.529614,339.15092 35.31686,339.22551 34.975327,338.13571 C 33.696935,338.09228 32.447725,338.18473 31.251328,337.75638 C 30.544725,337.42494 29.728537,337.89006 28.983328,337.26736 C 28.778008,337.01642 28.204178,336.80084 27.872999,336.66769 z M 27.865667,336.66702 L 27.872999,336.66769 L 27.865667,336.66702 z M 35.498337,326.58673 C 36.686659,327.29702 38.256002,327.53355 39.525168,328.3048 C 40.44483,328.65232 41.360975,328.93976 42.319668,329.2514 C 43.127385,329.71272 43.813551,330.35134 44.753334,330.59973 C 45.304443,331.29996 46.365117,331.36431 47.104333,331.90922 C 47.963149,332.48486 49.318076,332.66104 49.747002,333.65106 C 48.658991,334.20587 47.203767,334.12579 46.347949,333.26145 C 45.087013,332.82984 44.189425,331.66463 42.768424,331.67418 C 41.585069,331.65053 40.897481,330.48498 39.73339,330.37227 C 38.788596,330.10484 38.034583,329.46672 37.134338,329.09241 C 36.28368,328.86775 36.341969,327.78409 35.380028,327.69014 C 34.74883,327.24138 34.012176,326.71457 33.715672,326.01974 C 34.282647,326.08241 35.028489,326.19033 35.498337,326.58673 z M 21.197336,330.78705 C 21.583118,329.73117 22.728844,329.77821 23.476614,330.31785 C 23.977117,331.05152 25.221843,330.9527 25.300335,331.86841 C 24.918275,332.41059 25.430313,333.32427 24.83261,333.58286 C 24.830168,334.60403 24.051994,334.07943 23.251335,334.27341 C 22.421469,334.1016 21.401486,334.61522 20.765669,333.96375 C 21.03494,332.99664 20.492742,332.53089 19.605671,332.28428 C 18.807765,331.8855 18.165844,331.034 19.521675,331.01448 C 20.038555,330.87647 20.813407,331.13125 21.197336,330.78705 z M 21.809669,329.98706 L 21.713357,330.1317 L 21.617045,330.27633 L 21.617002,330.2764 M 21.617002,330.2764 L 21.505773,330.4099 L 21.417336,330.51605 M 21.417336,330.51605 C 21.12418,330.87716 21.118721,330.88389 21.417336,330.51605 z M 63.811035,323.36407 C 64.91805,323.52227 66.047632,323.54932 67.178005,323.90743 C 68.237531,323.90759 68.815945,324.56547 69.230691,325.43113 C 68.832092,325.9087 69.50656,326.41575 69.312035,327.13239 C 68.568083,327.94001 68.475781,328.97878 67.069348,328.56013 C 66.166767,328.53506 65.332817,328.11328 64.468753,328.45312 C 63.834694,328.17477 62.781742,328.37709 62.179035,327.99472 C 61.168178,327.44105 59.938715,326.91675 59.989028,325.55267 C 59.758429,324.41827 60.751989,323.53859 61.792892,323.53371 C 62.46002,323.29471 63.112303,323.23626 63.811035,323.36407 z M 13.478736,311.01175 C 13.432684,309.89156 14.848564,309.89961 14.882093,310.952 C 15.416216,311.71382 13.7183,313.20413 13.717068,312.26077 C 14.025407,311.66384 12.990096,311.55578 13.478736,311.01175 z M 13.613403,322.17145 C 13.20894,321.4887 12.679061,320.57354 12.42733,319.96738 C 11.240075,320.54681 11.077481,319.09146 10.472189,318.95415 C 9.3982731,318.83085 9.8596157,320.10654 8.9547358,320.33612 C 9.3054923,321.29598 8.3887057,321.96397 8.8989115,322.63733 C 8.6940757,323.39858 9.2519139,324.1939 9.0478089,324.8449 C 9.0582957,325.92955 10.304762,325.51935 11.084733,325.69714 C 11.979945,325.69403 12.465206,325.31294 12.745068,324.45346 C 12.828786,323.52471 13.326274,323.39914 13.31619,322.53005 C 13.399731,322.39797 13.693058,322.39902 13.631401,322.18414 M 13.613401,322.17148 L 13.605734,322.13281 L 13.613401,322.17148 z M 42.7131,319.26715 C 43.751282,319.72304 43.94232,319.1475 43.448433,318.30148 C 43.866072,317.52993 42.944259,317.65332 42.365871,316.80547 C 41.638112,316.22037 40.849535,316.35783 40.466049,317.13169 C 40.286376,317.62744 40.994547,318.68668 41.565769,318.72348 C 41.952217,318.92473 42.327653,319.0741 42.7131,319.26715 z M 78.666405,353.42285 C 79.915599,352.50988 79.013442,354.71874 78.666405,353.42285 z "
     id="_152961960"
	 class="Concelhos Viseu" />

	<rect
     id="_152952696"
     class="fil4 str0"
     x="3.3568699"
     y="261.79501"
     width="42.103401"
     height="40.709599"
     rx="2.58267"
     ry="2.58267"
     style="fill:none;fill-rule:evenodd;stroke:#ffffff;stroke-width:0.70566702;stroke-opacity:1"
	 class="Concelhos Viseu" />

	</g><g
   inkscape:groupmode="layer"
   id="layer10"
   inkscape:label="----detalhes----" />

	<g
   inkscape:groupmode="layer"
   id="layer4"
   inkscape:label="Municipios"
   style="display:inline">

	<path     id="path5939"
     style="fill:#ffefd5;fill-opacity:1;fill-rule:evenodd;stroke:#b22222;stroke-width:0.25400001;stroke-opacity:1"
     d="M 113.55249,240.50269 C 114.29951,239.79529 115.20212,238.9053 113.94905,238.21095 C 113.65581,237.15769 114.73409,236.30918 115.15843,235.41867 C 115.75204,234.8415 115.94095,233.37961 116.33282,233.16356 C 116.8779,233.79012 117.157,234.6123 118.04885,234.7272 C 118.64022,235.44475 119.69006,235.59696 119.85036,234.50202 C 120.09021,233.81343 120.9634,233.33615 121.71915,233.21268 C 121.93887,233.91265 120.98781,234.16562 121.32035,234.8881 C 121.12356,235.73795 121.44498,236.69184 120.81382,237.31603 C 121.54545,237.63268 122.20359,238.70763 122.98207,237.99315 C 123.92935,238.22602 124.71731,238.69676 125.74265,238.6559 C 127.30313,238.73926 125.71543,240.34804 126.22782,241.10036 C 126.68673,242.00127 127.83423,243.01391 127.39619,243.98822 C 126.3365,243.77915 125.32482,244.12349 124.29095,244.26856 C 123.0522,244.18058 122.58461,245.05733 122.08535,245.95972 C 121.65625,246.59628 120.53845,247.05512 120.55762,245.89881 C 120.01248,244.89304 118.79976,246.27911 118.07949,246.56868 C 117.74542,245.95068 116.82468,245.73618 116.50084,245.28269 C 116.67038,244.69156 118.34471,244.66201 117.10938,244.3782 C 116.07768,244.20042 114.80667,243.61404 113.83751,243.90896 C 113.39215,244.74661 111.48475,245.62373 111.74183,244.05203 C 111.55917,242.72784 112.97514,243.85226 113.30649,243.07403 C 113.73257,243.25309 114.00402,242.37091 114.5027,243.03158 C 115.02605,242.954 115.45411,241.89576 115.53797,241.49207 C 114.8135,241.33175 114.06366,241.07412 113.55249,240.50269 z M 104.78849,244.72169 C 104.71717,244.21688 104.53819,243.73509 104.4641,243.23316 C 104.37419,242.89272 104.29263,242.53428 104.08949,242.24102 C 103.69036,242.01809 103.27039,241.82411 102.92972,241.51306 C 102.71225,241.28729 102.36117,241.24567 102.12715,241.3126 C 101.89896,240.97678 101.4431,241.05921 101.12617,241.17309 C 100.76582,241.36831 100.3907,241.58613 99.971814,241.60735 C 99.69033,241.80495 99.320521,241.67048 99.027266,241.5646 C 98.847838,241.51395 98.782508,241.354 98.633637,241.2479 C 98.543037,241.19588 98.466285,241.00946 98.358759,241.12169 C 98.045277,241.30094 97.737202,241.49701 97.416145,241.65802 C 97.310401,242.24693 97.191282,242.83477 97.093811,243.42435 C 97.117358,243.51143 97.253468,243.48486 97.317351,243.52928 C 97.468312,243.57008 97.618827,243.64276 97.770053,243.66466 C 97.918985,243.62786 98.064106,243.56452 98.215477,243.54469 C 98.509546,243.62671 98.882584,243.46865 99.101785,243.27233 C 99.33326,243.08046 99.678049,242.81593 99.976322,243.02722 C 100.33088,243.12491 100.7604,243.27038 100.97569,243.5998 C 101.10158,243.8985 101.28381,244.22299 101.21257,244.55538 C 101.06069,244.87962 101.42065,245.1461 101.36143,245.46363 C 101.3083,245.73966 101.47043,245.98126 101.74963,245.79639 C 101.99947,245.64324 102.30081,245.68908 102.34471,246.01788 C 102.47778,246.03344 102.72275,245.80624 102.94147,245.88069 C 102.99653,245.68738 103.02778,245.40412 103.31368,245.56197 C 103.56901,245.71748 103.88308,245.82555 104.16732,245.66831 C 104.43131,245.50301 104.96554,245.6027 104.70415,245.15341 C 104.65232,245.00389 104.69871,244.84635 104.78849,244.72169 z "
	 class="Concelhos Viseu" />

	<path     style="fill:#ffefd5;fill-opacity:1;fill-rule:evenodd;stroke:#b22222;stroke-width:0.25446281;stroke-opacity:1;display:inline"
     d="M 113.32246,113.20589 C 113.17093,114.09537 112.94246,114.97761 112.7663,115.8654 C 112.64094,116.45083 112.51462,117.03605 112.38325,117.62016 C 112.9308,117.87438 113.40507,118.24404 113.82564,118.6744 C 114.55179,119.23881 114.99345,120.07945 115.66843,120.69293 C 116.28387,121.19275 116.85836,121.76819 117.23583,122.47274 C 117.59956,122.60649 117.13484,123.23102 117.5802,123.25541 C 118.20047,123.57416 118.82857,123.9095 119.52123,124.03809 C 119.96145,124.16155 120.32309,123.604 120.24129,123.1928 C 120.14594,122.6591 120.0855,122.08171 120.2726,121.56484 C 120.25977,121.00834 120.70569,120.5175 120.83613,120.0308 C 121.1783,119.73246 120.49789,119.44782 120.64828,119.1229 C 120.30984,118.79003 120.59896,118.34964 120.77351,117.99585 C 121.19118,117.49826 120.73044,116.91935 120.7109,116.36789 C 120.81116,115.88249 121.55431,115.73144 121.473,115.22489 C 121.31936,114.77332 121.70208,114.35728 121.58749,113.95725 C 121.29969,113.52805 120.76925,113.74198 120.41045,113.95908 C 120.0196,114.26702 119.4993,114.01182 119.14555,114.14509 C 117.30418,113.93029 116.46904,114.38834 116.45592,114.99215 C 116.29978,115.33668 116.18881,115.97016 115.75465,115.98501 C 115.34517,115.76329 115.35664,115.21259 115.2657,114.80606 C 115.16209,114.45137 115.64163,113.22809 115.0958,113.39733 C 114.35085,113.38168 115.08557,113.29526 114.34104,113.39467 C 113.97182,113.45217 113.65963,113.25335 113.32246,113.20589 z "
     id="path14485"
     sodipodi:nodetypes="csccccccscccccccccccscsc"
	 class="Concelhos Viseu" />

	<path     style="fill:#a11;fill-opacity:1;fill-rule:evenodd;stroke:#b22222;stroke-width:0.25446281;stroke-opacity:1;display:inline"
     d="M 114.78121,110.68437 C 114.48758,110.92897 114.10204,111.06497 113.83746,111.303 C 113.63564,111.72166 113.6369,112.20395 113.48992,112.64228 C 113.27853,112.9748 113.44631,113.35349 113.85499,113.36113 C 114.16998,113.41334 114.48758,113.40655 114.80161,113.35597 C 115.10594,113.47198 115.5131,113.46617 115.50962,113.04862 C 115.59366,112.65375 115.67934,112.24759 115.62166,111.84366 C 115.60784,111.26102 115.84364,110.64878 115.5679,110.09268 C 115.30885,110.07322 115.1684,110.46026 114.94243,110.58354 C 114.89229,110.62246 114.83913,110.65794 114.78121,110.68437 z M 117.6735,110.48088 C 117.62266,111.80515 117.15665,113.0629 116.83835,114.33696 C 117.12026,114.37978 117.40744,114.20253 117.69086,114.15795 C 118.02621,114.12596 118.3665,114.06597 118.71096,114.06423 C 119.09158,114.04464 119.48198,114.0814 119.84701,114.15944 C 120.213,114.03792 120.59585,113.89757 120.92059,113.70095 C 121.12669,113.39874 121.2874,112.86759 120.80975,112.75755 C 120.33906,112.45822 119.90214,112.10301 119.51689,111.69893 C 118.89347,111.43629 118.29528,111.08757 117.79434,110.63007 C 117.74975,110.58415 117.7068,110.53582 117.6735,110.48088 z "
     id="path14487"
	 class="Concelhos Viseu" />

	<path style="fill:#a1;fill-opacity:1;fill-rule:evenodd;stroke:#b22222;stroke-width:0.25446281;stroke-opacity:1;display:inline"
     d="M 119.39601,103.12505 C 118.82033,103.32894 118.22348,103.44031 117.64547,103.61835 C 117.074,103.9016 116.70983,104.44655 116.29662,104.90955 C 115.94536,104.92828 115.42169,104.50713 115.27684,104.56708 C 115.0723,105.62618 114.95417,106.71001 114.51958,107.70887 C 114.34273,108.3031 114.2692,109.25333 114.17041,109.86236 C 114.45783,109.3413 115.37242,109.21748 115.69906,108.77295 C 116.55596,107.81826 116.42394,106.49274 117.10152,105.38068 C 117.70472,105.06454 117.65087,106.23687 117.74555,106.60687 C 117.92459,107.90025 117.70933,109.06551 117.6735,110.37065 C 118.02774,111.05028 119.77068,111.74705 120.23234,112.3552 C 120.72266,112.64767 121.4957,112.96849 120.99266,113.64418 C 121.62443,113.68745 121.74491,114.3672 121.4469,114.89603 C 121.50973,115.47875 121.76502,116.12052 122.02923,116.66204 C 122.51644,116.98717 123.09095,116.34003 123.46591,116.02351 C 123.75859,115.5199 123.54822,114.83874 123.96682,114.39555 C 124.84627,114.66154 125.03552,113.64412 125.70357,113.41811 C 126.50117,113.18799 125.97701,112.37871 126.21301,111.80366 C 126.29439,111.21495 125.58557,110.95408 125.50086,110.35695 C 125.11183,109.93061 124.48838,109.68258 124.54263,108.95995 C 124.1827,108.51675 124.06682,108.05194 124.35884,107.51699 C 124.47567,106.95922 123.67511,106.88438 123.4204,106.49313 C 123.08048,105.97325 122.76438,105.53336 122.1936,105.22792 C 121.82092,104.52941 120.86753,104.41695 120.58312,103.67256 C 120.5269,103.2118 119.79894,103.07627 119.39601,103.12505 z "
     id="path14489"
     sodipodi:nodetypes="cccccccccccccccccccccsccc"
	 class="Concelhos Viseu />

	</g><g
   inkscape:groupmode="layer"
   id="layer9"
   inkscape:label="----regiões----"
   style="display:inline"
	 class="Concelhos Viseu" />

	<g
   inkscape:groupmode="layer"
   id="layer12"
   inkscape:label="Serras"
	 class="Concelhos Viseu" />

	</svg>