<?xml version="1.0" encoding="UTF-8" standalone="no"?>
<svg
   xmlns:dc="http://purl.org/dc/elements/1.1/"
   xmlns:cc="http://creativecommons.org/ns#"
   xmlns:rdf="http://www.w3.org/1999/02/22-rdf-syntax-ns#"
   xmlns:svg="http://www.w3.org/2000/svg"
   xmlns="http://www.w3.org/2000/svg"
   xmlns:sodipodi="http://sodipodi.sourceforge.net/DTD/sodipodi-0.dtd"
   xmlns:inkscape="http://www.inkscape.org/namespaces/inkscape"
   version="1.1"
   id="Map"
   width="1604"
   height="1800"
   inkscape:version="0.48.4 r9939"
   sodipodi:docname="_Bombarral.svg"
   inkscape:export-filename="D:\_PRIVADO\Mapas e afins\_Freguesias e Concelhos\_Concelhos (com limites das freguesias)_CAOP 2013\Leiria (distrito)\PNG\Bombarral.png"
   inkscape:export-xdpi="99"
   inkscape:export-ydpi="99">
  <metadata
     id="metadata556">
    <rdf:RDF>
      <cc:Work
         rdf:about="">
        <dc:format>image/svg+xml</dc:format>
        <dc:type
           rdf:resource="http://purl.org/dc/dcmitype/StillImage" />
        <dc:title></dc:title>
      </cc:Work>
    </rdf:RDF>
  </metadata>
  <g
     id="g524"
     inkscape:groupmode="layer"
     inkscape:label="áreas"
     clip-path="url(#clip)"
     visibility="visible"
     transform="matrix(2.2578829,0,0,2.2578829,2256.5282,-1655.3111)"
     style="visibility:visible"
     sodipodi:insensitive="true">
    <path
       d="m -704.95754,1117.6661 0,0 -0.28772,-0.01 -0.8515,0.234 -0.90052,0.4381 -0.82376,0.5586 -0.48306,0.4127 -0.34953,0.5177 -0.19511,0.3033 -0.2478,0.3084 -0.38957,0.2663 -0.21108,0.1776 -0.15879,0.382 -0.15528,0.6594 -0.1275,0.9632 -0.13464,0.4657 -0.0575,0.3769 -0.0734,0.2354 -0.99152,1.3752 -0.36122,0.2715 0.22965,0.7021 -2.06231,1.8181 0.37173,0.5767 0.546,0.5718 0.27461,0.5031 0.33955,0.4562 -4.2e-4,0.2147 -0.0497,0.5445 -0.0701,0.6177 -0.11838,0.4396 -0.45457,0.3394 -0.45042,0.2871 -0.57227,0.4282 -0.21963,0.4028 -0.56777,0.1926 -0.3248,0.2978 -0.51938,0.3184 -0.83998,0.5429 -1.24216,1.0238 -1.67963,0.9025 -1.12012,0.7884 -1.45695,1.0077 -1.10368,0.6628 -0.41814,0.3552 -0.30461,0.3292 -0.28472,0.5178 -0.24048,0.6855 -0.21202,0.6436 -0.1715,0.6489 -0.0945,0.67 -0.22329,0.1933 0.32698,0.6604 0.3311,0.629 0.52123,0.8073 0.34746,0.5505 0.88587,0.8709 0.66743,0.6663 1.37561,1.2122 1.08058,0.7928 0.95919,0.6983 0.21355,0.6392 0.12328,1.2045 0.23323,0.9429 -1.56371,1.6881 1.8385,4.9464 1.278,3.4949 1.31451,3.4897 -0.79464,0.1137 -1.22084,0.4321 -0.75052,0.3494 -0.46684,0.3708 -0.65368,0.5747 -1.05988,1.0241 -1.35215,1.2383 0.36349,0.6604 0.52935,0.8284 -0.004,0.2042 -1.58028,-0.2388 -1.55187,-0.2544 -0.75371,-0.096 -0.51473,-0.011 -0.35261,-0.011 -0.49475,0.1299 -0.3975,0.1459 -0.5275,0.2974 -3.12161,2.3604 -1.25027,0.94 -1.14882,0.8773 -0.62903,0.3914 -0.6977,0.2657 -0.888,0.171 -1.23659,0.1703 -2.16098,0.2941 -0.21132,0.277 -0.55648,0.5853 -1.60347,1.2011 -0.88061,0.5218 -1.10791,0.6732 -1.09181,0.7255 -0.62075,0.292 -0.18282,0.2091 -0.73578,1.0456 -1.09291,1.2649 -0.6542,0.7893 -0.50076,1.0828 -0.57386,1.1455 -0.71563,1.0981 -0.45166,0.8473 -0.53288,0.9257 -0.0247,0.1937 -0.067,1.0418 -0.13133,0.7956 -0.2857,0.9576 -0.17151,0.6175 -0.19529,0.3556 -0.60552,0.7632 -0.59738,0.7423 -0.16279,0.319 -0.11036,0.4449 -0.21171,0.4551 -0.3051,0.5282 -0.34561,0.5229 -0.3336,0.5909 -0.22844,0.7012 -0.0986,0.6281 0.0152,0.5027 0.13638,0.7019 0.18019,1.0842 0.0269,0.7383 -0.0903,0.5444 -0.21183,0.5127 -0.34988,0.6171 -0.13868,0.4186 0.0118,0.1832 0.0637,0.5709 0.30994,1.0635 0.50758,1.5509 0.27349,1.0478 0.0801,0.4871 -5.95328,-0.7244 -0.89561,-0.1171 -0.85499,-0.1536 -1.90856,-0.3338 -1.24815,-0.1754 -0.78211,-0.1116 -1.17094,-0.2643 -0.60504,0.5067 -0.39424,0.4965 -0.50784,0.5435 -0.6625,0.8416 -0.33738,0.4444 -0.24451,0.6173 -0.11106,0.7694 -0.0663,0.6858 -0.23648,0.654 -0.31301,0.4182 -0.55627,0.4387 -0.40604,0.3185 -0.45493,0.4389 -0.58522,0.7108 -0.68637,0.6164 -0.41002,0.2819 -0.53552,0.2083 -0.51106,0.1403 -0.52315,0.1036 -0.43409,0.1614 -0.48728,0.3969 -0.77187,0.789 2.55245,0.6599 -0.58182,1.0146 -0.4516,0.7792 -2.56551,3.5916 -1.15082,-0.2171 -1.52422,1.9131 -1.1388,1.7569 -1.25257,1.877 -1.08112,1.3119 -2.11874,3.1266 -1.84232,2.7553 -0.79747,1.3544 -0.43772,-0.048 0.0307,-1.0681 -1.1077,2.3433 -0.57821,1.1873 -0.37506,0.9731 -0.32627,0.9104 -0.48966,1.4754 -0.33441,0.9208 -0.0825,0.6491 -0.10204,0.3192 -0.10621,0.3768 -1.04053,1.2491 -1.38619,1.7406 -0.59336,0.6793 -0.59863,1.2397 -0.24857,0.5859 -0.21652,0.7639 -0.29372,0.8424 -0.42381,1.0096 -0.78981,1.5219 -0.76142,1.522 -0.68834,1.4646 -0.82257,1.6685 -0.46857,1.0723 -0.21625,0.6331 -0.0984,0.4815 -0.0292,0.3717 0.0354,0.5132 0.0517,0.4609 0.0589,0.8693 0.0244,1.8431 -0.12467,1.3977 -0.0144,1.0367 -0.0347,1.0471 0.006,0.8273 0.12775,0.9113 0.12477,0.4192 0.35107,0.76 0.51261,1.0535 0.26614,0.6655 0.26974,0.875 0.25728,1.0111 0.34546,1.4826 0.4788,1.6922 0.97056,3.0233 0.64082,1.7711 0.25351,0.8855 0.16471,0.7019 0.10802,0.6705 -0.0223,0.9267 -0.11685,1.5339 -0.21019,1.5755 -0.0825,0.6596 0.019,0.6022 -0.0954,1.0051 -0.23346,1.0833 -0.21414,1.5284 -0.14852,1.1778 -0.0829,0.8533 0.0106,0.7225 0.0236,0.3404 -0.2977,0.79 -0.74186,1.8048 -0.54223,1.3654 -0.13841,0.251 -0.5853,0.6585 -0.46729,0.465 -0.28459,0.3501 -0.33521,1.2507 -0.16737,0.518 -0.32288,1.1774 -0.40721,0.795 -0.78961,1.3753 -0.89935,1.4902 -0.53303,0.8523 -1.59232,-0.548 -1.81164,3.3156 -0.44874,1.2347 -0.32214,0.8266 -0.25535,-0.048 -0.4177,0.025 -0.38943,0.078 -0.60882,0.2709 -0.68604,0.3546 -0.65748,0.2708 -0.50309,0.1298 -0.31216,-0.027 -0.31609,-0.084 -0.29557,-0.1944 -0.81349,-0.6929 -0.59873,-0.6244 -3.62466,1.6726 -1.80989,0.6505 -0.69786,0.1921 0.10412,0.5867 -1.32602,0.039 -0.74606,-0.017 -0.39341,0.041 2.45156,6.1892 0.90354,2.1383 0.37529,0.8176 0.41959,0.9539 0.55156,1.7867 0.41874,1.3413 -0.98658,0.5476 -0.10554,0.047 0.93149,0.5204 0.70864,0.4467 0.37222,0.3778 0.3597,0.5401 0.55673,1.2893 0.37073,1.0532 0.37875,1.0952 0.25696,1.1577 0.0842,0.4138 0.0958,0.6757 0.0676,0.6075 -0.0293,0.4293 -0.19189,0.586 -0.24865,0.5859 -0.10617,0.3296 0.023,0.6074 0.27635,1.5609 0.43395,1.8074 0.56783,1.7867 0.24529,0.9378 0.18169,0.3617 0.22615,0.4246 0.0926,0.2882 -0.0585,0.7643 0.007,0.6702 0.0795,0.728 0.18521,0.6025 0.39557,0.8334 0.66304,0.9178 0.3235,0.4143 0.25031,0.5085 0.15699,0.5292 0.43349,0.1894 -0.81053,3.4435 0.14162,0.1469 0.73066,1.52 0.40758,0.912 0.42711,1.2523 0.4435,1.1791 0.62545,1.4256 0.62516,1.5564 0.20182,0.435 0.34716,0.7286 0.13722,0.304 0.0399,0.2985 -0.0492,0.2565 -0.36626,0.5804 -0.15883,0.3085 -0.20839,0.7117 -0.0189,1.2199 0.11916,1.1417 -0.1593,2.3663 -0.0252,2.2252 -0.0987,2.4764 -0.0319,1.5864 -0.0747,2.644 0.002,1.0996 1.59394,1.8099 1.5004,1.9353 1.23371,1.4898 2.8111,3.4828 2.22455,2.8008 2.75078,3.289 1.37188,1.3957 0.13713,0.3563 4.07844,4.5537 1.80816,2.2396 0.84185,0.8239 1.64435,1.0926 1.32048,0.8091 3.81646,1.9717 3.54063,1.9972 3.62156,2.1125 4.51291,2.5856 2.7549,1.519 0.37285,0.1473 3.57663,2.3218 3.82867,2.0657 0.52705,0.1162 -0.53533,1.9362 -0.55742,2.8106 -0.48056,2.9102 -0.0988,0.7066 -0.17751,1.5024 -0.45876,2.1667 -0.36384,1.3763 -0.18037,0.9159 -0.19775,1.4761 -0.0789,0.89 -0.23291,0.8215 -0.3187,1.1199 -0.33555,1.4182 -0.54902,2.6482 -0.75418,3.7736 -0.17483,2.1568 -0.0541,0.6753 -0.009,0.4346 -0.12691,0.56 -0.1555,0.6541 -0.29499,1.4131 -0.18036,0.9055 0.003,0.3508 0.15993,1.1208 0.31998,2.1893 0.59338,3.3627 0.31661,1.8594 0.45394,2.1477 0.79056,2.185 1.1065,2.4213 1.52222,3.4484 2.02675,4.7061 1.3731,3.0083 0.83983,1.9338 0.35137,0.7651 0.82539,1.0646 1.63081,1.9878 1.8736,2.3024 2.05593,2.4232 3.88964,4.4323 3.05712,0.8754 1.83271,0.4959 3.32059,1.0015 2.42071,0.6279 0.90015,0.2427 2.08017,0.512 1.07045,0.2901 2.88305,0.7178 2.93947,0.9117 2.62586,-4.6705 1.52665,-2.725 1.85616,-3.2007 1.68931,-2.955 0.84689,-1.5848 0.83148,-2.0142 0.91066,-1.0036 1.76238,-3.0124 2.60107,-4.5974 0.62284,-1.1297 0.98884,-1.6056 1.02093,-1.4169 0.69575,-1.0825 0.71176,-0.9673 1.05741,-1.4169 1.88752,-2.7662 0.31361,-0.6591 0.61815,-0.8209 0.63429,-0.7737 0.68386,-1.2501 0.56145,-0.868 1.10244,-1.6577 -0.69334,-2.3052 -0.91897,-3.1014 -0.83837,-2.8185 -0.28606,-1.0216 2.68636,-0.5551 4.32983,-0.9028 2.35362,-0.5035 3.8672,-0.8095 2.26012,-0.3989 2.3171,-0.5036 3.84681,-0.773 0.0183,-1.1361 3.79747,-0.4224 0.2219,0.6549 0.12164,0.026 2.8526,-0.5603 4.35385,-0.7984 5.14454,1.6064 4.7228,1.5635 4.31757,1.3586 4.94605,1.522 1.49635,-4.3693 1.30829,-3.5425 1.28199,-2.4376 1.92104,-3.7247 1.24976,-2.5895 2.54389,-5.064 2.40931,-4.6872 1.89235,-3.6462 3.70687,-6.9102 3.70687,-6.9889 3.07623,-5.9009 2.52255,-4.7132 0.69145,-1.1717 1.4892,-2.8511 0.67546,-1.3183 1.31819,-2.4744 1.07808,0.4312 2.50486,0.9257 3.89921,1.4202 6.13244,2.335 -0.006,3.4661 0.0313,3.194 1.35958,1.9343 1.50062,2.5053 0.9467,1.4519 2.43135,1.3391 3.45182,2.3408 0.25077,0.435 3.28334,1.2096 4.76701,1.7303 1.86878,0.6313 1.84056,-2.0339 1.44272,-1.8198 1.42651,-1.8355 2.45029,-2.9388 3.04807,-3.9693 1.91408,-2.4474 0.83305,-1.0459 2.49916,-3.1534 2.66552,-3.2264 1.8693,-2.4057 3.97417,-5.0832 -0.17455,-2.5659 -0.0366,-2.6232 0.13999,-1.3821 0.58705,-2.0149 0.74958,-2.2189 0.3867,-0.9367 0.35385,-0.6801 0.40288,-0.9157 0.27727,-0.9892 0.26547,-1.2352 0.86059,-3.2398 0.36331,-1.5807 1.03968,-3.6845 0.89393,-3.868 0.57546,-2.4391 0.22463,-1.0573 0.37901,-1.2456 0.28535,-0.9892 0.31034,-1.4289 1.42158,-1.5058 2.11161,-1.9446 1.13485,0.3996 1.28523,0.18 0.96835,0.5669 0.37966,1.0373 0.33534,0.8382 1.77211,0.018 1.55786,-0.4479 1.55806,-0.5842 0.64911,-0.1927 0.85572,-0.051 -0.22214,-0.613 -2.40379,-3.4016 0.93781,-0.7317 1.25038,-0.9511 4.60765,-3.4909 -0.0843,-0.5917 -0.18972,-0.6024 -0.25085,-0.3879 -0.4861,-0.3515 -0.61999,-0.3046 -0.76175,-0.4147 -0.68831,-0.7236 -0.33127,-0.8487 -0.29043,-1.0529 -0.12512,-0.4033 -0.004,-0.2985 0.13432,-0.3401 0.42676,-0.6748 0.45917,-0.6538 0.24709,0.1836 0.42137,0.2415 0.44988,0.1525 0.31211,0.089 0.40114,0.2153 0.3119,0.2308 0.25105,0.2465 0.31166,0.3984 0.39292,0.2937 0.38498,0.1682 0.60415,0.038 0.70989,-0.177 1.17613,-0.1187 1.11119,-0.077 0.90029,-0.046 0.49483,-0.083 0.66537,-0.2399 0.58851,-0.3709 0.77538,-0.6063 1.45729,-1.0817 0.83613,-0.5591 0.46264,-0.2559 0.35318,-0.277 0.3573,-0.3241 0.2476,-0.1777 0.78286,-0.1716 0.56805,-0.2506 0.62083,-0.2923 0.47474,-0.2192 0.25553,-0.047 0.28392,-0.047 0.41761,0.037 0.34473,-0.041 0.53149,-0.2034 0.39352,-0.1356 0.64888,-0.057 0.35691,-0.052 0.67321,-0.057 1.11104,0.012 0.25141,0.01 0.40534,0.1106 0.26352,0.037 0.31215,0.063 0.13857,-0.5077 -0.29775,-1.6602 -0.0917,-1.1259 -0.34942,-2.409 -0.33175,-3.4405 -0.17303,-0.9532 -0.35483,-1.4247 -0.39103,-1.6394 -0.29035,-1.1418 -0.40316,-1.6551 0.57974,0.074 0.62855,-0.046 0.29638,-0.2666 0.18744,-0.6594 0.21579,-0.6333 0.21887,0.063 0.38086,0.2099 0.7217,0.033 1.04628,-0.1033 2.34818,-0.3266 1.53298,-0.1968 0.69348,-0.083 -0.24988,-1.0947 -0.35021,-1.8592 -0.62714,-0.9748 -0.66769,-0.9643 5e-5,-0.037 0.75429,-0.083 0.64489,-0.1353 0.78298,-0.3078 0.98995,-0.428 1.15644,-0.6215 1.18527,-0.946 0.94992,-0.8155 0.55241,-0.7166 0.40635,-0.6435 0.74708,-0.7529 -0.53792,-0.9903 -0.94986,-2.1847 -0.70335,-1.577 -0.40011,-0.9483 2.18966,-0.1331 0.89211,-0.067 0.67315,-0.067 1.58162,-0.2387 -0.77539,-2.2839 -1.08599,-3.452 -0.72047,-0.9068 -0.58533,-1.891 -0.49565,-2.2416 -0.35079,-1.4299 -0.31204,-0.1156 -0.55127,-0.095 -0.24738,0.042 -0.42197,0.2193 -0.54784,0.3553 -0.52333,0.2244 -0.64907,0.2557 -0.70179,0.2713 -0.48691,0.2664 -0.66554,0.4389 -1.1282,0.7629 -1.03067,0.6007 -0.74253,0.3968 -0.5599,0.2768 -0.52322,0.1354 -0.61244,0.151 -0.81521,0.1821 -1.07083,0.3126 -0.68961,0.2452 -0.97765,0.3651 -0.75854,0.245 -0.79921,0.334 -0.78301,0.3445 -1.05459,0.2864 -0.48268,0.1355 -0.32881,0.2823 -0.44667,0.4706 -0.29246,0.3818 -0.48683,0.1983 -0.69359,0.1822 -0.54343,0.088 -0.89209,0.056 -1.01363,-0.01 -0.61222,-0.011 -0.64058,-0.027 -0.71759,-0.048 -0.78251,-0.012 -0.73401,0.093 -0.55955,0.015 -0.92892,0.2971 -0.21497,0.052 -0.51109,0.1511 -0.38925,0.01 -0.31221,0 -0.1785,0.073 -0.31248,0.188 -0.33266,0.1304 -0.515,0.052 -0.28389,0.047 -1.02219,0.3022 -1.80508,0.5471 -0.36929,0.2246 -0.44646,0.3135 -0.23118,0.042 -0.33274,0.1827 -0.27614,0.2928 -0.49503,0.2559 -0.46641,0.088 -0.4946,-0.037 -0.25532,-0.084 -0.25513,-0.2098 -0.25106,-0.2203 -0.33596,-0.3932 -0.33201,-0.3199 -0.41715,-0.32 -0.36471,-0.1367 -0.55552,0.031 -0.8434,0.035 -0.67997,-0.8178 -0.36825,-0.4822 -0.28318,-0.435 -0.31962,-0.4665 -0.47338,-0.6814 -0.48145,-0.7023 -0.46522,-0.7076 -0.4046,-0.5765 -0.38029,-0.5661 -0.30322,-0.5868 -0.14136,-0.3668 -0.25046,-0.6234 -0.16519,-0.7019 -0.15316,-0.6128 -0.20544,-0.9009 -0.15723,-0.6024 -0.15317,-0.6023 -0.28658,-0.8696 -0.19364,-0.6496 -0.11303,-0.3353 -0.16557,-0.4453 -0.18996,-0.4034 -0.33604,-0.3147 -0.17828,-0.079 -0.0731,0.1099 -0.85314,1.1454 -1.2432,1.6998 -1.27572,1.7521 0.23475,0.2726 -0.52796,0.5804 -2.43246,2.541 -1.68102,1.6206 -0.92173,0.8887 -0.9948,0.9462 -0.72694,0.7738 0.58989,1.3675 -1.63211,1.4269 -0.4587,0.3501 -0.23888,-0.2255 -0.24665,-0.4454 -0.24251,-0.4978 -0.22641,-0.4297 -0.27927,-0.3251 -0.32773,-0.4508 -0.36856,-0.2623 -1.0091,-0.321 -0.63972,-0.5874 -0.42077,-0.5923 -0.348,-0.4508 -0.35224,-0.3252 -0.14981,-0.1364 -0.24313,-0.089 -0.62042,0.046 -0.55138,-0.022 -0.70143,-0.01 -0.4215,-0.1106 -0.45775,-0.2677 -0.49012,-0.3097 -0.45317,-0.6081 -0.34408,-0.3566 -0.73729,-0.4095 -0.88742,-0.3365 -0.54726,-0.064 -0.64861,-0.069 -0.51896,-0.011 -0.68037,-0.5089 -0.72901,-0.5143 -0.60747,-0.4512 -0.49015,-0.2783 -0.6363,-0.1686 -0.69666,-0.4513 -0.71287,-0.4567 -0.71738,-0.1687 -0.7129,-0.4357 -0.66807,-0.5875 -0.58295,-0.5664 -0.23036,-0.4716 -0.0762,-0.5394 0.0253,-0.5969 -0.0804,-0.4347 -0.21012,-0.4506 -0.25884,-0.4088 -0.49346,-0.7443 -0.49252,-1.3412 -0.10078,-0.3667 -0.28708,-0.4926 -0.3762,-0.5451 -0.40058,-0.5033 -0.34376,-0.5451 -0.10458,-0.529 -0.0476,-0.6703 -0.0237,-0.3927 -0.21812,-0.5135 -0.28723,-0.3931 -0.52237,-0.404 -0.7657,-0.3625 -0.72936,-0.263 -0.64443,-0.1319 -0.80265,-0.069 -0.42163,-0.011 -0.36462,-0.1734 -0.34415,-0.2938 -0.28313,-0.4193 -0.364,-0.5556 -0.37644,-0.3776 -0.43757,-0.1892 -0.58771,-0.1004 -0.54741,0.046 -0.34462,0 -0.25934,-0.084 -0.24691,-0.2517 -0.0643,-0.3824 -0.0275,-0.5655 0.0334,-0.5811 -0.072,-0.5866 -0.0887,-0.33 -0.1575,-0.3825 -0.34787,-0.4927 -0.50181,-0.5715 -0.24657,-0.4612 -0.0315,-0.5603 0.0171,-0.5654 0.0739,-0.5916 -0.0961,-0.7122 -0.16944,-0.5187 -0.28289,-0.5607 -0.1979,-0.4715 0.0457,-0.6649 0.0977,-0.2302 -0.0318,-0.3614 -0.14128,-0.3877 -0.16568,-0.3353 -0.23863,-0.346 -0.29962,-0.2466 -0.31193,-0.1471 -0.19018,-0.2254 -0.27111,-0.3199 -0.21027,-0.3407 -0.33558,-0.566 -0.40049,-0.5347 -0.47367,-0.4144 -0.0523,-0.2305 -0.0844,-0.4452 -0.13743,-0.2568 -0.22655,-0.2988 -0.19008,-0.283 -0.29973,-0.1733 -0.32403,-0.1838 -0.3361,-0.2414 -0.38492,-0.1368 -0.29533,-0.3827 0.005,-0.4869 0.0979,-0.3978 0.021,-0.4607 -0.003,-0.4294 -0.0193,-0.6126 0.0372,-0.4083 0.14655,-0.3716 0.32901,-0.3869 0.41827,-0.4286 0.2235,-0.3243 0.12252,-0.5496 0.0212,-0.5497 -0.0271,-0.7697 0.12292,-0.8009 0.32135,-0.6645 0.26079,-0.8164 0.21625,-0.8531 0.64862,0.012 0.49869,-0.025 0.38884,0.2153 0.36755,0.8436 0.4493,0.4301 0.66855,0.2314 0.41721,0.2206 0.45378,0.1683 0.18243,3e-4 0.15331,0.461 0.45668,0.8909 2.71382,-1.0271 0.51523,-0.2296 2.05669,-0.803 2.40971,-1.0119 1.21283,-0.4222 1.46839,-0.5265 1.33072,-0.6314 0.96595,-0.6949 0.76334,-0.7528 0.71542,-1.2188 0.13448,-0.4448 0.35466,-1.2509 0.25999,-0.3399 0.72043,-1.8367 0.31341,-0.8006 0.1792,-0.5233 0.49107,-0.35 0.94114,-0.4017 0.74248,-0.3916 0.48293,-0.3291 0.098,-0.4292 0.27616,-0.3137 0.21537,-0.3347 0.27218,-0.3609 0.93698,-0.3389 0.60446,-0.2765 0.41398,-0.3135 0.4426,-0.4654 0.20338,-0.4447 0.21918,-0.1724 0.23945,-0.1777 0.3532,-0.3293 0.3531,-0.2717 0.46227,-0.078 0.41343,0.037 0.4947,-0.083 0.52739,-0.2505 0.44201,-0.088 0.58786,-0.031 0.42211,-0.3344 0.44631,-0.2507 0.43425,-0.3135 0.5964,-0.3184 0.88434,-0.3914 0.7547,-0.4491 0.39799,-0.4654 0.34138,-0.5597 0.29274,-0.5703 0.25192,-0.3818 0.3408,-0.1775 0.42595,-0.1983 -1.14838,-1.9024 -2.41002,-3.9359 -1.29798,-2.1278 -0.15351,-0.3459 0.95678,-0.067 0.8597,-0.2029 0.65321,-0.3655 0.84029,-0.7684 0.755,-0.6638 0.92541,-0.7631 0.84802,-0.5275 0.66521,-0.2608 -1.17579,-2.515 -0.46628,0.073 -0.75772,-0.2054 -1.523,-0.772 -2.37789,-1.0404 -4.07516,-1.8023 -0.8711,-0.2736 -1.04118,-0.3838 -0.82257,-0.2055 -0.57527,-0.2156 -0.74933,-0.3782 -0.70879,-0.3781 -0.67264,-0.1633 -0.83875,-0.216 -0.74973,-0.1164 -0.22248,-0.2988 -0.20965,-0.7281 -0.22633,-0.4245 -0.36827,-0.3828 -0.48988,-0.383 -0.69249,-0.4304 -0.44561,-0.1788 -0.55916,-0.1422 -0.36083,0.041 -0.40134,0.02 -1.22787,-0.2271 -2.61356,-0.6168 -1.52394,-0.1176 -1.00096,-0.1692 -0.15008,0.063 -0.21936,0.2929 -0.24788,0.3871 -0.37826,0.8005 -0.41463,0.7271 -0.45912,0.6694 -0.32537,0.675 -0.33735,0.5649 -0.22741,0.251 -0.31695,0.4812 -0.37416,0.7638 -0.28861,0.5022 -0.30073,0.476 -0.18665,0.1149 -0.18228,-0.084 -0.27938,-0.1994 -0.28331,-0.278 -0.37674,-0.1524 -0.38105,0.01 -0.21482,-0.016 -0.30794,-0.084 -0.29182,-0.021 -0.25128,-0.027 -0.30813,0.031 -0.4948,0.1615 -0.45854,0.3029 -0.53966,0.3238 -0.2393,0.083 -0.25133,0 0.53731,-1.3762 0.26081,-0.853 0.24053,-0.8478 0.3172,-0.6331 0.31301,-0.544 0.11423,-0.4501 0.12305,-0.8952 0.11464,-0.7066 0.10219,-0.5287 0.14259,-0.4396 0.42702,-0.8685 0.41518,-1.0674 0.123,-0.8638 0.0697,-0.4815 0.13855,-0.4553 0.2926,-0.4656 0.40199,-0.4339 0.37351,-0.3659 0.22379,-0.5233 0.0454,-0.5339 0.0906,-0.8534 0.11118,-1.0784 0.0617,-0.5863 0.10248,-0.7119 0.20004,-0.8846 0.1473,-0.8585 -0.0233,-0.6335 0.0173,-0.6964 0.0373,-0.534 0.0419,-0.8482 -0.031,-0.8901 -0.15242,-1.0003 -0.33008,-1.43 -0.16501,-0.7333 -0.0192,-0.6336 0.0657,-0.5601 0.17956,-0.7537 0.30214,-1.3661 0.22488,-1.2144 -1.69807,-0.1598 -1.32928,-0.1278 -1.57243,-0.1492 -1.22781,-0.2062 -4.13333,-0.6246 -0.16039,1.4135 -0.17981,0.9003 -0.12251,0.5548 -0.83862,-0.2527 -0.83847,-0.347 -1.56396,-0.3691 -0.97265,-0.091 -1.11054,-0.038 -0.94852,0.03 -0.99327,0.1292 -1.28534,0.2701 -1.08664,0.2129 -1.02996,0.2496 -0.57582,0.1509 -0.95718,0.3597 -1.03032,0.4695 -0.78713,0.4699 -0.44656,0.4129 -0.44289,0.6433 -0.62509,0.5225 -0.76276,0.4385 -0.80714,0.3128 -0.97764,0.4644 -0.80342,0.5065 -0.55583,0.308 -0.089,-0.1258 -0.49308,-0.8491 -0.46112,-0.5663 -0.58244,-0.734 -0.61897,-0.7079 -0.53795,-0.6711 -0.40432,-0.5976 -0.3438,-0.4299 -0.41303,-0.2416 -0.34435,-0.1053 -0.46609,-0.027 -0.5187,-0.069 -0.62389,-0.1896 -0.68046,-0.2891 -0.89513,-0.3838 -0.7899,-0.2841 -1.69732,-0.5893 -1.00078,-0.2217 -0.77387,-0.1793 -0.79006,-0.1951 -0.47397,-0.1527 -0.77792,-0.1794 -0.69302,-0.048 -0.83096,0.02 -0.61635,0.1456 -0.3489,0.1826 -0.39363,0.2664 -0.8605,0.6948 -0.93735,0.6005 -1.45228,0.6886 -0.5962,0.2084 -0.40945,0.036 -0.40515,-0.1002 -0.39283,-0.1997 -0.55859,-0.4355 -0.51804,-0.446 -0.52236,-0.2941 -0.46588,-0.1422 -0.49433,-0.1004 -0.51476,-9e-4 -0.95655,-0.017 -1.53624,0.024 -0.80632,-0.1585 -0.70085,-0.2107 -0.80213,-0.237 -0.62781,-0.2525 -0.59156,-0.1267 -0.62369,-0.2891 -0.55441,-0.4984 -0.70037,-0.4777 -0.53451,-0.2942 -1.06474,-0.714 -0.61122,-0.4566 -0.42502,-0.3202 -0.53878,-0.1685 -0.41267,-0.4301 -0.4722,-1.1318 -0.2054,-0.7334 -0.0956,-0.9269 -0.23347,-0.9063 -0.2299,-0.6339 -0.24605,-0.6654 -0.39594,-0.7128 -0.33512,-0.718 -0.27821,-0.812 -0.14467,-0.6967 -0.26183,-0.9063 -0.24133,-1.0319 -0.16822,-1.1208 -0.0232,-0.6231 0.0695,-0.3402 0.49361,-1.7741 0.45366,-2.1041 -0.0188,-0.8168 -0.16879,-0.8014 -0.3915,-0.917 -0.11901,-1.4401 0.0258,-0.7958 0.15577,-0.9789 0.32594,-0.9471 0.13465,-0.5024 -0.0394,-0.6074 -0.1241,-0.859 -0.2614,-1.1419 -0.62948,-1.5457 -0.58432,-1.8703 -0.75857,-1.8758 -0.63736,-1.6662 -0.427,-1.4407 -0.50879,-1.0376 -0.46849,-0.9119 -0.561,-1.2943 -0.24231,-0.477 -0.25884,-0.2989 -0.25467,-0.367 -0.15731,-0.4139 -0.35961,-0.5975 -0.37999,-0.54 -0.54574,-0.7655 -0.5666,-0.4356 -0.42123,-0.1421 -0.43762,-0.043 -1.0092,0.03 -1.36593,0.076 -1.46666,-0.2435 -0.42119,-0.1631 -0.70843,-0.4412 -0.6191,-0.5299 -0.97886,-1.0438 -0.60241,-0.7865 -0.57778,-0.9592 -0.59771,-1.1373 -0.40334,-1.0532 -2.86327,1.1152 -1.6709,0.6304 -2.37249,0.8857 0.0705,-0.8586 0.22748,-2.4604 -1.61302,0.023 -1.09834,0.029 -1.73455,0 -1.59678,0.01 -1.33344,0.05 -0.74566,-0.017 -0.41722,-0.1107 -0.29557,-0.1472 -0.44523,-0.3045 -0.79348,-0.4466 -0.55471,-0.2733 -0.61159,-0.1896 -0.38479,-0.116 -0.68837,-0.3102 -0.67215,-0.3154 -0.70456,-0.3208 -0.6436,-0.4096 -0.47767,-0.2837 -0.50582,-0.4041 -0.67179,-0.4987 -0.54228,-0.4094 -0.40475,-0.2678 -0.48582,-0.2628 -0.39672,-0.2311 -0.39272,-0.205 -0.59896,-0.4305 -0.54215,-0.4775 -0.63144,-0.3991 -0.30341,-0.2833 -0.48111,-0.6031 -0.36408,-0.341 -0.4774,-0.4198 -0.58664,-0.5143 -0.40486,-0.2102 -0.47782,-0.1999 -0.27942,-0.1105"
       id="path526"
       inkscape:connector-curvature="0"
       style="fill:#696969;fill-opacity:1;fill-rule:evenodd;stroke:#000000;stroke-width:1.88273954;stroke-opacity:1" />
    <path
       d="m -516.90747,886.97011 0,0 -2.39736,-0.18666 0.0883,0.60226 0.1567,0.87987 0.0684,0.31949 -0.049,0.28791 -0.13433,0.47628 -0.13432,0.47104 -0.0612,0.32978 -0.10013,2.06807 -0.19663,1.56527 -0.25742,1.59137 -0.51389,2.51777 -0.46818,1.69055 0.21077,-0.10965 0.27152,-0.10957 0.2187,3.1e-4 0.332,0.0842 0.15376,0.10494 -0.22984,2.13594 -0.0214,0.79584 -0.0512,1.79587 0.1374,3.07371 -2.6829,1.13237 -0.78221,0.35492 0.13222,1.0055 -1.57048,-0.72482 -1.25067,-0.60917 -0.31165,-0.1523 -0.57073,-0.25215 -1.07673,-0.44138 -0.68811,-0.30468 -0.0795,-1.02636 -3.76504,-1.17834 -1.88709,-0.22267 -0.64799,-0.0324 -0.15006,0.14115 -1.45377,-0.1854 -1.97204,-0.29612 -2.29994,-0.40133 -2.30003,-0.33852 -3.7861,-0.58685 -0.26357,0.20904 -0.97561,-0.33657 -2.05649,-0.67853 -0.69383,0.82623 -0.54805,0.84217 -0.46329,1.03602 -0.22454,1.17775 -0.0463,1.15184 0.34444,2.57662 0.26464,1.78063 0.0797,0.85359 0.0516,0.73311 0.15682,0.75945 0.12905,0.37195 0.0644,0.27237 -0.12186,0.23543 -1.4331,2.20218 -1.89214,3.07588 -0.90549,1.4804 -0.84468,1.44384 -0.1503,0.28251 -0.13792,0.13593 -0.13376,0.0626 -0.25891,-0.20983 -0.48519,-0.56623 -0.15747,-0.3301 -0.0727,-0.11531 -0.16181,-0.13638 -0.33603,-0.1 -0.86596,-0.5511 -0.76847,-0.72374 -1.44812,-1.25886 -0.62707,-0.48791 -1.34308,-1.07544 -0.54205,-0.45637 -1.22561,-1.07527 -0.72403,-0.63991 -0.22282,0.0363 -0.17432,0.0992 -0.17456,0.25105 -0.0776,0.40829 0.0116,0.37701 0.0481,0.33517 0.3516,0.5032 0.31514,0.51362 0.17778,0.28301 0.0927,0.29336 0.0362,0.18855 0.032,0.26709 -0.0448,0.1413 -0.22323,0.2981 -1.01836,1.09798 -1.65865,-1.30111 -1.65446,-1.39011 -1.86447,-1.76744 -0.60449,0.62737 -0.55972,0.4913 -0.38524,0.28738 -0.57973,0.33942 -0.55535,0.28187 -0.23105,0.11483 -0.51928,0.52801 -0.32874,0.41313 -0.31259,0.4498 -0.42629,0.63811 -0.41398,0.52818 -0.34885,0.32408 -0.60406,0.34985 -1.1072,0.90407 -0.94485,0.69488 -1.0705,0.74181 -0.47866,0.44429 -0.1989,0.26672 -0.23955,0.3609 -0.29226,0.39747 -0.37326,0.38163 -0.2636,0.20378 -0.48246,0.28197 -0.28387,0.21422 -0.33274,0.37646 -0.55211,0.77928 -0.26798,0.40274 -0.23982,0.52844 -0.25629,0.69074 -0.20371,0.74318 -0.2888,0.75875 -0.11846,0.61766 -0.0374,0.58637 -0.0859,0.52869 -0.10192,0.41348 -0.16657,0.30865 -0.1582,0.14112 -0.51479,0.22956 -0.37701,0.19312 -0.21092,0.18292 -0.23942,0.26665 -0.73403,0.54859 -0.81519,0.63224 -0.56784,0.47032 -0.4988,0.36047 -0.39752,0.35017 -0.32464,0.36599 -0.15429,0.2249 -0.25982,0.36086 -0.2803,0.5022 -0.20745,0.53373 -0.14261,0.51813 -0.10178,0.31923 -0.13424,0.35059 -0.54032,0.98349 -0.42703,1.05697 -0.21598,0.79551 -0.36678,1.37123 -0.0613,0.35071 -0.013,0.53929 0.0476,0.60221 0.0681,0.4347 -0.005,0.77491 0.0463,1.41902 0.0954,1.11542 0.003,0.46601 -0.0255,0.71728 -0.0329,0.33505 -0.40967,0.33967 -0.41778,0.33966 0.17388,0.18354 0.15365,0.17304 0.085,0.0734 0.14159,0.11542 0.11328,0.084 0.28345,0.0633 0.2268,0.0318 0.23086,0.0213 0.0525,0.1048 0.28244,0.68637 0.0965,0.43998 0.26535,1.23612 0.21772,0.63391 0.41969,0.98504 1.56802,2.29589 0.22606,0.48731 0.36752,0.68651 0.75977,1.11649 0.84434,1.43078 1.52326,2.44765 1.27631,2.36347 2.04339,4.01402 0.28686,0.47693 0.66253,1.15297 0.98991,1.62997 0.75131,1.37301 1.0826,1.94951 0.41218,0.64991 1.40596,2.41601 0.69912,1.09018 0.70709,1.17921 0.64642,1.11629 0.70235,1.62425 0.6657,1.74986 1.04101,2.67722 0.67782,1.78129 0.50496,0.92232 0.0887,0.27765 -0.39467,1.08322 -0.45972,1.23497 -0.42783,1.56488 -0.4275,1.35544 -0.50901,1.65903 -0.54138,1.6275 -0.0859,0.5026 -0.58857,0.7164 -0.70637,0.9151 -0.93368,1.1871 -0.56838,0.7583 -0.61717,0.863 -0.66187,0.9467 -0.59671,0.732 -0.4346,0.6905 -0.46684,0.5909 -0.39807,0.6487 -0.29241,0.4445 -0.13441,0.4501 -0.0286,0.1413 0.0328,2.2882 0.0159,2.7751 0.10496,0.241 0.0519,0.4661 -0.005,0.4712 -0.0815,0.2984 -0.0452,0.4135 -0.26425,0.5703 -0.27599,0.3085 -0.60804,0.198 -0.2636,0.1567 -0.24761,0.2928 -0.2233,0.2928 -0.63344,0.8839 -0.27631,0.5022 0.64706,0.7446 -0.30478,0.5754 -0.19513,0.4134 -0.13014,0.3087 -0.0735,0.3611 -0.10606,0.4554 -0.0781,0.6805 -0.15533,0.8637 -0.75999,1.4649 -0.33748,0.7482 -0.13832,0.3558 -0.0654,0.3612 -0.021,0.4345 0.0391,0.8902 0.0518,0.5289 0.068,0.5394 0.052,0.4295 0.0158,0.2461 -0.0125,0.2199 -0.0897,0.3559 -0.12235,0.4972 -0.0735,0.3873 -0.004,0.2514 -0.0694,0.3454 -0.0773,0.1989 -0.15839,0.2353 -0.15445,0.3035 -0.0816,0.3454 -0.037,0.3141 -0.029,0.3717 -0.0897,0.3769 -0.10167,0.2354 -0.43494,0.879 -0.12197,0.2616 -0.0124,0.1675 -0.009,0.2722 0.0765,0.3091 0.15315,0.5134 0.16112,0.5919 0.2222,0.4035 0.14534,0.3249 0.0565,0.131 0.0483,0.1728 -0.008,0.1885 0.004,0.199 -0.008,0.1728 0.016,0.1047 0.0565,0.1624 0.0322,0.1257 -0.0286,0.1675 -0.0693,0.2512 -0.15885,0.5181 -0.24858,0.8898 -0.22,0.7484 -0.0737,0.4868 -0.10219,0.5601 -0.0368,0.225 -0.0208,0.3142 -0.005,0.3036 -0.0693,0.2303 -0.14262,0.5077 -0.20752,0.5442 -0.10157,0.1726 -0.44303,0.858 -0.15459,0.3872 -0.11398,0.3297 -0.12623,0.3872 -0.26076,0.9002 -0.0976,0.2198 -0.32096,0.5387 -0.30875,0.5022 -0.10969,0.1778 -0.0691,0.1308 -0.19892,0.2353 -0.23555,0.3348 -0.43474,0.7428 -0.2723,0.5074 -0.1301,0.2721 -0.12177,0.1359 -0.37718,0.2193 -0.29634,0.3399 -0.38552,0.3659 -0.51931,0.4075 -0.43011,0.3763 -0.20288,0.1777 -0.23547,0.2824 -0.309,0.654 -0.68313,1.4806 -0.37377,0.612 -0.34523,0.5021 -0.43844,0.5072 -0.46692,0.5804 -0.24361,0.3033 -0.19458,0.052 -0.24733,0.099 -0.17442,0.1149 -0.34481,0.2403 -0.62469,0.4179 -0.44631,0.3658 -0.23521,0.1148 -0.29975,-0.058 -0.3161,0.026 -0.46217,0.1511 -0.43794,0.1983 -0.35695,0.2298 -0.46244,0.3134 -0.54797,0.575 -1.21331,1.0714 -1.09187,1.1396 -0.97783,0.7838 -1.02609,0.5638 -0.49887,0.2819 -0.25551,0.1357 -0.22717,0.1567 -0.28415,0.3032 -0.30438,0.2927 -0.24385,0.4342 -0.0776,0.3507 -0.0166,0.2617 0.0118,0.2252 -2.1e-4,0.1309 -0.2029,0.1777 -0.72585,0.3182 -0.87548,0.1399 -0.36084,0.1198 -0.17841,0.073 -0.29599,0.1147 -0.17441,0.099 -0.44192,0.1459 -0.93289,0.5482 -1.20451,0.6211 -0.7545,0.4804 -0.18251,0.099 -0.21485,0.052 -0.19057,0.073 -0.17027,0.047 -0.14598,0.063 -0.0893,0.084 -0.16235,0.1568 -0.11782,0.1831 -0.25571,0.2561 -0.16646,0.1934 -0.28015,0.3294 -0.24371,0.3452 -0.3415,0.6644 -0.12609,0.2825 -0.1179,0.2302 -0.10163,0.1936 -0.10956,0.094 -0.27973,0.078 -0.27555,0 -0.21082,0.062 -0.10144,0.078 -0.25567,0.23 -0.34502,0.3502 -0.11366,0.115 -0.0773,0.1622 -0.0452,0.3507 -0.11009,0.4082 -0.16689,0.4448 -0.22347,0.3556 -0.31266,0.3817 -0.36551,0.4811 -0.20729,0.3714 -0.17496,0.4238 -0.12597,0.204 -0.0854,0.157 -0.19488,0.2248 -0.12589,0.1569 -0.0813,0.1569 -0.15865,0.3662 -0.0654,0.3193 -0.11821,0.4135 -0.0735,0.3245 -0.12211,0.3192 -0.16253,0.2615 -0.25174,0.2928 -0.38951,0.2977 -0.33693,0.3503 -0.55597,0.4755 -0.26776,0.188 -0.146,0.068 -1.01748,0.2181 -1.45126,0.3222 -1.65395,0.3741 -0.79056,0.2133 -0.47431,0.1144 -0.36482,0.073 -0.58364,0.062 -0.96044,0.035 -1.13022,-0.2061 -0.94397,-0.1221 -0.54284,-0.095 -1.26807,-0.1645 -0.25097,-0.1523 -1.39798,-0.029 -0.68885,-0.017 -0.67286,0.1088 -0.74183,0.1557 -0.80673,0.1871 -0.9891,0.2025 -0.61628,0.1926 -0.62825,0.088 -0.50666,0.072 -0.5632,-0.038 -0.83058,-0.075 -0.89958,-0.012 -1.93689,-0.051 -1.27214,-0.1541 -0.56307,-0.1058 -0.59937,-0.2105 -0.73267,-0.4411 -1.42886,-0.8926 -1.50561,-1.0237 -3.18932,-2.1473 0.92108,3.8554 0.65595,2.5563 0.72006,2.9753 0.45855,1.9172 0.2858,1.0791 0.57916,2.4619 0.80875,3.253 1.31138,5.4792 0.27418,0.7806 0.30261,0.7493 0.19709,0.8381 0.4841,1.2418 1.37224,3.1806 0.53323,0.9696 0.75533,1.4151 0.58561,1.1425 1.08657,2.0334 0.6099,1.1687 0.90072,1.719 0.64201,1.3468 -0.21895,0.062 -3.44856,-0.137 -0.70106,-0.027 -3.56603,-0.1686 -1.75062,-0.066 -2.37076,-0.02 -2.08303,-0.019 -0.19911,0.2981 -2.21292,0.095 -1.67393,0.107 0.24896,1.2832 -1.75593,0.6252 -0.62856,0.2187 -1.32174,0.3118 -1.35415,0.3064 -1.48798,0.3586 -2.01915,0.5042 -2.61135,0.7754 -0.56769,0.1717 -0.64884,0.2187 -0.83947,0.3074 -1.22489,0.5318 -0.74625,0.2971 0.40334,1.0532 0.59771,1.1373 0.57778,0.9592 0.60241,0.7865 0.97886,1.0438 0.6191,0.5299 0.70843,0.4412 0.42119,0.1631 1.46666,0.2435 1.36593,-0.076 1.0092,-0.03 0.43762,0.043 0.42123,0.1421 0.5666,0.4356 0.54574,0.7655 0.37999,0.54 0.35961,0.5975 0.15731,0.4139 0.25467,0.367 0.25884,0.2989 0.24231,0.477 0.561,1.2943 0.46849,0.9119 0.50879,1.0376 0.427,1.4407 0.63736,1.6662 0.75857,1.8758 0.58432,1.8703 0.62948,1.5457 0.2614,1.1419 0.1241,0.859 0.0394,0.6074 -0.13465,0.5024 -0.32594,0.9471 -0.15577,0.9789 -0.0258,0.7958 0.11901,1.4401 0.3915,0.917 0.16879,0.8014 0.0188,0.8168 -0.45366,2.1041 -0.49361,1.7741 -0.0695,0.3402 0.0232,0.6231 0.16822,1.1208 0.24133,1.0319 0.26183,0.9063 0.14467,0.6967 0.27821,0.812 0.33512,0.718 0.39594,0.7128 0.24605,0.6654 0.2299,0.6339 0.23347,0.9063 0.0956,0.9269 0.2054,0.7334 0.4722,1.1318 0.41267,0.4301 0.53878,0.1685 0.42502,0.3202 0.61122,0.4566 1.06474,0.714 0.53451,0.2942 0.70037,0.4777 0.55441,0.4984 0.62369,0.2891 0.59156,0.1267 0.62781,0.2525 0.80213,0.237 0.70085,0.2107 0.80632,0.1585 1.53624,-0.024 0.95655,0.017 0.51476,9e-4 0.49433,0.1004 0.46588,0.1422 0.52236,0.2941 0.51804,0.446 0.55859,0.4355 0.39283,0.1997 0.40515,0.1002 0.40945,-0.036 0.5962,-0.2084 1.45228,-0.6886 0.93735,-0.6005 0.8605,-0.6948 0.39363,-0.2664 0.3489,-0.1826 0.61635,-0.1456 0.83096,-0.02 0.69302,0.048 0.77792,0.1794 0.47397,0.1527 0.79006,0.1951 0.77387,0.1793 1.00078,0.2217 1.69732,0.5893 0.7899,0.2841 0.89513,0.3838 0.68046,0.2891 0.62389,0.1896 0.5187,0.069 0.46609,0.027 0.34435,0.1053 0.41303,0.2416 0.3438,0.4299 0.40432,0.5976 0.53795,0.6711 0.61897,0.7079 0.58244,0.734 0.46112,0.5663 0.49308,0.8491 0.089,0.1258 0.55583,-0.308 0.80342,-0.5065 0.97764,-0.4644 0.80714,-0.3128 0.76276,-0.4385 0.62509,-0.5225 0.44289,-0.6433 0.44656,-0.4129 0.78713,-0.4699 1.03032,-0.4695 0.95718,-0.3597 0.57582,-0.1509 1.02996,-0.2496 1.08664,-0.2129 1.28534,-0.2701 0.99327,-0.1292 0.94852,-0.03 1.11054,0.038 0.97265,0.091 1.56396,0.3691 0.83847,0.347 0.83862,0.2527 0.12251,-0.5548 0.17981,-0.9003 0.16039,-1.4135 4.13333,0.6246 1.22781,0.2062 1.57243,0.1492 1.32928,0.1278 1.69807,0.1598 -0.22488,1.2144 -0.30214,1.3661 -0.17956,0.7537 -0.0657,0.5601 0.0192,0.6336 0.16501,0.7333 0.33008,1.43 0.15242,1.0003 0.031,0.8901 -0.0419,0.8482 -0.0373,0.534 -0.0173,0.6964 0.0233,0.6335 -0.1473,0.8585 -0.20004,0.8846 -0.10248,0.7119 -0.0617,0.5863 -0.11118,1.0784 -0.0906,0.8534 -0.0454,0.5339 -0.22379,0.5233 -0.37351,0.3659 -0.40199,0.4339 -0.2926,0.4656 -0.13855,0.4553 -0.0697,0.4815 -0.123,0.8638 -0.41518,1.0674 -0.42702,0.8685 -0.14259,0.4396 -0.10219,0.5287 -0.11464,0.7066 -0.12305,0.8952 -0.11423,0.4501 -0.31301,0.544 -0.3172,0.6331 -0.24053,0.8478 -0.26081,0.853 -0.53731,1.3762 0.25133,0 0.2393,-0.083 0.53966,-0.3238 0.45854,-0.3029 0.4948,-0.1615 0.30813,-0.031 0.25128,0.027 0.29182,0.021 0.30794,0.084 0.21482,0.016 0.38105,-0.01 0.37674,0.1524 0.28331,0.278 0.27938,0.1994 0.18228,0.084 0.18665,-0.1149 0.30073,-0.476 0.28861,-0.5022 0.37416,-0.7638 0.31695,-0.4812 0.22741,-0.251 0.33735,-0.5649 0.32537,-0.675 0.45912,-0.6694 0.41463,-0.7271 0.37826,-0.8005 0.24788,-0.3871 0.21936,-0.2929 0.15008,-0.063 1.00096,0.1692 1.52394,0.1176 2.61356,0.6168 1.22787,0.2271 0.40134,-0.02 0.36083,-0.041 0.55916,0.1422 0.44561,0.1788 0.69249,0.4304 0.48988,0.383 0.36827,0.3828 0.22633,0.4245 0.20965,0.7281 0.22248,0.2988 0.74973,0.1164 0.83875,0.216 0.67264,0.1633 0.70879,0.3781 0.74933,0.3782 0.57527,0.2156 0.82257,0.2055 1.04118,0.3838 0.8711,0.2736 4.07516,1.8023 2.37789,1.0404 1.523,0.772 0.75772,0.2054 0.46628,-0.073 1.17579,2.515 -0.66521,0.2608 -0.84802,0.5275 -0.92541,0.7631 -0.755,0.6638 -0.84029,0.7684 -0.65321,0.3655 -0.8597,0.2029 -0.95678,0.067 0.15351,0.3459 1.29798,2.1278 2.41002,3.9359 1.14838,1.9024 -0.42595,0.1983 -0.3408,0.1775 -0.25192,0.3818 -0.29274,0.5703 -0.34138,0.5597 -0.39799,0.4654 -0.7547,0.4491 -0.88434,0.3914 -0.5964,0.3184 -0.43425,0.3135 -0.44631,0.2507 -0.42211,0.3344 -0.58786,0.031 -0.44201,0.088 -0.52739,0.2505 -0.4947,0.083 -0.41343,-0.037 -0.46227,0.078 -0.3531,0.2717 -0.3532,0.3293 -0.23945,0.1777 -0.21918,0.1724 -0.20338,0.4447 -0.4426,0.4654 -0.41398,0.3135 -0.60446,0.2765 -0.93698,0.3389 -0.27218,0.3609 -0.21537,0.3347 -0.27616,0.3137 -0.098,0.4292 -0.48293,0.3291 -0.74248,0.3916 -0.94114,0.4017 -0.49107,0.35 -0.1792,0.5233 -0.31341,0.8006 -0.72043,1.8367 -0.25999,0.3399 -0.35466,1.2509 -0.13448,0.4448 -0.71542,1.2188 -0.76334,0.7528 -0.96595,0.6949 -1.33072,0.6314 -1.46839,0.5265 -1.21283,0.4222 -2.40971,1.0119 -2.05669,0.803 -0.51523,0.2296 -2.71382,1.0271 -0.45668,-0.8909 -0.15331,-0.461 -0.18243,-3e-4 -0.45378,-0.1683 -0.41721,-0.2206 -0.66855,-0.2314 -0.4493,-0.4301 -0.36755,-0.8436 -0.38884,-0.2153 -0.49869,0.025 -0.64862,-0.012 -0.21625,0.8531 -0.26079,0.8164 -0.32135,0.6645 -0.12292,0.8009 0.0271,0.7697 -0.0212,0.5497 -0.12252,0.5496 -0.2235,0.3243 -0.41827,0.4286 -0.32901,0.3869 -0.14655,0.3716 -0.0372,0.4083 0.0193,0.6126 0.003,0.4294 -0.021,0.4607 -0.0979,0.3978 -0.005,0.4869 0.29533,0.3827 0.38492,0.1368 0.3361,0.2414 0.32403,0.1838 0.29973,0.1733 0.19008,0.283 0.22655,0.2988 0.13743,0.2568 0.0844,0.4452 0.0523,0.2305 0.47367,0.4144 0.40049,0.5347 0.33558,0.566 0.21027,0.3407 0.27111,0.3199 0.19018,0.2254 0.31193,0.1471 0.29962,0.2466 0.23863,0.346 0.16568,0.3353 0.14128,0.3877 0.0318,0.3614 -0.0977,0.2302 -0.0457,0.6649 0.1979,0.4715 0.28289,0.5607 0.16944,0.5187 0.0961,0.7122 -0.0739,0.5916 -0.0171,0.5654 0.0315,0.5603 0.24657,0.4612 0.50181,0.5715 0.34787,0.4927 0.1575,0.3825 0.0887,0.33 0.072,0.5866 -0.0334,0.5811 0.0275,0.5655 0.0643,0.3824 0.24691,0.2517 0.25934,0.084 0.34462,0 0.54741,-0.046 0.58771,0.1004 0.43757,0.1892 0.37644,0.3776 0.364,0.5556 0.28313,0.4193 0.34415,0.2938 0.36462,0.1734 0.42163,0.011 0.80265,0.069 0.64443,0.1319 0.72936,0.263 0.7657,0.3625 0.52237,0.404 0.28723,0.3931 0.21812,0.5135 0.0237,0.3927 0.0476,0.6703 0.10458,0.529 0.34376,0.5451 0.40058,0.5033 0.3762,0.5451 0.28708,0.4926 0.10078,0.3667 0.49252,1.3412 0.49346,0.7443 0.25884,0.4088 0.21012,0.4506 0.0804,0.4347 -0.0253,0.5969 0.0762,0.5394 0.23036,0.4716 0.58295,0.5664 0.66807,0.5875 0.7129,0.4357 0.71738,0.1687 0.71287,0.4567 0.69666,0.4513 0.6363,0.1686 0.49015,0.2783 0.60747,0.4512 0.72901,0.5143 0.68037,0.5089 0.51896,0.011 0.64861,0.069 0.54726,0.064 0.88742,0.3365 0.73729,0.4095 0.34408,0.3566 0.45317,0.6081 0.49012,0.3097 0.45775,0.2677 0.4215,0.1106 0.70143,0.01 0.55138,0.022 0.62042,-0.046 0.24313,0.089 0.14981,0.1364 0.35224,0.3252 0.348,0.4508 0.42077,0.5923 0.63972,0.5874 1.0091,0.321 0.36856,0.2623 0.32773,0.4508 0.27927,0.3251 0.22641,0.4297 0.24251,0.4978 0.24665,0.4454 0.23888,0.2255 0.4587,-0.3501 1.63211,-1.4269 -0.58989,-1.3675 0.72694,-0.7738 0.9948,-0.9462 0.92173,-0.8887 1.68102,-1.6206 2.43246,-2.541 0.52796,-0.5804 -0.23475,-0.2726 1.27572,-1.7521 1.2432,-1.6998 0.85314,-1.1454 0.0731,-0.1099 0.17828,0.079 0.33604,0.3147 0.18996,0.4034 0.16557,0.4453 0.11303,0.3353 0.19364,0.6496 0.28658,0.8696 0.15317,0.6023 0.15723,0.6024 0.20544,0.9009 0.15316,0.6128 0.16519,0.7019 0.25046,0.6234 0.14136,0.3668 0.30322,0.5868 0.38029,0.5661 0.4046,0.5765 0.46522,0.7076 0.48145,0.7023 0.47338,0.6814 0.31962,0.4665 0.28318,0.435 0.36825,0.4822 0.67997,0.8178 0.8434,-0.035 0.55552,-0.031 0.36471,0.1367 0.41715,0.32 0.33201,0.3199 0.33596,0.3932 0.25106,0.2203 0.25513,0.2098 0.25532,0.084 0.4946,0.037 0.46641,-0.088 0.49503,-0.2559 0.27614,-0.2928 0.33274,-0.1827 0.23118,-0.042 0.44646,-0.3135 0.36929,-0.2246 1.80508,-0.5471 1.02219,-0.3022 0.28389,-0.047 0.515,-0.052 0.33266,-0.1304 0.31248,-0.188 0.1785,-0.073 0.31221,0 0.38925,-0.01 0.51109,-0.1511 0.21497,-0.052 0.92892,-0.2971 0.55955,-0.015 0.73401,-0.093 0.78251,0.012 0.71759,0.048 0.64058,0.027 0.61222,0.011 1.01363,0.01 0.89209,-0.056 0.54343,-0.088 0.69359,-0.1822 0.48683,-0.1983 0.29246,-0.3818 0.44667,-0.4706 0.32881,-0.2823 0.48268,-0.1355 1.05459,-0.2864 0.78301,-0.3445 0.79921,-0.334 0.75854,-0.245 0.97765,-0.3651 0.68961,-0.2452 1.07083,-0.3126 0.81521,-0.1821 0.61244,-0.151 0.52322,-0.1354 0.5599,-0.2768 0.74253,-0.3968 1.03067,-0.6007 1.1282,-0.7629 0.66554,-0.4389 0.48691,-0.2664 0.70179,-0.2713 0.64907,-0.2557 0.52333,-0.2244 0.54784,-0.3553 0.42197,-0.2193 0.24738,-0.042 0.55127,0.095 0.47952,-0.8005 0.75987,-1.2399 1.18645,-1.8728 0.8452,-1.3864 0.44293,-0.7429 0.39451,-0.9053 0.11803,-0.3349 0.24387,-0.45 0.35727,-0.3608 0.36933,-0.2822 0.49896,-0.1983 0.81111,-0.1769 0.26369,-0.1148 0.20695,-0.1359 0.21532,-0.3243 0.2726,-0.7118 0.17501,-0.5024 0.37792,-0.6435 0.4467,-0.5387 0.40995,-0.345 0.46269,-0.3711 0.28028,-0.3923 0.71527,-1.2767 -0.91803,-1.7186 -0.33554,-0.7178 -0.39197,-0.9691 -0.59831,-1.2836 -0.2668,-0.5764 -0.21826,-0.5029 -0.40819,-0.9535 -0.1738,-0.3982 -0.44479,-0.8697 -0.69517,-1.5979 -1.12876,-1.7504 0.51582,-0.6957 1.31612,-1.9041 1.04804,-1.5379 1.34849,-1.8727 1.12121,-1.7001 1.57215,-2.4117 0.0407,-0.1151 -1.98342,-2.3013 -2.69186,-3.0247 -1.21833,-1.4311 -0.25888,-0.4245 -0.15768,-0.3196 -0.0561,-0.487 0.0938,-0.4345 0.31313,-0.7169 -0.22289,-0.058 -3.10828,-0.821 0.83545,-0.2502 1.01011,-0.496 0.56794,-0.282 0.42364,-1.5074 0.5418,-1.9418 1.11612,-3.9725 -0.59422,-1.2575 -1.0429,-2.2214 -0.66305,-1.3099 -0.65113,-1.1319 -0.38821,-0.7074 -0.39179,-1.0529 -0.23839,-0.5711 -0.46087,-0.9326 -0.44879,-0.8645 1.22985,-1.1503 2.30562,-2.2902 -1.97984,-1.7881 -1.31183,-1.159 0.88879,-0.758 0.23931,-0.1096 0.28389,-0.094 0.37297,-0.026 0.30006,-0.062 0.42994,-0.1879 -0.62276,-1.1109 -0.52183,-0.8071 -0.60287,-0.8228 -0.74451,-1.0063 0.48266,-0.1984 2.34375,-0.557 1.15155,-0.2445 1.22863,-0.2811 1.30974,-0.3124 1.703,-0.3642 0.14729,-1.0208 0.17562,-0.9842 0.0902,-0.7276 -0.0306,-1.3562 -0.22074,-1.6496 -0.44372,-1.6238 -0.28218,-1.1732 -0.12893,-0.5813 -0.0563,-0.3352 0.17091,-0.4972 1.91407,-0.61 1.86943,-0.5787 1.87752,-0.5735 1.04225,-0.3808 0.51921,-0.2821 0.47067,-0.3554 1.31065,-1.0455 0.82393,-0.8262 0.48736,-0.7166 0.28859,-0.6123 0.27652,-0.675 0.19548,-0.6962 -0.002,-1.3927 4.70652,-0.4023 0.14949,0.3772 2.29087,-0.5415 1.6624,-0.3906 2.0596,-0.3743 1.1083,1.8183 0.72863,0.7758 0.40886,0.4194 0.34075,-0.2037 0.0267,-1.8431 0.16375,-1.2669 0.17944,-0.8584 0.36603,-0.9682 0.58474,-0.8318 0.66988,-0.8526 0.66977,-0.7583 0.3893,-0.1462 0.70381,1.1686 0.52614,0.6289 0.42118,0.2938 0.65634,0.2364 0.55929,0.064 0.81067,10e-4 0.79045,-0.036 0.80629,0.2628 0.57916,0.3778 1.54607,-1.4013 1.41625,-1.3073 1.21726,-1.0247 0.58429,-0.4914 0.30031,-0.2929 1.2016,-1.4803 0.38549,-0.3503 1.01836,-0.7946 0.59629,-0.3763 0.58843,-0.57 0.87608,-0.4701 0.78693,-0.486 0.58025,-0.5229 0.31253,-0.3557 0.19503,-0.3872 0.46341,-1.099 0.44256,-0.6225 0.35707,-0.3242 0.93278,-0.4387 0.80293,-0.3289 0.76654,-0.397 0.95734,-0.6481 0.5031,-0.413 0.56793,-0.4077 0.57201,-0.4234 0.2598,-0.3296 0.54423,-0.9209 0.44258,-0.6487 0.51141,-0.5963 0.41403,-0.5126 0.28022,-0.4604 0.13432,-0.4763 0.31683,-0.5704 0.36954,-0.5964 0.45461,-0.5493 0.11778,-0.204 0.23612,-0.8689 0.20329,-0.5338 0.23557,-0.4186 0.41817,-0.5912 0.17881,-0.3977 0.232,-0.8218 0.21984,-0.8218 0.14254,-0.5705 0.25979,-0.34 0.42191,-0.3294 0.49877,-0.1984 0.25536,-0.021 0.31606,0.068 0.36058,0.1209 0.23911,0.021 0.24335,-0.1463 0.88897,-1.1404 0.70212,-0.8108 0.38559,-0.4707 0.0976,-0.2408 5.6e-4,-0.4764 -0.37584,-0.9377 -0.34375,-0.6444 -0.18572,-0.6076 0.0166,-0.3561 0.0211,-0.7016 0.0131,-0.7644 0.0822,-0.9528 0.1302,-0.4292 0.0256,-1.1048 0.16378,-1.4135 0.15135,-1.1936 0.1513,-1.1413 0.10285,-1.3088 0.046,-1.2252 0.0782,-1.0052 0.0411,-0.4869 0.0293,-0.7592 0.0862,-0.9633 0.0861,-0.8167 0.21658,-1.5182 0.20002,-1.225 0.22053,-1.4344 0.27711,-1.3034 0.0575,-0.6701 0.0577,-0.8482 0.19208,-1.3663 0.27277,-1.0626 0.22837,-1.2197 0.22419,-1.1045 0.41475,-1.1829 0.5895,-1.591 0.55252,-1.1722 0.8327,-1.6432 0.54451,-1.2507 0.41033,-0.8844 0.38585,-0.7326 0.45873,-0.6801 0.57237,-0.8267 0.77542,-1.1929 1.98163,-3.4639 1.49436,-2.6477 0.75903,-1.0568 1.24169,-1.4332 1.23756,-1.3599 1.1156,-1.0407 0.86834,-0.9834 0.88084,-1.2975 0.63733,-0.9784 0.56014,-0.8005 0.36535,-0.5651 0.48711,-0.7377 0.44597,-0.1775 0.42124,0.189 0.79034,-0.1091 1.6495,-0.1552 1.25641,-0.1453 3.97149,-0.1212 2.2897,-0.081 1.37798,-0.1503 1.53993,-0.01 1.29267,0.038 0.57128,0.1054 1.04996,-0.3654 0.83906,-0.1981 1.11447,-0.056 1.19552,-0.056 0.41741,-0.015 1.33335,-0.1033 1.84409,-0.2336 1.12667,-0.1035 1.11454,-0.1245 1.24014,-0.098 1.4347,-0.1504 0.75768,0.116 2.0709,-0.1235 3.08813,-0.2115 0.25211,-0.8375 0.13434,-0.5967 0.0537,-0.9843 -0.0601,-0.6546 0.0126,-0.445 0.11798,-0.445 0.39363,-0.5441 0.9617,-1.2661 1.03056,-1.2556 1.61083,-2.0299 0.5521,-0.9838 0.67403,-1.3345 0.80782,-1.4129 0.74271,-1.1407 0.81165,-1.2034 1.08337,-1.4231 0.47455,-0.4446 1.37032,-0.6793 1.24447,-0.449 3.68894,-1.4781 2.28235,-1.0031 3.1295,-1.2745 1.41075,-0.6322 1.0783,-0.444 1.44719,-0.6112 1.9985,-0.8464 2.74837,-1.0969 2.18095,-0.9771 -0.26584,-1.7071 -0.11646,-1.1102 -0.18033,-2.1469 -0.10797,-1.529 -0.24043,-2.8695 -0.20484,-1.9166 -0.36134,-3.5555 -0.1965,-2.1626 -0.19499,-3.7754 -0.18071,-1.7175 -0.0642,-0.6389 -0.15282,-1.2149 -0.20174,-0.906 -0.14843,-1.5709 -0.63226,-4.1004 -0.37475,-2.168 -0.34627,-2.3042 -0.0681,-0.8587 -0.12362,-2.0945 -0.12831,-1.4138 -0.0196,-0.7174 -0.10408,-1.3248 -0.0679,-1.0472 -0.20895,-1.8171 -0.12745,-2.3144 -0.14823,-1.7699 -0.25576,-3.7126 -0.39064,-6.7286 -4.07839,-1.4595 -0.38891,-0.032 -0.96803,-0.2679 -1.20293,-0.352 -3.88827,-1.1139 -4.15566,-1.0879 -2.24776,-0.7562 -3.00485,-1.2754 -0.71688,-0.2049 -0.7087,-0.2887 -0.13348,-0.2148 0.0905,-1.3561 0.0451,-0.4712 0.19929,-0.7694 0.005,-0.8221 -0.13288,-0.8065 -0.14906,-0.8222 -0.10898,-0.4032 -0.0199,-0.3509 0.0696,-0.72772 -0.0238,-0.4765 -0.3956,-1.40888 -0.34314,-1.19938 -0.1007,-0.57082 -0.0724,-0.5708 -0.44006,-1.50316 -0.33937,-0.91664 -0.29418,-1.53444 0.0579,-1.14662 0.17121,-1.04702 -0.0722,-0.68598 -0.16116,-0.87457 -0.0357,-0.79067 0.0574,-0.63349 0.1136,-0.15696 0.25137,-0.20395 0.2637,-0.36625 0.53181,-1.09901 0.10587,-0.53396 -0.0116,-0.57073 -0.20592,-0.67565 -0.0926,-0.56558 0.0614,-0.60207 0.0936,-0.42925 0.16639,-0.28781 0.19488,-0.42392 0.21997,-1.19357 -0.0641,-0.74357 0.0575,-0.81152 0.0411,-0.60733 0.13833,-0.59152 0.12605,-0.46064 0.005,-0.78539 0.0209,-0.644 0.13425,-0.56011 0.11807,-0.58631 0.009,-1.04195 -0.0558,-0.93729 -0.0358,-0.60217 0.18685,-0.49723 0.17092,-0.77475 0.14663,-0.78525 0.37743,-0.68552 0.25981,-0.54428 0.18286,-0.57054 0.0572,-0.48688 -0.0359,-0.57076 -0.0241,-0.18328 0.0489,-0.32458 0.30447,-0.64372 0.42213,-0.83209 0.53962,-0.84768 0.40198,-0.94207 0.15847,-0.48679 0.24827,-1.16213 0.15869,-0.7067 0.0573,-0.60731 -0.0842,-0.8902 0.049,-0.39265 0.15032,-0.43443 0.30423,-0.41857 0.15028,-0.40302 0.22714,-0.29299 0.29188,-0.22485 0.26352,-0.21965 0.2353,-0.35581 0.32439,-0.3243 0.29997,-0.20914 0.20281,-0.27207 0.23136,-0.46577 0.13019,-0.57059 0.0937,-0.59157 0.14237,-0.59152 0.2275,-0.66474 0.15844,-0.46061 0.30835,-0.50234 0.1502,-0.31925 0.19535,-0.92657 0.098,-0.7853 -0.007,-0.74875 0.0856,-0.52351 0.30825,-0.39762 0.35294,-0.53372 0.32459,-0.54422 0.15465,-0.73288 0.0978,-0.63346 0.16698,-0.91089 0.1263,-0.73815 10e-4,-1.09955 0.0211,-0.87962 0.18738,-1.06795 0.27641,-0.97885 0.36161,-1.12538 0.3045,-0.71702 0.44625,-0.69595 1.26961,-1.81563 -1.48993,-0.69261 -1.19037,-0.50383 -1.10546,-0.34143 -1.32817,-0.41496 -2.77773,-0.95573 -1.28353,-0.48823 -0.78553,-0.26783 -1.91516,-0.73497 -1.28327,-0.73434 -0.31977,-0.22023 -0.58253,-0.73363 -1.12049,-1.47245 -0.94605,-1.71837 -0.83683,-1.58212 -0.35974,-0.73341 -0.39647,-0.45593 -0.30325,-0.51868 -0.59046,-0.88025 -0.30731,-0.50821 -0.41662,-0.55544 -0.54202,-0.70742 -0.42454,-0.72823 -0.41666,-0.51356 -0.69185,-0.74423 -1.3023,-1.84442 -0.35674,0.29285 -0.66107,0.82659 -0.87175,0.87873 -0.23923,0.24584 -0.77295,-0.64484 -0.57484,-0.29382 -0.62353,-0.22057 -0.64767,-0.3672 -0.52617,-0.3566 -1.44932,-0.67698 -1.26303,-0.64013 -1.37609,-0.96489 -0.7042,-0.52435 -0.69633,-0.30443 -0.73686,-0.2783 -0.72881,-0.2364 -0.71664,-0.24163 -0.65961,-0.55572 -0.45331,-0.29895 -0.58706,-0.21531 -0.57094,-0.14722 -0.1781,-0.10492 -0.25492,-0.23065 -0.0971,-0.0682 -0.14173,-0.0316 -0.32824,0.15672 -0.33639,0.19337 -0.31194,0.0625 -1.46207,-0.0801 -0.89912,-0.0429 -0.91118,-0.1319 -0.7937,-0.14748 -0.53862,-0.0582 -1.39325,-0.0539 -0.17009,-0.0159 -0.16208,0.0574 -0.23918,0.18823 -0.38533,0.50223 -0.24331,0.26676 -0.30406,0.25623 -0.35257,0.17763 -0.26334,0.0625 -0.563,-6.3e-4 -0.89899,-0.15808 -0.77339,-0.19983 -0.63582,-0.074 -2.46204,-0.48971 -2.88326,-0.49021 -1.9275,-0.39489 -4.23569,-0.80595 -2.38913,-0.46353 -0.80986,-0.17372 -2.62319,2.27982 -5.2748,4.54386 -5.04784,4.31367 -1.68681,1.54259 -1.7719,1.55295 -0.87044,3.03057 -2.40216,6.87715 -0.66247,1.84226 -1.98747,5.53723 -2.69903,-2.23383 -3.28575,-2.71105 -1.95035,-1.64128 -2.45477,-3.14464 -2.26828,-3.24914 -1.6902,-2.31119 -1.49616,-1.99156 -1.83577,-2.4737 -1.19278,-1.64561 -1.18078,-1.51994 -2.15153,-2.56314 -0.12138,-0.0996 -0.0563,-0.30899 -0.0192,-0.79589 -0.024,-0.27231 -0.18172,-0.42958 -0.0361,-0.26184 -0.004,-0.29846 -0.0889,-0.13101 -0.0685,-0.2776 -0.0925,-0.4923 -0.46256,-2.51909 -2.13948,0.71981 -3.66331,1.42466 -2.31379,0.8138 -1.02526,0.40706 -1.49944,0.63158 -0.61195,0.26623 -0.54294,0.14589 -0.44975,0.12507 -1.46688,0.50072 -0.3809,0.12516 -0.19856,0.0678 -0.28357,0.0363 -0.84286,0.29209 -1.47911,0.55828 -2.56902,0.81862 -3.02284,0.94365 -3.55336,0.87484 -1.78276,0.43739 -3.22109,0.75482 -4.63147,1.36021 -0.44065,-0.61846 -0.46082,-0.66561 -0.16558,-0.35627 -0.1046,-0.50803 -0.10082,-0.31954 -0.3556,-0.60786 -0.43632,-0.80695 -0.31911,-0.62876 -0.47688,-0.76511 -0.43246,-0.66557 -0.27458,-0.61299 -0.0523,-0.21999 0.15461,-0.50244 0.0465,-1.38746 -0.0966,-0.43996 -0.15324,-0.48716 -0.20199,-0.37727 -0.34358,-0.50313 -0.16142,-0.4191 -0.004,-0.30893 0.045,-0.31933 -0.11281,-0.42951 -0.0605,-0.19905 -0.0117,-0.31941 -0.0929,-0.20957 -0.21008,-0.38252 -0.25467,-0.3564 -0.15342,-0.35102 3.4e-4,-0.24086 0.0935,-0.27737 0.13816,-0.32444 0.0369,-0.30887 -0.0604,-0.26712 -0.34705,-0.91154 -0.37942,-0.93777 -0.18897,-0.9951 -0.3866,-1.58704 -0.22513,-1.20459 -0.0995,-1.26201 0.11489,-1.06798 0.2412,-1.60186 0.21209,-1.06784 0.0817,-0.48684 0.0291,-0.53926 -0.0225,-1.27237 0.005,-0.39793 0.0286,-0.20416 0.21538,-0.51806 0.057,-0.22507 -0.0116,-0.37177 -0.076,-0.70172 -0.12081,-0.49235 -0.11683,-0.45046 -0.0562,-0.33518 0.0736,-0.48161 -2.38933,-0.13949 -2.04094,-0.20184 -1.66034,-0.13325"
       id="path528"
       inkscape:connector-curvature="0"
       style="fill:#696969;fill-opacity:1;fill-rule:evenodd;stroke:#000000;stroke-width:1.88273954;stroke-opacity:1" />
    <path
       d="m -767.29424,854.39622 0,0 -0.21187,-1.31991 -0.69296,0.22368 -0.60802,0.27099 -0.92031,0.49025 -0.77024,0.3806 -0.66884,0.30227 -0.43361,0.14045 -0.30793,0.0727 -0.61975,0.0667 -0.79762,-0.0802 -1.09316,-0.12275 -0.64787,-0.038 -0.53859,-0.006 -0.64405,0.0667 -0.55097,0.10355 -0.57559,0.2501 -1.02596,0.65231 -0.51912,0.35494 -0.56778,0.38625 -0.45013,0.28702 -0.53519,0.29207 -0.45401,0.20846 -0.55512,0.14542 -0.59961,0.11391 -0.87884,0.0243 -1.49826,-0.0661 -1.26742,-0.0656 -0.89069,-0.11711 -0.89021,-0.33702 -1.10846,-0.5417 -1.07618,-0.48404 -0.59067,-0.27355 -0.36026,-0.0741 -0.5629,-0.006 -0.5471,0.18207 -0.55527,0.21347 -1.29765,0.80352 -1.30627,1.03912 -1.21334,1.13879 -0.71851,0.78383 -0.7182,0.63722 -0.6853,0.41214 -2.23386,1.11561 -1.06235,0.59457 -0.42589,0.30275 -0.33293,0.38673 -0.43479,0.66925 -0.71843,0.73669 -0.75905,0.78896 -1.70045,1.62464 -1.25009,1.24339 -1.63937,1.46245 -1.31123,1.41604 -2.39088,2.47653 -0.62929,0.70022 -1.99346,2.22608 -0.8688,0.94577 -1.51943,2.12764 -0.78825,1.14491 -1.17522,2.13365 -0.83365,1.51656 -0.59729,0.86259 -0.94713,1.54772 -0.21244,0.81633 -0.11897,0.67517 -0.0702,0.61245 -0.094,0.38725 -0.31771,0.80039 -0.58209,1.30245 -0.26925,0.86333 -0.27287,0.67482 -0.32976,0.75324 -0.50028,0.94134 -0.42681,0.68495 -0.20662,0.0257 -0.19854,0.0362 -0.24729,0.10416 -0.56783,0.35999 -0.48277,0.35496 -0.36501,0.21908 -0.24333,0.14082 -0.32033,0.16159 -0.32049,0.23489 -0.17447,0.13574 -0.14624,0.1934 -0.1625,0.21954 -0.20789,0.58596 -0.64025,1.93062 -0.11856,0.48667 -0.0332,0.36121 -0.0451,0.23552 0.0239,0.17808 0.0279,0.18855 -0.10604,0.32439 -0.19957,0.49173 -0.0816,0.26685 -0.0377,0.54969 -0.0256,0.58114 -0.0182,0.89007 -1.03709,0.10236 -0.36059,0.0515 -1.45461,0.24801 -2.28533,0.4346 -0.705,0.11357 0.1884,2.63413 0.11262,2.12083 -0.7091,0.12928 -0.92794,0.18113 -0.51054,0.0878 -0.60378,0.12427 -0.52627,-0.1164 -1.19005,-0.32737 -1.06049,-0.30089 -1.04022,-0.30608 -1.20615,-0.36407 -1.98724,-0.63292 -0.80539,1.48515 -0.75236,1.31772 -0.67082,1.08753 -0.63046,1.15045 -1.09401,1.92429 -1.03707,1.81971 -0.68699,1.06654 -0.29668,0.42865 -0.28909,0.64859 -0.48886,1.20837 -0.34009,-0.0636 -0.63559,-0.13762 -0.61533,-0.14281 -0.55058,-0.12171 -0.55861,-0.14792 -0.57073,-0.16365 -0.85414,-0.21144 -0.74076,-0.20071 -0.67196,-0.17437 -0.53837,-0.14263 -0.61528,-0.16377 -0.40506,0.01 -0.1985,0.01 -0.28358,0.0255 -0.0851,0.0155 -0.20683,0.10946 -0.21908,0.15133 -0.30833,0.21395 -0.7222,0.52189 -0.15825,0.12006 -0.24739,0.13555 -0.13385,0.0782 -0.36933,0.31329 -0.41394,0.33936 -0.0859,0.36631 -0.35107,1.15632 -0.34806,-0.11601 -0.143,0.52326 -1.80516,-0.56976 -1.76457,-0.60109 0.17174,-0.68551 -0.20641,-0.0686 -0.14973,-0.058 -0.14569,-0.0527 -0.23876,-0.0896 -0.19833,-0.0581 -0.58284,-0.17941 -0.31975,-0.10025 -0.52631,-0.10073 -0.57517,0.004 -0.17419,0.0101 0.22997,2.08447 0.10125,1.7124 0.0467,0.80122 0.13917,1.09465 0.0471,0.64414 0.11584,0.68619 0.0722,0.29862 0.0843,0.30389 -1.50693,0.0592 -0.041,0.19363 -0.21876,0.0152 -0.12616,0.25102 -0.51031,-0.0222 0.0626,0.94262 0.0662,1.11543 -1.59962,-0.1452 -1.45794,-0.10821 -0.76128,-0.0908 -0.478,0.0146 -0.32415,0.0463 -0.59178,0.16613 -0.57177,0.2709 -0.39763,0.28178 -0.20698,0.16706 0.20985,0.32513 0.35092,0.61869 0.15709,0.3669 0.11285,0.23589 0.22577,0.4456 0.28608,0.629 0.27385,0.66563 0.28183,0.71277 0.3987,0.96961 0.3744,0.96432 0.17292,0.52401 0.17309,0.45595 0.39857,1.02197 0.11271,0.29872 0.1128,0.25683 0.13687,0.35638 0.0838,0.50809 0.12442,0.482 -0.0372,0.32455 -0.10687,0.65424 -0.13994,0.92643 -0.0177,0.64398 0.1524,0.63916 0.0641,0.31954 0.0763,0.27246 0.0925,0.28296 0.234,0.39326 0.48513,0.3991 0.39627,0.29416 0.28315,0.16823 0.78051,0.53593 -0.0895,0.17781 -0.86604,1.35928 -1.04863,1.48451 -0.41961,-0.69739 -0.12914,-0.20451 -0.16138,-0.27266 -0.13316,-0.21499 -0.14118,-0.24643 -0.1331,-0.24117 -0.12507,-0.20974 -0.10892,-0.18876 -0.12506,-0.21497 -0.15327,-0.27788 -0.14523,-0.24644 -0.15735,-0.26217 -0.16144,-0.24648 -0.0284,0.0156 -1.81417,1.46171 -3.31197,2.73568 -1.15291,-0.64681 -0.97461,-0.67257 -0.0524,-0.0944 0.10724,-0.79561 0.28054,-2.11466 0.10045,-1.34016 -0.89386,-0.55718 -1.71949,-0.85239 -2.39908,-1.22581 -1.26204,-0.73088 -2.39541,-1.05827 -0.59472,-0.2999 -3.02184,-1.63579 -1.25047,-0.47954 -0.55463,-0.12179 -0.39259,-0.13187 -0.44935,-0.11106 -0.35617,-0.11606 -0.38055,-0.0847 -0.46153,-0.0954 -0.70547,0.27053 -2.44185,1.37104 -2.38097,1.31357 -1.76862,1.0271 -1.75222,0.94336 -4.2184,2.29331 0.63157,5.01765 -1.83603,0.41952 -3.46513,0.69294 -5.05386,1.01876 -3.37605,0.69307 -3.85422,0.7599 -1.19131,0.14881 -2.05652,-0.50266 -1.46556,-0.32314 0.0102,0.74877 0.0477,0.37187 0.214,0.27282 0.39211,0.3204 1.04778,0.54198 -0.0163,0.0418 -0.38095,0.0671 -0.0708,0.76427 0.181,0.50836 -0.65219,0.004 -0.69226,-0.16933 -0.26686,-0.19441 -0.30694,-0.36207 -0.18956,-0.32511 -0.29509,-0.24161 -0.31955,-0.18408 -0.14973,-0.058 -0.33623,0.004 -0.23902,0.01 -0.44187,0.12977 -0.70906,0.0662 -0.60334,-0.0906 -0.45342,-0.10589 -0.4414,-0.0535 -0.46981,-0.0326 -0.44541,-0.0692 -2.46975,1.09319 -0.78328,0.57394 -1.08773,0.81923 -0.28426,0.27154 -0.23534,0.15123 -0.26364,0.13022 -0.33636,0.0567 -0.43379,0.13501 -0.4258,0.17692 -0.35662,0.0567 -0.0372,0.29836 -0.0534,0.29307 -0.16279,0.29279 -0.24792,0.31352 -0.47917,0.45429 -0.80774,0.62622 -0.41767,0.16646 -0.62484,0.38584 -0.72216,0.42748 -0.28372,0.0621 -0.51461,0.0563 -0.34057,0.1143 -0.25155,0.15119 -0.46232,0.203 -0.18643,0.0309 -0.19586,0.54926 -0.39104,0.82627 -0.25287,0.65907 -0.12295,0.54946 -0.0866,0.59667 0.0355,0.36138 0.1243,0.4925 0.13218,0.57631 0.31802,0.77052 0.10044,0.31965 0.0557,0.39285 0.0183,0.74355 0.023,0.50795 0.0591,0.63895 0.10338,0.74901 0.11125,0.83805 0.0107,0.56551 -0.0903,0.43959 -0.24469,0.62768 -0.32137,0.51752 -0.35361,0.44937 -0.26026,0.38155 -0.22003,0.49161 -0.18386,0.60165 -0.17558,0.53361 -0.19973,0.47072 -0.39476,0.69535 -0.37411,0.54357 -0.47992,0.72654 -0.29277,0.41812 -0.35767,0.44935 -0.28461,0.39719 -0.32502,0.36043 -0.38183,0.3917 -0.62546,0.61097 -1.20216,1.15923 -0.67028,0.7051 -0.79619,0.83043 -0.45099,0.50147 -0.34521,0.32895 -0.47929,0.48045 -0.38174,0.35504 -0.35745,0.36035 -0.2599,0.24017 -0.40174,0.2555 -0.83971,0.42713 -0.67332,0.31239 -0.46265,0.31293 -0.26455,0.4653 -0.19979,0.48642 -0.0577,0.36113 -0.009,0.35079 0.039,0.57082 0.20065,0.72833 0.43937,0.83892 0.18951,0.34084 0.0602,0.23054 -0.009,0.24084 -0.0775,0.20399 -0.23211,0.44968 -0.28908,0.54902 -0.14653,0.26141 -0.0573,0.21976 -0.0289,0.21983 -0.0492,0.23026 -0.0822,0.46578 -0.15153,0.62268 -0.26893,0.58572 -0.1751,0.33988 -0.35768,0.44411 -0.29727,0.5804 -0.15124,0.50749 -0.13484,0.43423 -0.0861,0.37153 -0.19132,0.34507 -0.18299,0.25607 -0.21946,0.26122 -0.43849,0.36011 -0.22325,0.1618 -0.16642,0.1199 -0.14218,0.1463 -0.11396,0.1986 -0.0895,0.1464 -0.0616,0.3088 -0.0212,0.3455 0.13811,1.3931 0.40713,2.3154 0.39674,1.6452 0.29979,1.5401 0.14383,0.7649 0.14892,0.3721 0.21362,0.4194 0.14102,0.2936 0.0926,0.2202 0.0683,0.2253 0.0115,0.2618 0.0335,1.1259 -0.15272,1.0677 -0.0622,0.5444 -0.32241,0.8892 0.97656,-0.06 0.79824,-0.04 1.76265,-0.1 0.66864,-0.056 1.35358,-0.1482 0.79436,-0.1079 0.42168,-0.1246 0.18012,-0.7063 -0.0432,-0.5342 -0.25473,-0.1944 -0.0766,-0.1468 -0.0919,-0.4872 0.41306,0.069 0.49814,0.075 0.68846,0.1066 0.22691,-0.01 0.17005,0.042 0.17381,0.1523 0.10864,0.2883 0.0159,0.1362 -0.13404,0.1305 -0.22758,0.2665 0.004,0.1204 0.0645,0.1311 0.23008,0.3252 0.39603,0.3885 0.67185,0.2636 0.32361,0.1945 0.48512,0.4045 0.59006,0.5565 0.11708,0.1574 0.39399,-0.3812 0.13816,-0.1567 0.0972,0.01 0.35585,0.2627 0.21024,0.1681 0.16545,0.2518 0.14126,0.2098 0.14549,0.1365 0.21431,0.1629 0.34395,0.1632 0.34013,0.074 0.28776,-0.041 0.32065,-0.2244 0.38185,-0.3864 0.41851,-0.4649 0.12172,-0.068 0.3517,0.2994 0.52937,0.5302 0.0239,0.1624 0.0238,0.199 -0.0909,0.6804 -0.0135,0.5079 0.0276,0.2776 0.10063,0.2516 0.20628,0.1366 0.65253,-0.092 1.00486,-0.034 0.18692,-0.2142 0.42649,-0.4178 0.78299,-0.4064 0.44218,-0.2187 1.06996,-0.1439 1.0751,-0.5627 1.30301,-0.9653 0.65329,-0.391 0.58823,-0.2969 0.55925,-0.056 0.5753,0 0.60754,0.07 0.44542,0.095 0.33971,0.2364 0.34765,0.3046 0.30275,0.4354 0.26292,0.163 0.26327,0.032 0.85481,0.018 1.3695,-0.038 0.85884,0.028 0.66857,-0.03 0.48626,-0.03 0.61995,-0.03 0.59959,0.012 0.72917,0.038 0.70893,0.028 0.46172,0.059 0.36046,0.048 0.31995,0.048 0.34012,0.079 0.25924,0.022 0.22331,-0.188 0.18339,-0.4236 0.26851,-0.4392 0.45437,-0.2396 0.49509,-0.3182 0.40275,-0.6535 0.35392,-0.5698 0.30034,-0.2139 0.25134,-0.057 1.66083,0.1036 0.63152,0.2006 0.27548,0.01 0.5433,-0.1609 0.51902,-0.1715 0.41256,0.2733 0.60303,0.2529 0.25879,0.1996 0.33147,0.2993 0.46816,0.7185 0.51684,0.6977 0.26558,0.7232 0.27845,0.4406 0.19796,0.2204 0.36041,0.069 0.29188,-0.067 0.42204,-0.2712 0.50362,-0.4961 0.30866,-0.2977 0.21894,-0.062 0.2876,0.022 0.23486,0.048 0.1493,0.2412 -0.0334,0.3979 -0.13492,0.4866 -0.005,0.3874 0.25401,0.4928 0.39108,0.7655 0.42693,1.0116 0.16079,0.5083 0.11294,0.2045 0.18626,0.042 0.38513,-0.093 0.30429,-0.172 0.16274,-0.2718 0.0102,-0.8587 -0.0228,-0.6232 0.0659,-0.4448 0.26083,-0.6172 0.13157,-0.7694 0.002,-0.7068 0.0135,-0.555 0.10652,-0.471 0.25636,-0.4497 0.4186,-0.5225 0.14274,-0.3766 -0.0715,-0.5919 -0.20375,-1.1524 -0.0268,-0.6127 0.0586,-0.7381 0.35684,-0.1248 1.18329,-0.1122 0.93205,-0.092 1.19133,-0.086 0.46183,0.012 0.53445,0.1374 0.41683,0.1896 0.3273,0.3463 0.38065,0.074 0.37689,-0.041 0.14804,-0.8845 0.15816,-0.062 0.63966,0.1848 1.83001,0.4968 1.12926,0.4426 0.78096,0.3894 0.54061,-0.716 0.34381,0.226 0.15753,0.1941 0.0278,0.2252 -0.11089,0.6124 0.0395,0.4032 0.32706,0.4511 0.57445,0.347 0.58646,0.4046 0.25056,0.2572 0.28238,0.4981 0.16089,0.4769 0.0764,0.2515 0.30749,0.1736 0.68415,0.2216 0.87887,0.1225 0.65153,0.3106 0.74093,0.2008 0.42112,0.095 0.18604,0.1314 0.0888,0.1154 -0.008,0.1571 -0.20737,0.3031 -0.40609,0.3865 -0.18314,0.3347 -0.0698,0.3977 0.0681,0.3248 0.23421,0.32 0.20212,0.1837 0.0482,0.173 -0.033,0.2512 -0.10627,0.382 -0.009,0.2879 0.0599,0.3405 0.14937,0.2203 0.52578,0.3783 0.59492,0.2685 0.24687,0.1105 0.29927,0.2207 0.25898,0.1315 0.43716,0.1686 0.44513,0.221 0.37236,0.158 0.42095,0.1686 0.34811,0.1317 0.2749,0.2468 0.19799,0.2204 0.14927,0.2622 0.12872,0.3825 0.0645,0.1206 0.77399,-0.056 1.06192,-0.1702 1.07429,-0.2592 1.65752,-0.1792 0.24127,0.7545 0.44277,1.2001 0.78113,2.0178 0.73688,1.892 0.84579,2.0964 1.93186,5.3768 3.2969,-2.8876 3.65399,-3.138 4.9725,-3.8994 6.38393,0.5859 7.12537,0.5979 2.27247,0.2043 1.40983,0.056 2.04559,0.2037 3.73515,0.1867 2.70606,0.1843 2.39003,0.1836 2.53151,0.3252 2.66919,0.3622 3.11893,0.3631 3.23637,0.3896 1.81882,0.1613 2.2723,0.2931 1.46229,0.1551 1.89979,0.1928 0.72913,0.075 0.75724,0.1849 0.34427,0.053 0.27963,-0.031 0.3163,-0.1197 0.11337,0.032 -0.0329,0.2041 -0.11765,0.068 -0.18238,0.026 -0.0939,0.3035 0.005,1.2095 0.14053,0.5711 0.67694,-0.1399 1.07418,-0.2175 0.66852,0 0.77758,0.1536 0.15382,0.063 0.0438,0.3561 1.80239,0.2711 2.73397,0.4092 -0.82014,0.7679 -0.13836,0.272 -0.10186,0.2563 4.61538,1.6072 0.83577,-0.506 0.17064,-0.2143 0.1547,-0.3348 0.0902,-0.4762 0.0293,-0.4084 -0.0189,-0.6336 -0.0346,-0.8326 -0.1296,-1.8643 0.005,-0.5236 0.0618,-0.4815 -4.17242,-0.3444 3.39743,-6.4903 -0.57128,0 -0.45752,-0.1372 -0.3604,-0.09 -0.61934,-0.2474 -0.65976,-0.2895 -0.61119,-0.2684 -0.45728,-0.2471 -0.38432,-0.2626 -0.52561,-0.4882 -0.39617,-0.3988 -0.23018,-0.3408 0.0737,-0.335 0.26863,-0.5544 0.24391,-0.3659 0.39424,-0.5647 0.39432,-0.596 0.22375,-0.4131 0.1019,-0.2773 0.0616,-0.3611 -0.0115,-0.3142 -0.14533,-0.236 -0.23066,-0.1261 0.0651,-0.1046 5.49752,-9.0461 -0.66368,-0.3365 -0.74861,-0.4101 -0.27504,-0.2048 -0.59042,-0.4883 -0.27498,-0.2309 -0.42052,-0.3727 -0.271,-0.1996 -0.35597,-0.2521 -0.14957,-0.147 -0.19396,-0.2308 -0.0401,-0.1676 -0.0562,-0.22 0.0326,-0.1047 0.27659,-0.4968 0.27254,-0.4968 0.34164,-0.6014 0.2277,-0.3712 0.14216,-0.1673 0.20292,-0.1566 0.35696,-0.2034 -0.40521,0.036 -0.58752,0.035 -0.33628,0.01 -0.66844,-0.012 -0.59149,0 -0.5469,-0.017 -0.40507,-0.027 -0.56696,-0.1007 -0.29561,-0.063 -0.26325,-0.037 -0.19037,-0.016 -0.53867,-0.075 -0.40896,-0.1004 -0.4452,-0.1999 -0.27511,-0.1682 -0.24663,-0.2257 -0.0641,-0.3405 0.11432,-0.3977 0.13878,-0.46567 0.17145,-0.58081 0.0694,-0.24593 0.0452,-0.28788 0.10228,-0.45007 0.1063,-0.43434 0.0534,-0.31404 0.10637,-0.46577 0.0902,-0.49721 0.14732,-0.66464 0.0165,-0.12039 0.0328,-0.17795 0.11001,-0.2825 0.10995,-0.25108 0.10982,-0.19872 0.10559,-0.11496 0.134,-0.14107 -0.17423,0.0153 -0.17022,0.031 -0.16214,0.0363 -0.26348,0.0675 -0.27164,0.0937 -0.33632,0.0307 -0.23523,0.11467 -0.30823,0.15115 -0.2839,0.14074 -0.11109,-10.14233 -0.14132,-2.03187 -0.56739,-7.15885 2.60876,0.0477 1.45832,0.0242 1.89583,0.0252 1.36106,0.0397 1.1667,-0.003 0.87107,-0.0452 1.15057,-0.0341 0.99271,-0.092 1.05756,-0.10763 0.95644,-0.18115 0.89179,-0.25984 0.84323,-0.28088 1.29759,-0.57835 2.98435,-1.28675 2.62349,-1.14619 1.20045,-0.6257 1.37488,-0.73529 0.87197,-0.46934 0.84349,-0.41182 1.12735,-0.54733 1.03803,-0.45853 0.74211,-0.36491 1.11144,-0.68875 -0.1386,-1.48208 0.0869,-2.74346 0.6944,-2.67933 0.4656,-1.77399 0.9031,-3.66847 0.8712,-2.02445 0.37818,-0.67987 3.05294,-5.07235 2.12897,-3.01138 1.65005,-2.57782 0.15898,-0.47613 -0.287,-0.28335 -6.86825,-4.55951 -3.60802,-0.49471 -11.85293,-1.45518 -13.95004,-1.89482 -9.15152,-1.22477 -0.10964,0.12541 0.18096,6.00084 0.0421,2.92177 0.22242,3.77564 -0.005,2.04202 -4.15926,3.22644 -1.87441,1.31522 -2.44274,1.84275 -1.24257,1.33758 -0.97793,0.74128 -0.54866,0.79461 -0.32946,0.59092 -0.45593,-0.79691 -0.73398,-1.43634 -0.80311,-1.31606 -0.007,-0.65975 0.31509,-1.39729 -0.1464,-1.524 -0.23427,-2.07398 -0.31556,-0.17351 -0.54667,-1.84955 0.12709,-0.66468 0.18979,-1.518 -0.0364,-0.0106 0.434,-2.03056 0.11607,-1.16212 0.10295,-0.73804 0.16776,-0.73789 0.3139,-0.87892 0.10648,-0.51288 -0.0551,-0.70699 -0.0676,-0.53946 -0.40736,-0.76538 -0.27786,-0.71273 -1.77583,-1.04079 -0.14962,-0.1103 -0.91,-0.59899 0.0408,-0.1151 0.0571,-0.15171 0.0652,-0.1517 0.0935,-0.16733 0.15448,-0.2405 0.17471,-0.23522 0.25586,-0.29787 0.13805,-0.14629 0.14612,-0.13056 0.62083,-0.48029 0.56406,-0.45423 0.5519,-0.44903 0.15822,-0.1096 0.25146,-0.14603 0.2636,-0.13553 0.29198,-0.15118 0.29198,-0.15117 0.27988,-0.17215 0.27989,-0.17738 0.30017,-0.19305 0.3002,-0.20352 0.15418,-0.11484 0.1096,-0.10446 0.0731,-0.0784 0.0894,-0.13593 0.0366,-0.0732 0.0204,-0.0785 0.0288,-0.1832 0.004,-0.13612 -0.0315,-0.40324 -0.0397,-0.3509 -0.0397,-0.35614 -0.0114,-0.3456 0.013,-0.35078 0.0537,-0.45017 0.0739,-0.45013 0.0737,-0.34541 0.0696,-0.34541 0.0287,-0.16749 0.0289,-0.25649 0.033,-0.25649 0.0164,-0.0942 2.47732,2.47179 1.15586,1.13883 1.443,1.33845 1.35014,1.21257 2.18687,1.98414 1.12888,0.54185 0.0941,-0.40296 0.51051,-1.86809 0.46073,-1.34985 0.29411,-1.10413 0.43282,-1.54363 0.17963,-0.63315 0.15487,-0.42377 0.19165,-0.57029 0.0945,-0.61763 0.0262,-0.82199 -0.11899,-1.126 -0.10725,-0.94272 -0.16235,-1.66017 -0.26185,-2.44579 -0.11119,-0.98985 -0.18863,-0.77535 -0.0318,-0.28281 -0.0189,-0.62313 -0.0708,-0.92169 -0.0713,-0.71225 -0.0895,-1.62859 -0.0581,-1.17299 0.002,-1.05766 0.0348,-1.05236 0.0336,-0.5497 0.13254,-1.30869 0.0618,-0.46063 0.0817,-0.29303 0.20832,-0.78493 0.13455,-0.39763 0.34618,-0.85269 0.2731,-0.77431 0.41983,-1.18762 0.25212,-0.44973 0.17468,-0.23523 1.22238,-1.46333 0.50781,-0.69001 0.14227,-0.23006 0.1139,-0.21966 4.22015,-5.42028 5.33219,-2.85747 6.37588,-2.34213 2.46791,-0.65432 6.42828,-2.27411 0.55387,0.4515 2.42375,-0.85345 11.45759,-3.86572 0.95241,-0.31737 0.75367,-0.17641 1.13068,-0.34841 0.63163,0.0746 0.6318,-0.004 4.75325,-1.26229 2.34622,-0.62338 1.54716,-0.0386 11.35428,0.84569 0.28923,-2.79018 0.91604,-4.30732 0.32131,-2.63827 -0.85865,0.0401 -0.76566,0.11884 -0.68458,0.0771 -0.78579,0.056 -0.70874,0.009 -0.9274,-0.007 -0.71661,-0.10097 -0.81361,-0.19542 -0.71232,-0.21616 -0.42497,-0.12655 -0.16598,-0.0318 -0.45361,0.0148 -0.69265,0.0614 -0.61554,-0.017 -0.73299,-0.0172 -0.50206,-0.0534 -0.67606,-0.12708 -0.44502,-0.22084 -0.42466,-0.27316 -0.71096,-0.86543 -0.67386,-1.17951 -0.23374,-0.54503 -0.21326,-0.66018 -0.0877,-0.6861 -0.0905,-1.25682 -0.0581,-1.24105 -0.0549,-0.85882 -0.14761,-1.06321 -0.45592,-2.74461 -0.2083,-1.08952"
       id="path530"
       inkscape:connector-curvature="0"
       style="fill:#696969;fill-opacity:1;fill-rule:evenodd;stroke:#000000;stroke-width:1.88273954;stroke-opacity:1" />
    <path
       d="m -748.87973,846.19829 0,0 -0.60336,-0.0117 -2.0655,0.0952 -1.64017,0.0437 -1.74543,0.0226 -0.69253,0.0248 0.46998,1.8545 0.21691,0.85392 0.11236,0.50288 0.12821,0.66524 0.0923,0.41907 0.052,0.30903 0.0279,0.23567 0.0722,0.3562 0.0965,0.31959 0.10038,0.41385 0.14815,0.82236 0.15629,0.79619 0.1561,0.89568 0.22091,0.88533 0.33296,1.54007 0.14027,0.71238 0.34565,1.27829 0.0638,0.48708 0.0878,0.62326 0.0593,0.69651 0.0227,0.79591 -0.0339,0.74344 -0.0382,0.83768 0.0423,1.08917 0.0867,1.17828 0.21476,1.91157 -0.32131,2.63827 -0.91604,4.30732 -0.28923,2.79018 -11.35428,-0.84569 -1.54716,0.0386 -2.34622,0.62338 -4.75325,1.26229 -0.6318,0.004 -0.63163,-0.0746 -1.13068,0.34841 -0.75367,0.17641 -0.95241,0.31737 -11.45759,3.86572 -2.42375,0.85345 -0.55387,-0.4515 -6.42828,2.27411 -2.46791,0.65432 -6.37588,2.34213 -5.33219,2.85747 -4.22015,5.42028 -0.1139,0.21966 -0.14227,0.23006 -0.50781,0.69001 -1.22238,1.46333 -0.17468,0.23523 -0.25212,0.44973 -0.41983,1.18762 -0.2731,0.77431 -0.34618,0.85269 -0.13455,0.39763 -0.20832,0.78493 -0.0817,0.29303 -0.0618,0.46063 -0.13254,1.30869 -0.0336,0.5497 -0.0348,1.05236 -0.002,1.05766 0.0581,1.17299 0.0895,1.62859 0.0713,0.71225 0.0708,0.92169 0.0189,0.62313 0.0318,0.28281 0.18863,0.77535 0.11119,0.98985 0.26185,2.44579 0.16235,1.66017 0.10725,0.94272 0.11899,1.126 -0.0262,0.82199 -0.0945,0.61763 -0.19165,0.57029 -0.15487,0.42377 -0.17963,0.63315 -0.43282,1.54363 -0.29411,1.10413 -0.46073,1.34985 -0.51051,1.86809 -0.0941,0.40296 -1.12888,-0.54185 -2.18687,-1.98414 -1.35014,-1.21257 -1.443,-1.33845 -1.15586,-1.13883 -2.47732,-2.47179 -0.0164,0.0942 -0.033,0.25649 -0.0289,0.25649 -0.0287,0.16749 -0.0696,0.34541 -0.0737,0.34541 -0.0739,0.45013 -0.0537,0.45017 -0.013,0.35078 0.0114,0.3456 0.0397,0.35614 0.0397,0.3509 0.0315,0.40324 -0.004,0.13612 -0.0288,0.1832 -0.0204,0.0785 -0.0366,0.0732 -0.0894,0.13593 -0.0731,0.0784 -0.1096,0.10446 -0.15418,0.11484 -0.3002,0.20352 -0.30017,0.19305 -0.27989,0.17738 -0.27988,0.17215 -0.29198,0.15117 -0.29198,0.15118 -0.2636,0.13553 -0.25146,0.14603 -0.15822,0.1096 -0.5519,0.44903 -0.56406,0.45423 -0.62083,0.48029 -0.14612,0.13056 -0.13805,0.14629 -0.25586,0.29787 -0.17471,0.23522 -0.15448,0.2405 -0.0935,0.16733 -0.0652,0.1517 -0.0571,0.15171 -0.0408,0.1151 0.91,0.59899 0.14962,0.1103 1.77583,1.04079 0.27786,0.71273 0.40736,0.76538 0.0676,0.53946 0.0551,0.70699 -0.10648,0.51288 -0.3139,0.87892 -0.16776,0.73789 -0.10295,0.73804 -0.11607,1.16212 -0.434,2.03056 0.0364,0.0106 -0.18979,1.518 -0.12709,0.66468 0.54667,1.84955 0.31556,0.17351 0.23427,2.07398 0.1464,1.524 -0.31509,1.39729 0.007,0.65975 0.80311,1.31606 0.73398,1.43634 0.45593,0.79691 0.32946,-0.59092 0.54866,-0.79461 0.97793,-0.74128 1.24257,-1.33758 2.44274,-1.84275 1.87441,-1.31522 4.15926,-3.22644 0.005,-2.04202 -0.22242,-3.77564 -0.0421,-2.92177 -0.18096,-6.00084 0.10964,-0.12541 9.15152,1.22477 13.95004,1.89482 11.85293,1.45518 3.60802,0.49471 6.86825,4.55951 0.287,0.28335 -0.15898,0.47613 -1.65005,2.57782 -2.12897,3.01138 -3.05294,5.07235 -0.37818,0.67987 -0.8712,2.02445 -0.9031,3.66847 -0.4656,1.77399 -0.6944,2.67933 -0.0869,2.74346 0.1386,1.48208 -1.11144,0.68875 -0.74211,0.36491 -1.03803,0.45853 -1.12735,0.54733 -0.84349,0.41182 -0.87197,0.46934 -1.37488,0.73529 -1.20045,0.6257 -2.62349,1.14619 -2.98435,1.28675 -1.29759,0.57835 -0.84323,0.28088 -0.89179,0.25984 -0.95644,0.18115 -1.05756,0.10763 -0.99271,0.092 -1.15057,0.0341 -0.87107,0.0452 -1.1667,0.003 -1.36106,-0.0397 -1.89583,-0.0252 -1.45832,-0.0242 -2.60876,-0.0477 0.56739,7.15885 0.14132,2.03187 0.11109,10.14233 0.2839,-0.14074 0.30823,-0.15115 0.23523,-0.11467 0.33632,-0.0307 0.27164,-0.0937 0.26348,-0.0675 0.16214,-0.0363 0.17022,-0.031 0.17423,-0.0153 -0.134,0.14107 -0.10559,0.11496 -0.10982,0.19872 -0.10995,0.25108 -0.11001,0.2825 -0.0328,0.17795 -0.0165,0.12039 -0.14732,0.66464 -0.0902,0.49721 -0.10637,0.46577 -0.0534,0.31404 -0.1063,0.43434 -0.10228,0.45007 -0.0452,0.28788 -0.0694,0.24593 -0.17145,0.58081 -0.13878,0.46561 -0.11432,0.3977 0.0641,0.3405 0.24663,0.2257 0.27511,0.1682 0.4452,0.1999 0.40896,0.1004 0.53867,0.075 0.19037,0.016 0.26325,0.037 0.29561,0.063 0.56696,0.1007 0.40507,0.027 0.5469,0.017 0.59149,0 0.66844,0.012 0.33628,-0.01 0.58752,-0.035 0.40521,-0.036 -0.35696,0.2034 -0.20292,0.1566 -0.14216,0.1673 -0.2277,0.3712 -0.34164,0.6014 -0.27254,0.4968 -0.27659,0.4968 -0.0326,0.1047 0.0562,0.22 0.0401,0.1676 0.19396,0.2308 0.14957,0.147 0.35597,0.2521 0.271,0.1996 0.42052,0.3727 0.27498,0.2309 0.59042,0.4883 0.27504,0.2048 0.74861,0.4101 0.66368,0.3365 -5.49752,9.0461 -0.0651,0.1046 0.23066,0.1261 0.14533,0.236 0.0115,0.3142 -0.0616,0.3611 -0.1019,0.2773 -0.22375,0.4131 -0.39432,0.596 -0.39424,0.5647 -0.24391,0.3659 -0.26863,0.5544 -0.0737,0.335 0.23018,0.3408 0.39617,0.3988 0.52561,0.4882 0.38432,0.2626 0.45728,0.2471 0.61119,0.2684 0.65976,0.2895 0.61934,0.2474 0.3604,0.09 0.45752,0.1372 0.57128,0 -3.39743,6.4903 4.17242,0.3444 -0.0618,0.4815 -0.005,0.5236 0.1296,1.8643 0.0346,0.8326 0.0189,0.6336 -0.0293,0.4084 -0.0902,0.4762 -0.1547,0.3348 -0.17064,0.2143 -0.83577,0.506 -4.61538,-1.6072 -0.11408,0.2825 -0.13024,0.2667 -0.15441,0.1987 -0.40156,0.198 -0.48243,0.1246 -0.7699,0.035 -0.39714,3.6748 -0.83056,-0.023 -1.08596,0.04 -0.50659,0.056 -0.24728,0.057 -1.08813,1.0081 -0.58455,0.4908 -1.36121,-0.082 -0.20985,1.4342 -2.2567,-0.063 0.22613,0.3409 0.46127,0.2838 0.53466,0.074 0.3562,0.1631 0.74802,0.6928 0.69975,0.5409 0.17326,0.435 0.25412,0.5084 0.36458,0.037 1.73513,-0.4254 1.40173,-1.73 0.53013,2.1113 0.245,0.9692 0.12091,0.2882 0.16989,0.1313 0.26311,0.1158 0.35234,0.074 0.14573,0.063 0.2102,0.2204 0.25058,0.2885 0.3033,0.2625 0.25084,0.1681 0.1334,0.1417 0.0401,0.1833 -0.95864,2.9039 0.3192,0.4039 0.17343,0.3616 0.13295,0.3407 -0.0617,0.4082 -0.12279,0.5548 -0.15108,0.5232 -0.14276,0.4238 0.0317,0.3038 0.0805,0.2567 0.14515,0.325 0.31126,0.3305 0.21419,0.2571 0.12122,0.1521 4.36382,1.8789 -0.0616,0.3664 -0.2931,0.612 -0.37829,0.6589 -0.24932,0.9733 0.21767,0.5136 0.35126,0.5715 0.38339,0.7025 0.46319,1.2629 0.17671,0.7177 0.13269,0.4663 0.19291,0.7177 0.0434,0.5499 0.1651,0.4664 -0.0615,0.3297 -0.2237,0.3765 -0.25611,0.3764 -0.38956,0.2557 -0.79545,0.5637 -0.11788,0.1673 -0.17473,0.2248 -0.16274,0.2981 -0.23232,0.6068 -0.10247,0.5286 -0.17543,0.539 -0.058,0.5705 0.003,0.4503 0.17657,0.7754 0.36361,0.4877 0.15716,0.3983 0.2012,0.634 0.20947,0.5607 0.10456,0.3615 0.19692,0.7387 0.0998,0.7019 0.0197,0.2618 -0.0294,0.4764 -0.21204,0.6017 -0.27265,0.523 -0.28473,0.4863 -0.19133,0.3975 -0.11038,0.4396 0.0275,0.3927 0.28202,0.7389 0.54094,0.928 0.19748,0.4874 0.70557,1.6195 0.22153,0.6078 0.27452,0.4666 0.30303,0.4039 0.12061,0.4348 -0.0136,0.6702 -0.10265,0.6071 -0.0822,0.513 -0.005,0.4974 0.12893,0.3354 0.28292,0.3357 0.38041,0.2312 0.28313,0.2415 0.04,0.22 -0.11449,0.4658 -0.0537,0.4711 0.052,0.33 0.10881,0.2725 0.27488,0.3095 0.22227,0.278 0.11283,0.2882 -0.009,0.3979 0.0268,0.707 0.0919,0.5761 0.40717,0.9643 0.18552,0.4036 0.0968,0.2044 0.10862,0.3615 -0.005,0.3456 -0.0574,0.2826 -0.18733,0.4185 -0.30138,0.6852 -0.19967,0.5022 -0.0824,0.5968 -0.0939,0.3087 -0.26434,0.4235 -0.20815,0.6698 -0.005,0.3612 0.0717,0.5814 0.19761,0.435 0.50966,0.4305 0.45324,0.2889 0.40875,0.247 0.3114,0.2887 0.23841,0.3147 0.17715,0.524 0.0802,0.3981 0.0597,0.5132 0.003,0.3247 -0.0937,0.2092 -0.23568,0.2927 -0.12612,0.2249 -0.0169,0.335 0.11198,0.681 0.27769,0.8802 0.1326,0.5134 0.0597,0.4766 0.015,0.5603 0.0598,0.44 0.22123,0.7544 0.27359,0.9065 0.13668,0.5029 0.0882,0.4296 0.12073,0.3877 0.57771,0.8233 0.44814,0.7759 0.2826,0.4928 0.16137,0.3355 0.0805,0.2567 -0.006,0.7121 0.0133,1.3142 0.0272,0.5394 0.0358,0.3142 0.0439,0.3091 0.15338,0.283 0.18579,0.2884 0.12934,0.1574 0.0764,0.2934 0.0272,0.5289 -0.005,0.6126 -0.0136,0.6806 -0.0706,0.7905 -10e-4,0.6126 0.064,0.3771 0.15695,0.503 0.37124,0.7339 0.60586,0.9385 0.42429,0.5664 0.25417,0.5294 0.46624,1.776 0.41796,1.6189 0.13766,0.063 0.15686,0.5501 0.0998,0.6809 0.17289,0.6339 0.27856,0.4981 0.61851,0.7186 0.45675,0.5561 0.23008,0.4298 0.26976,0.8174 0.0947,1.194 0.2483,1.3724 0.33965,0.362 0.16098,0.5239 0.35587,0.3569 0.12875,0.4348 -0.0295,0.5445 -0.0589,0.979 -0.12673,0.5024 -0.31334,0.5857 -0.49183,0.6639 -0.46757,0.6849 -0.22378,0.4027 -0.19996,0.6279 0.0753,0.796 0.12013,0.6705 0.17732,0.4611 0.3274,0.4091 0.4936,0.3938 0.50156,0.4619 0.50154,0.4723 0.78535,0.4258 1.53497,0.506 0.71263,0.3209 0.63947,0.4151 0.61505,0.4621 0.56677,0.2996 0.43679,0.4303 0.17343,0.3931 0.16451,0.7753 0.0185,0.8378 -0.11148,0.9527 -0.13117,0.6856 0.0262,1.0001 0.40661,1.2785 0.26934,1.0268 0.20162,0.4822 0.29473,0.5294 0.51261,0.9907 0.61365,1.1271 0.46126,0.3675 0.34382,0.3254 0.55003,0.5562 0.76063,0.6299 0.75239,0.6928 0.80877,0.8709 0.60263,0.5982 0.53339,0.7603 0.51742,0.6504 0.29061,0.5713 0.22533,0.7702 0.27756,0.9902 0.27844,0.5818 0.48052,0.8492 0.38364,0.6606 0.16955,0.325 0.0353,0.5394 0.0917,0.7122 -0.006,0.7697 0.58566,0.9699 0.89511,2.2167 0.71842,-0.4697 0.73056,-0.4592 0.2272,-0.1042 0.27543,0.09 2.33883,1.8689 1.30297,1.0343 3.8726,3.045 3.31405,2.6878 1.50128,1.2022 0.38052,0.2364 0.19441,0.074 0.22953,0.7283 0.20914,0.7858 0.14815,0.8799 0.0435,0.5394 0.0834,0.8118 0.0352,0.6022 0.0313,0.5394 0.0713,0.8222 0.055,0.8169 0.087,1.0264 0.0942,1.4715 0.10016,0.5657 0.2765,1.5347 0.4743,1.9331 0.1567,0.6705 0.13646,0.6548 0.0112,0.4608 -0.01,0.7068 -0.14725,0.6385 -0.21581,0.4708 1.67433,-0.1065 0.56855,3.4098 0.46014,2.9121 0.22799,1.4823 5.95328,0.7244 -0.0801,-0.4871 -0.27349,-1.0478 -0.50758,-1.5509 -0.30994,-1.0635 -0.0637,-0.5709 -0.0118,-0.1832 0.13868,-0.4186 0.34988,-0.6171 0.21183,-0.5127 0.0903,-0.5444 -0.0269,-0.7383 -0.18019,-1.0842 -0.13638,-0.7019 -0.0152,-0.5027 0.0986,-0.6281 0.22844,-0.7012 0.3336,-0.5909 0.34561,-0.5229 0.3051,-0.5282 0.21171,-0.4551 0.11036,-0.4449 0.16279,-0.319 0.59738,-0.7423 0.60552,-0.7632 0.19529,-0.3556 0.17151,-0.6175 0.2857,-0.9576 0.13133,-0.7956 0.067,-1.0418 0.0247,-0.1937 0.53288,-0.9257 0.45166,-0.8473 0.71563,-1.0981 0.57386,-1.1455 0.50076,-1.0828 0.6542,-0.7893 1.09291,-1.2649 0.73578,-1.0456 0.18282,-0.2091 0.62075,-0.292 1.09181,-0.7255 1.10791,-0.6732 0.88061,-0.5218 1.60347,-1.2011 0.55648,-0.5853 0.21132,-0.277 2.16098,-0.2941 1.23659,-0.1703 0.888,-0.171 0.6977,-0.2657 0.62903,-0.3914 1.14882,-0.8773 1.25027,-0.94 3.12161,-2.3604 0.5275,-0.2974 0.3975,-0.1459 0.49475,-0.1299 0.35261,0.011 0.51473,0.011 0.75371,0.096 1.55187,0.2544 1.58028,0.2388 0.004,-0.2042 -0.52935,-0.8284 -0.36349,-0.6604 1.35215,-1.2383 1.05988,-1.0241 0.65368,-0.5747 0.46684,-0.3708 0.75052,-0.3494 1.22084,-0.4321 0.79464,-0.1137 -1.31451,-3.4897 -1.278,-3.4949 -1.8385,-4.9464 1.56371,-1.6881 -0.23323,-0.9429 -0.12328,-1.2045 -0.21355,-0.6392 -0.95919,-0.6983 -1.08058,-0.7928 -1.37561,-1.2122 -0.66743,-0.6663 -0.88587,-0.8709 -0.34746,-0.5505 -0.52123,-0.8073 -0.3311,-0.629 -0.32698,-0.6604 0.22329,-0.1933 0.0945,-0.67 0.1715,-0.6489 0.21202,-0.6436 0.24048,-0.6855 0.28472,-0.5178 0.30461,-0.3292 0.41814,-0.3552 1.10368,-0.6628 1.45695,-1.0077 1.12012,-0.7884 1.67963,-0.9025 1.24216,-1.0238 0.83998,-0.5429 0.51938,-0.3184 0.3248,-0.2978 0.56777,-0.1926 0.21963,-0.4028 0.57227,-0.4282 0.45042,-0.2871 0.45457,-0.3394 0.11838,-0.4396 0.0701,-0.6177 0.0497,-0.5445 4.2e-4,-0.2147 -0.33955,-0.4562 -0.27461,-0.5031 -0.546,-0.5718 -0.37173,-0.5767 2.06231,-1.8181 -0.22965,-0.7021 0.36122,-0.2715 0.99152,-1.3752 0.0734,-0.2354 0.0575,-0.3769 0.13464,-0.4657 0.1275,-0.9632 0.15528,-0.6594 0.15879,-0.382 0.21108,-0.1776 0.38957,-0.2663 0.2478,-0.3084 0.19511,-0.3033 0.34953,-0.5177 0.48306,-0.4127 0.82376,-0.5586 0.90052,-0.4381 0.8515,-0.234 0.28772,0.01 0.27942,0.1105 0.47782,0.1999 0.40486,0.2102 0.58664,0.5143 0.4774,0.4198 0.36408,0.341 0.48111,0.6031 0.30341,0.2833 0.63144,0.3991 0.54215,0.4775 0.59896,0.4305 0.39272,0.205 0.39672,0.2311 0.48582,0.2628 0.40475,0.2678 0.54228,0.4094 0.67179,0.4987 0.50582,0.4041 0.47767,0.2837 0.6436,0.4096 0.70456,0.3208 0.67215,0.3154 0.68837,0.3102 0.38479,0.116 0.61159,0.1896 0.55471,0.2733 0.79348,0.4466 0.44523,0.3045 0.29557,0.1472 0.41722,0.1107 0.74566,0.017 1.33344,-0.05 1.59678,-0.01 1.73455,0 1.09834,-0.029 1.61302,-0.023 -0.22748,2.4604 -0.0705,0.8586 2.37249,-0.8857 1.6709,-0.6304 2.86327,-1.1152 0.74625,-0.2971 1.22489,-0.5318 0.83947,-0.3074 0.64884,-0.2187 0.56769,-0.1717 2.61135,-0.7754 2.01915,-0.5042 1.48798,-0.3586 1.35415,-0.3064 1.32174,-0.3118 0.62856,-0.2187 1.75593,-0.6252 -0.24896,-1.2832 1.67393,-0.107 2.21292,-0.095 0.19911,-0.2981 2.08303,0.019 2.37076,0.02 1.75062,0.066 3.56603,0.1686 0.70106,0.027 3.44856,0.137 0.21895,-0.062 -0.64201,-1.3468 -0.90072,-1.719 -0.6099,-1.1687 -1.08657,-2.0334 -0.58561,-1.1425 -0.75533,-1.4151 -0.53323,-0.9696 -1.37224,-3.1806 -0.4841,-1.2418 -0.19709,-0.8381 -0.30261,-0.7493 -0.27418,-0.7806 -1.31138,-5.4792 -0.80875,-3.253 -0.57916,-2.4619 -0.2858,-1.0791 -0.45855,-1.9172 -0.72006,-2.9753 -0.65595,-2.5563 -0.92108,-3.8554 3.18932,2.1473 1.50561,1.0237 1.42886,0.8926 0.73267,0.4411 0.59937,0.2105 0.56307,0.1058 1.27214,0.1541 1.93689,0.051 0.89958,0.012 0.83058,0.075 0.5632,0.038 0.50666,-0.072 0.62825,-0.088 0.61628,-0.1926 0.9891,-0.2025 0.80673,-0.1871 0.74183,-0.1557 0.67286,-0.1088 0.68885,0.017 1.39798,0.029 0.25097,0.1523 1.26807,0.1645 0.54284,0.095 0.94397,0.1221 1.13022,0.2061 0.96044,-0.035 0.58364,-0.062 0.36482,-0.073 0.47431,-0.1144 0.79056,-0.2133 1.65395,-0.3741 1.45126,-0.3222 1.01748,-0.2181 0.146,-0.068 0.26776,-0.188 0.55597,-0.4755 0.33693,-0.3503 0.38951,-0.2977 0.25174,-0.2928 0.16253,-0.2615 0.12211,-0.3192 0.0735,-0.3245 0.11821,-0.4135 0.0654,-0.3193 0.15865,-0.3662 0.0813,-0.1569 0.12589,-0.1569 0.19488,-0.2248 0.0854,-0.157 0.12597,-0.204 0.17496,-0.4238 0.20729,-0.3714 0.36551,-0.4811 0.31266,-0.3817 0.22347,-0.3556 0.16689,-0.4448 0.11009,-0.4082 0.0452,-0.3507 0.0773,-0.1622 0.11366,-0.115 0.34502,-0.3502 0.25567,-0.23 0.10144,-0.078 0.21082,-0.062 0.27555,0 0.27973,-0.078 0.10956,-0.094 0.10163,-0.1936 0.1179,-0.2302 0.12609,-0.2825 0.3415,-0.6644 0.24371,-0.3452 0.28015,-0.3294 0.16646,-0.1934 0.25571,-0.2561 0.11782,-0.1831 0.16235,-0.1568 0.0893,-0.084 0.14598,-0.063 0.17027,-0.047 0.19057,-0.073 0.21485,-0.052 0.18251,-0.099 0.7545,-0.4804 1.20451,-0.6211 0.93289,-0.5482 0.44192,-0.1459 0.17441,-0.099 0.29599,-0.1147 0.17841,-0.073 0.36084,-0.1198 0.87548,-0.1399 0.72585,-0.3182 0.2029,-0.1777 2.1e-4,-0.1309 -0.0118,-0.2252 0.0166,-0.2617 0.0776,-0.3507 0.24385,-0.4342 0.30438,-0.2927 0.28415,-0.3032 0.22717,-0.1567 0.25551,-0.1357 0.49887,-0.2819 1.02609,-0.5638 0.97783,-0.7838 1.09187,-1.1396 1.21331,-1.0714 0.54797,-0.575 0.46244,-0.3134 0.35695,-0.2298 0.43794,-0.1983 0.46217,-0.1511 0.3161,-0.026 0.29975,0.058 0.23521,-0.1148 0.44631,-0.3658 0.62469,-0.4179 0.34481,-0.2403 0.17442,-0.1149 0.24733,-0.099 0.19458,-0.052 0.24361,-0.3033 0.46692,-0.5804 0.43844,-0.5072 0.34523,-0.5021 0.37377,-0.612 0.68313,-1.4806 0.309,-0.654 0.23547,-0.2824 0.20288,-0.1777 0.43011,-0.3763 0.51931,-0.4075 0.38552,-0.3659 0.29634,-0.3399 0.37718,-0.2193 0.12177,-0.1359 0.1301,-0.2721 0.2723,-0.5074 0.43474,-0.7428 0.23555,-0.3348 0.19892,-0.2353 0.0691,-0.1308 0.10969,-0.1778 0.30875,-0.5022 0.32096,-0.5387 0.0976,-0.2198 0.26076,-0.9002 0.12623,-0.3872 0.11398,-0.3297 0.15459,-0.3872 0.44303,-0.858 0.10157,-0.1726 0.20752,-0.5442 0.14262,-0.5077 0.0693,-0.2303 0.005,-0.3036 0.0208,-0.3142 0.0368,-0.225 0.10219,-0.5601 0.0737,-0.4868 0.22,-0.7484 0.24858,-0.8898 0.15885,-0.5181 0.0693,-0.2512 0.0286,-0.1675 -0.0322,-0.1257 -0.0565,-0.1624 -0.016,-0.1047 0.008,-0.1728 -0.004,-0.199 0.008,-0.1885 -0.0483,-0.1728 -0.0565,-0.131 -0.14534,-0.3249 -0.2222,-0.4035 -0.16112,-0.5919 -0.15315,-0.5134 -0.0765,-0.3091 0.009,-0.2722 0.0124,-0.1675 0.12197,-0.2616 0.43494,-0.879 0.10167,-0.2354 0.0897,-0.3769 0.029,-0.3717 0.037,-0.3141 0.0816,-0.3454 0.15445,-0.3035 0.15839,-0.2353 0.0773,-0.1989 0.0694,-0.3454 0.004,-0.2514 0.0735,-0.3873 0.12235,-0.4972 0.0897,-0.3559 0.0125,-0.2199 -0.0158,-0.2461 -0.052,-0.4295 -0.068,-0.5394 -0.0518,-0.5289 -0.0391,-0.8902 0.021,-0.4345 0.0654,-0.3612 0.13832,-0.3558 0.33748,-0.7482 0.75999,-1.4649 0.15533,-0.8637 0.0781,-0.6805 0.10606,-0.4554 0.0735,-0.3611 0.13014,-0.3087 0.19513,-0.4134 0.30478,-0.5754 -0.64706,-0.7446 0.27631,-0.5022 0.63344,-0.8839 0.2233,-0.2928 0.24761,-0.2928 0.2636,-0.1567 0.60804,-0.198 0.27599,-0.3085 0.26425,-0.5703 0.0452,-0.4135 0.0815,-0.2984 0.005,-0.4712 -0.0519,-0.4661 -0.10496,-0.241 -0.0159,-2.7751 -0.0328,-2.2882 0.0286,-0.1413 0.13441,-0.4501 0.29241,-0.4445 0.39807,-0.6487 0.46684,-0.5909 0.4346,-0.6905 0.59671,-0.732 0.66187,-0.9467 0.61717,-0.863 0.56838,-0.7583 0.93368,-1.1871 0.70637,-0.9151 0.58857,-0.7164 0.0859,-0.5026 0.54138,-1.6275 0.50901,-1.65896 0.4275,-1.35544 0.42783,-1.56488 0.45972,-1.23497 0.39467,-1.08322 -0.0887,-0.27765 -0.50496,-0.92232 -0.67782,-1.78129 -1.04101,-2.67722 -0.6657,-1.74986 -0.70235,-1.62425 -0.64642,-1.11629 -0.70709,-1.17921 -0.69912,-1.09018 -1.40596,-2.41601 -0.41218,-0.64991 -1.0826,-1.94951 -0.75131,-1.37301 -0.98991,-1.62997 -0.66253,-1.15297 -0.28686,-0.47693 -2.0087,-0.36973 -1.54307,-0.21716 -1.36075,-0.2378 -1.58351,-0.25912 -0.37663,-0.0739 -0.61968,-0.0691 -0.81815,-0.0903 -1.21506,-0.14334 -0.86276,-0.059 -0.41317,-0.0164 -0.40908,-0.0426 -0.46178,-0.0217 -1.76605,-0.10237 -1.05313,-0.075 -2.28985,0.64551 -1.20371,0.34882 -1.94126,0.50993 -1.39425,0.43227 -0.87143,0.2813 -1.84428,0.65143 -1.51001,-0.60988 -2.41306,-0.79467 -2.8705,-0.97871 -3.3198,-1.18893 -1.03635,-0.41016 -1.92701,-0.73107 -1.93922,-0.69968 -2.09696,-0.8361 -0.96352,-0.35246 -3.18998,-1.25165 -0.38466,-0.10014 -1.19068,-0.16961 0.0534,-0.4502 0.0177,-0.84819 -0.12528,-0.17301 -0.59024,-0.68693 -0.0972,-0.0368 -0.21872,-0.0161 -0.44176,0.11966 -0.30392,0.0623 -0.23092,0.0101 -0.25089,-0.15228 -0.4607,-0.63435 -0.88132,-1.02778 -0.53357,-0.66066 -0.56196,-0.63977 -0.25882,-0.24654 -0.15371,-0.13116 -0.14567,-0.0945 -0.17405,-0.0788 -0.23078,-0.0632 -0.42934,-0.0322 -0.26739,0.0205 -0.53066,-9.2e-4 -0.44146,-0.0427 -0.4293,-0.0531 -0.55029,-0.36224 -0.31583,-0.0739 -0.26729,-0.0371 -0.23091,0.005 -0.3159,-0.0372 -0.71234,-0.34683 -0.70418,-0.37822 -0.52186,-0.39885 -0.24277,-0.15751 -0.36439,-0.10536 -1.03638,-0.36311 -0.99175,-0.39444 -1.76492,-0.70474 -0.71658,-0.23165 -0.61938,-0.22101 -2.15362,-0.79446 -1.10095,-0.4889 0.23946,-0.26138 0.32502,-0.53872 0.18724,-0.50756 0.10572,-0.22496 0.3005,-0.41834 0.7716,-1.10865 0.7069,-1.16637 0.32479,-0.41306 0.81172,-0.89392 0.816,-1.0248 0.63328,-0.7738 0.9129,-0.85185 0.83989,-0.79439 0.706,-0.66896 0.38963,-0.43913 0.18685,-0.29289 0.0249,-0.356 -0.0357,-0.42418 -0.0843,-0.45568 -0.26225,-0.59736 -0.4727,-0.69722 -0.44843,-0.67623 -0.41623,-0.56098 -0.918,-0.84985 -1.03076,1.07679 -0.64516,0.63241 -0.27187,0.27179 -0.1541,0.094 -0.24726,0.0991 -0.45775,0.0149 -0.49411,-0.0375 -0.47797,-0.006 -0.92299,-0.31056 -2.09667,-0.87815 -3.38786,-1.4093 0.57215,-0.56446 0.54382,-0.58546 0.58857,-0.69009 0.29221,-0.31887 0.27993,-0.24559 1.05857,-0.7678 1.37469,-0.87195 -3.23795,-1.40379 -0.72039,-0.33639 -0.64359,-0.25248 -0.27125,-0.079 -0.38867,-0.10018 -0.34826,-0.0478 -0.63191,0.0146 -0.70082,0.0406 -0.38069,-0.0321 -0.5628,-0.12667 -0.8421,-0.23191 -0.60717,-0.22624 -0.74079,-0.2579 -0.36851,-0.0478 -0.47386,-0.027 -0.3239,-0.0791 -0.25502,-0.0895 -0.80114,-0.48316 -0.4491,-0.27833 -0.61111,-0.28909 -0.52198,-0.29416 -0.93887,-0.46771 -0.40878,-0.17877 -0.13359,-0.0421 -0.27538,-0.0319 -0.39305,0.0831 -0.83488,0.26027 -0.69314,0.27624 -0.43774,0.15628 -0.6605,0.14539 -0.4498,0.1039 -0.4457,0.0777 -0.35248,0.0465 -0.21455,-0.0685 -0.61887,-0.46714 -0.56237,-0.35708 -0.25486,-0.17326 -0.35607,-0.20486 -0.27524,-0.11046 -0.42107,-0.095 -0.51422,-0.10567 -0.5628,-0.12147 -0.27531,-0.0686 -0.24275,-0.15229 -0.24694,-0.0738 -0.19438,-0.0265 -0.39289,-0.006 -0.54274,-0.0115 0.15573,-0.98407 0.23402,-1.70126 0.10619,-0.47627 0.1876,-0.69604 0.10661,-0.70142 0.0616,-0.46066 0.15488,-0.52331 0.074,-0.57058 0.0453,-0.40309 0.15986,-1.02595 -0.59129,-0.0377 -0.59521,-0.11105 -0.72872,-0.19509 -0.33591,-0.14723 -0.6069,-0.35717 -0.90607,-0.66141 -0.2384,-0.30937 0.11657,-1.70147 0.0686,-2.06809 -0.0744,-1.37196 -1.86917,-1.12398 -0.83731,-0.59846 -0.69158,-0.55107 -0.53004,-0.2942 -0.18196,-0.16266 -0.12449,-0.57619 -0.2075,-1.67066 -0.0441,-0.2357 -2.65623,-0.40292 -0.3887,-0.0688 -0.30762,-0.1053 -0.36816,-0.2206 -0.15753,-0.23068 -0.45585,-0.97475 -0.23406,-0.45597 -0.10509,-0.11539 -0.0848,-0.12059 -0.17394,-0.12075 -0.28333,-0.10002 -0.82584,-0.21623 -0.50184,-0.20515 -0.33996,-0.14202 -0.2751,-0.16807 -0.097,-0.1049 0.0212,-0.51309 -0.0592,-0.80121 -0.0918,-0.7175 -0.23328,-0.86962 -0.16491,-0.60768 0.16638,-0.17247 0.13806,-0.183 -0.0524,-0.14671 -0.51286,-0.80207 -0.49661,-0.82823 -1.04965,-1.79793 -0.27018,-0.62359 -0.18526,-0.55013 -0.10474,-0.29865 -0.23446,-0.23606 -0.34755,-0.40383 -0.16153,-0.25164 -0.0886,-0.28815 -0.0921,-0.56566 0.006,-1.12572 0.003,-1.58649 -0.0187,-0.79067 0.0578,-0.57061 0.0776,-0.36114 0.10645,-0.60717 0.15565,-0.92123 0.0897,-0.34541 1.12933,-1.80426 0.87861,-2.01419 1.19196,-2.81469 0.4637,-1.06203 0.74439,-1.72646 0.37983,-1.69051 0.73971,-3.54859 0.3228,-1.52306 -0.63475,-0.57716 -0.41634,-0.41966 -0.70798,-0.39927 -0.69199,-0.28405 -0.86221,-0.21631 -0.99165,-0.30033 -1.06864,-0.2743 -0.55062,-0.0848 -0.28753,-0.006 -0.32809,0.0308 -0.29174,0.078 -0.57544,0.19264 -0.44168,0.13006 -0.4335,0.0829 -0.50613,-0.0533 -0.2914,-0.0948 -0.45353,-0.0323 -0.42516,-0.0375 -0.38074,0.0307 -0.32825,0.10932 -0.29981,0.0623 -0.31988,-0.0268 -0.34416,-0.0426 -0.57901,-0.0639 -0.56696,-0.006 -0.50624,0.004 -0.2995,-0.10006 -0.41664,-0.25736 -0.34364,-0.31482 -0.33169,-0.20484 -0.36421,-0.14208 -0.31143,-0.21527 -0.6993,-0.68726 -0.29923,-0.2362 -0.50974,-0.27849 -0.46914,-0.33601 -0.21837,-0.16274 0.0904,-0.6805 0.11833,-0.46054 0.12661,-0.54953 0.0458,-0.63346 -0.27532,-0.032 -0.16197,-0.0108 -0.10934,-0.005 -0.57906,-0.0273 -0.50619,-0.0167 -0.12149,-0.005 -0.59524,-0.0378 -0.15793,-0.0108 -0.13361,-0.016 -0.21051,-0.0371 -0.14973,-0.0631 -0.0688,-0.0368 -0.0606,-0.063 -0.0849,-0.0735 -0.0728,-0.0577 -0.2104,-0.0999 -0.23875,-0.0947 -0.10926,-0.0473 -0.15375,-0.0736 -0.16992,-0.0841 -0.14969,-0.0788 -0.15778,-0.0841 -0.11328,-0.0578 -0.10519,-0.0578 -0.12944,-0.0788 -0.18608,-0.10508 -0.15371,-0.0946 -0.12947,-0.0631 -0.15782,-0.0631 -0.1295,-0.0474 -0.13756,-0.0683 -0.13759,-0.0526 -0.14567,-0.0631 -0.11329,-0.0526 -0.42079,-0.19979 -0.44094,-0.24695 -0.14565,-0.0736 -0.12949,-0.0526 -0.10521,-0.0421 -0.0931,-0.0473 -0.11328,-0.0578 -0.0769,-0.0368 -0.1173,-0.0735 -0.14157,-0.0893 -0.15377,-0.0631 -0.10119,-0.0264 -0.38473,-7.5e-4 -0.11336,-0.0159 -0.12957,-0.0107 -0.11334,-0.0264 -0.12144,-0.0264 -0.15787,-0.037 -0.19023,-0.058 -0.16999,-0.0475 -0.23077,-0.0371 -0.30776,-0.0111 -0.16606,0.0102 -1.26385,0.16507 -0.57116,0.0774 -0.46179,0.0567 -0.27136,0.0152 -0.5265,0.0147 -0.39275,-0.0374 -0.63126,-0.25781 -0.41691,-0.11078 -0.259,-0.0895 -0.21045,-0.0737 -0.31945,-0.24148 -0.92581,-0.80294 -0.65075,-0.64007 -0.64277,-0.57723 -0.42028,-0.45113 -0.77142,-1.04872 -0.68658,-0.94908 -0.74267,-1.24764 -1.57825,-2.61065 -1.85009,-0.30215 -1.78518,-0.35961 -2.80401,-1.19943 -1.60236,-0.64725 -3.67814,-1.4735 -1.90987,-0.76832 -1.86244,-0.18705 -1.55065,-0.17071 -3.07305,-0.29426 -1.55474,-0.14979 -0.46565,-0.0271"
       id="path532"
       inkscape:connector-curvature="0"
       style="fill:#696969;fill-opacity:1;fill-rule:evenodd;stroke:#000000;stroke-width:1.88273954;stroke-opacity:1" />
</svg>
