<?xml version="1.0" encoding="UTF-8" standalone="no"?>
<svg
   xmlns:dc="http://purl.org/dc/elements/1.1/"
   xmlns:cc="http://creativecommons.org/ns#"
   xmlns:rdf="http://www.w3.org/1999/02/22-rdf-syntax-ns#"
   xmlns:svg="http://www.w3.org/2000/svg"
   xmlns="http://www.w3.org/2000/svg"
   xmlns:sodipodi="http://sodipodi.sourceforge.net/DTD/sodipodi-0.dtd"
   xmlns:inkscape="http://www.inkscape.org/namespaces/inkscape"
   version="1.1"
   id="Map"
   width="2368"
   height="1599.9058823529415"
   inkscape:version="0.48.4 r9939"
   sodipodi:docname="_Peniche.svg"
   inkscape:export-filename="D:\_PRIVADO\Mapas e afins\_Freguesias e Concelhos\_Concelhos (com limites das freguesias)_CAOP 2013\_Leiria (distrito)\PNG\Peniche.png"
   inkscape:export-xdpi="99"
   inkscape:export-ydpi="99">
  <metadata
     id="metadata916">
    <rdf:RDF>
      <cc:Work
         rdf:about="">
        <dc:format>image/svg+xml</dc:format>
        <dc:type
           rdf:resource="http://purl.org/dc/dcmitype/StillImage" />
        <dc:title />
      </cc:Work>
    </rdf:RDF>
  </metadata>
  <g
     transform="matrix(2.0577884,0,0,2.0577884,214.83311,-786.28095)">
    <path
       d="m 876.57371,698.32707 0,0 -1.47371,-0.10642 -3.11602,0.38446 -1.86935,0.33957 -2.56954,0.38835 -1.22223,0.10762 -0.91482,0.0127 -1.35187,0.066 -0.99951,0.14374 -3.35472,0.44775 -1.30736,0.0607 -6.84894,0.10507 -2.27539,-0.18319 -0.83012,-0.1185 -0.70068,-0.16592 -0.61133,-0.0352 -3.75285,-0.16409 -3.27925,-0.16521 -1.04858,-0.0709 -1.19784,0.15983 -1.6305,0.36503 -1.78024,0.38107 -2.14889,0.26147 -0.2588,0.11578 -0.14116,0.23071 -0.12076,2.07896 0.0982,2.26172 -0.0452,1.48713 -0.11055,1.23071 -0.37035,0.9119 -1.25377,2.28051 -0.80954,1.82397 -0.24039,1.1001 0.0284,1.81159 -0.0577,4.91672 -0.068,3.94809 -0.008,3.74898 -0.0362,1.87457 -0.23501,1.69175 -0.45087,1.12676 -0.62905,1.10099 -0.92909,0.89746 -2.2682,1.30366 -1.21685,0.76197 -2.01209,1.78477 -1.5603,1.06641 -0.61848,0.41504 -0.55291,0.77093 -1.86701,3.3238 -0.40446,0.17369 -7.27965,3.44055 -0.0681,0.32478 -0.16882,0.55016 -0.39501,0.79151 -0.4318,0.62927 -1.6965,1.76305 -0.94098,1.05974 -0.62631,0.5564 -0.61857,0.39406 -0.31961,0.10019 -1.12451,0.45801 -0.85291,0.60925 -0.78001,0.62479 -0.33534,0.32014 -0.0671,0.77507 -0.014,0.97916 -0.0746,1.05259 0.0121,1.81163 0.0681,1.53923 -0.4309,1.05861 -0.0481,0.21478 -0.0273,0.49224 -0.11761,1.75955 -0.0784,1.18874 -0.0393,0.52892 -0.039,0.67553 -0.0155,0.29325 0.10216,0.42913 0.12594,0.19869 0.54702,0.19777 0.78201,0.27579 0.14201,0.14105 -0.35104,0.54532 -0.72543,1.5305 -0.68096,-0.34932 -0.64436,-0.27609 -0.55132,-0.31296 -0.61231,-0.43324 -0.74621,-0.56909 -0.96914,-0.6838 -0.438,-0.33938 -0.81051,-0.34905 -0.22293,-0.1147 -0.47015,-0.22936 -0.96065,-0.5058 -0.78592,-0.21297 -0.27178,-0.24026 -0.38013,0.21026 -1.07938,0.75109 -0.72422,0.23719 -0.54222,0.14254 -0.68442,-0.0823 -0.90707,-0.0713 -1.82711,-0.52489 -0.90708,-0.0766 -2.23137,-0.2413 -0.9517,-0.11838 -1.18713,-0.3954 -1.78293,-0.70304 -2.87682,-1.05154 -1.96529,-0.78645 -1.14247,-0.34839 -0.35648,-0.0935 -1.02489,-0.27011 -1.60366,-0.17987 -0.9197,-0.30698 -3.2411,-1.0299 -1.74585,-0.41522 -1.40965,-0.34262 -0.15392,-0.0363 -2.42683,-0.80652 -2.81561,-0.86855 -0.15801,-0.052 -0.7174,-0.38074 -0.0851,-0.0417 -0.55563,-0.46485 -0.22353,-0.41318 -0.56919,-1.15597 -0.74027,-1.65828 -0.41079,-0.91544 -0.061,-0.13078 -0.39395,-0.60132 -0.52791,-0.77384 -0.95367,-1.09759 -0.83991,-0.90409 -1.3672,-1.38472 -1.04261,-1.04506 -1.11093,-0.79882 -0.52686,-0.2712 -0.93162,-0.22847 -0.80199,-0.18686 -0.62745,0.0327 -1.19448,-0.0813 -0.9557,-0.12372 -2.08202,-0.54031 -0.9356,-0.19706 -0.77749,-0.0874 -1.14164,0.018 -1.70831,0.0767 -2.43276,0.1934 -1.61498,0.1865 -0.44516,0.0899 -0.53021,0.0691 -0.78116,0.10104 -0.29157,-0.0361 -0.29156,-0.0361 -0.43338,-0.0934 -0.42942,-0.14052 -0.39701,-0.1301 -0.40107,-0.13534 -0.78592,-0.25499 -0.34435,-0.11451 -0.33628,-0.13023 -0.42545,-0.18241 -0.41335,-0.20338 -0.34449,-0.18258 -0.34448,-0.18257 -0.31204,-0.15646 -0.31204,-0.15646 -0.36876,-0.17206 -0.37278,-0.16157 -0.38898,-0.16678 -0.39706,-0.15629 -0.3768,-0.14586 -0.38484,-0.11967 -0.38478,-0.0883 -0.38477,-0.0883 -0.41314,-0.0987 -0.41315,-0.1039 -0.39696,-0.10917 -0.39697,-0.10918 -0.78173,-0.19219 -0.43745,-0.10909 -0.43339,-0.10387 -0.44549,-0.0829 -0.44543,-0.0515 -0.57492,-0.0198 -0.5748,0.043 -0.40472,0.0636 -0.39654,0.1055 -0.38033,0.11593 -0.37219,0.13687 -0.63102,0.27874 -0.91819,0.41544 -0.36405,0.16303 -0.35592,0.17348 -0.35593,0.17348 -0.51823,-0.009 -0.41695,0.0218 -0.41308,-0.0725 -0.40511,-0.13535 -0.79392,-0.21313 -0.48597,-0.0828 -0.48196,-0.0986 -0.4497,-0.16144 -0.44565,-0.16669 -0.86699,-0.32295 -0.41728,-0.1458 -0.41727,-0.1458 -0.49825,-0.15088 -0.49019,-0.1666 -0.4295,-0.19291 -0.42952,-0.19813 -0.38899,-0.17728 -0.38898,-0.17203 -0.36874,-0.17208 -0.3647,-0.17732 -0.34859,-0.21924 -0.28375,-0.18795 -0.26758,-0.19846 -0.27158,-0.1775 -0.30801,-0.16696 -0.30394,-0.16173 -2.5853,-1.26215 -1.40998,-0.58897 -1.42206,-0.56277 -0.98054,-0.43796 -1.0089,-0.44838 -0.39712,-0.19821 -0.57937,-0.23975 -0.57938,-0.23976 -0.43756,-0.17719 -0.44565,-0.17718 -0.28758,-0.0728 -0.29558,-0.0256 -0.32389,-0.01 -0.3238,0.0373 -0.82956,0.19006 -0.83361,0.19007 -0.56659,0.0953 -0.57066,0.0901 -0.33188,0.0425 -0.32785,0.0373 -0.37649,0.006 -0.36852,-0.0621 -1.12201,-0.32253 -1.11797,-0.32777 -0.79392,-0.23413 -0.79391,-0.23414 -0.25522,-0.0885 -1.2679,-0.41128 -0.55503,-0.21364 -0.89138,-0.40151 -0.34039,-0.17739 -0.32833,-0.2193 -0.29197,-0.2665 -0.8316,-0.90951 -0.53541,-0.55926 -0.54754,-0.54876 -0.58397,-0.5487 -0.62844,-0.51196 -0.67691,-0.45428 -0.70516,-0.41234 -1.1144,-0.60532 -1.13056,-0.58959 -1.15884,-0.56336 -1.17497,-0.52668 -1.10599,-0.44303 -1.12212,-0.41159 -1.06943,-0.37504 -1.08553,-0.32789 -0.98014,-0.24954 -0.37233,0.0583 -0.2711,0.0738 -0.35191,0.16295 -0.33565,0.19434 -0.3235,0.19955 -0.32349,0.21003 -0.27087,0.19946 -0.25869,0.22038 -0.20208,0.18362 -0.1737,0.20976 -0.1897,0.31973 -0.18564,0.31973 -0.58942,0.90689 -0.84378,1.28434 -0.35933,0.53996 -0.36745,0.52949 -0.3231,0.4247 -0.33122,0.41424 -0.2464,0.30413 -0.25046,0.2989 -0.24243,0.26224 -0.26271,0.24133 -0.2264,0.17319 -0.23453,0.15227 -0.49341,0.27315 -0.49748,0.26269 -1.05972,0.53074 -0.49749,0.25745 -0.49344,0.26268 -0.42051,0.28873 -0.4124,0.29919 -0.44489,0.24689 -0.45705,0.2312 -0.4207,0.18924 -0.43288,0.16833 -0.45314,0.15788 -0.45719,0.15266 -0.55836,0.17901 -0.50982,0.15799 -0.42487,0.12118 -0.42892,0.11595 -0.31962,0.11576 -0.30743,0.14192 -0.29519,0.19425 -0.25866,0.24655 -0.35953,0.44046 -0.30281,0.46654 -0.33517,0.4823 -0.2744,0.50838 -0.25401,0.58688 -0.24593,0.58686 -0.258,0.62354 -0.25395,0.62353 -0.31033,0.80165 -0.3022,0.81211 -0.28207,0.75448 -0.27396,0.76493 -0.30211,0.86971 -0.24945,0.88532 -0.44597,1.94856 -0.076,0.5185 -0.004,0.14138 -0.0723,0.32476 -0.0722,0.35617 -0.18996,0.18359 -0.23457,0.13655 -0.2224,0.15747 -0.22644,0.15748 -0.35185,0.21529 -0.35589,0.2153 -0.35586,0.23624 -0.35587,0.23624 -0.34375,0.21528 -0.37202,0.25722 -0.35991,0.23624 -0.37613,0.22057 -0.3155,0.1681 -0.31549,0.16811 -0.8332,0.46222 -0.58244,0.32041 -0.3196,0.14192 -0.32367,0.121 -0.36409,0.16294 -0.36815,0.15772 -0.39649,0.15777 -0.40053,0.16301 -0.35601,0.15246 -0.36006,0.15247 -0.39651,0.1473 -0.40463,0.1316 -0.40465,0.12112 -0.74054,0.20549 -0.33589,0.0843 -0.40471,0.0897 -0.40876,0.0845 -0.40066,0.0897 -0.3966,0.0949 -0.38848,0.11062 -0.39252,0.11064 -0.33185,0.0791 -0.33187,0.0686 -0.80138,0.14275 -0.34403,0.0634 -0.34806,0.0687 -0.74059,0.17929 -0.56675,0.0324 -0.35615,0.0739 -0.35209,0.0844 -0.54238,0.0795 -0.53833,0.0794 -1.00379,0.1588 -0.95117,0.14822 -0.46147,0.0479 -0.46552,0.0427 -0.5505,0.0638 -0.55049,0.0742 -0.87427,0.13762 -0.44929,0.0636 -0.45335,0.0584 -0.39265,0.0373 -0.8339,0.0747 -0.43717,0.0479 -0.46143,0.0636 -0.92287,0.13246 -0.46954,0.0636 -0.91073,0.12196 -0.44522,0.0793 -0.44523,0.074 -0.43311,0.0583 -0.42905,0.0583 -0.4331,0.0635 -0.42906,0.0583 -0.37645,0.0425 -0.37646,0.0425 -0.41691,0.0583 -0.41691,0.0583 -0.45334,0.0636 -0.4493,0.0636 -0.40075,0.0373 -0.39671,0.0373 -0.42901,0.0845 -0.42089,0.10542 -0.42897,0.11067 -0.42895,0.12637 -0.30751,0.1157 -0.30345,0.12093 -0.38435,0.16295 -0.3884,0.16296 -0.73226,0.33108 -0.33582,0.13669 -0.33985,0.14193 -0.33172,0.16286 -0.33577,0.16811 -0.34387,0.16288 -0.34793,0.15242 -0.41673,0.17347 -0.41674,0.16824 -0.36414,0.1472 -0.36414,0.14197 -0.86181,0.34175 -0.39245,0.1682 -0.38029,0.17864 -0.35191,0.19955 -0.35596,0.19431 -0.36008,0.15767 -0.36819,0.14721 -0.38844,0.14724 -0.38842,0.15248 -0.36005,0.17861 -0.34787,0.1943 -0.33976,0.20475 -0.34383,0.18906 -0.62716,0.24187 -0.63529,0.21571 -0.60694,0.23137 -0.59881,0.24706 -0.36405,0.20479 -0.35595,0.21002 -0.31554,0.15759 -0.31961,0.15236 -0.33579,0.15762 -0.33579,0.15762 -0.30346,0.12092 -0.30751,0.11569 -0.29936,0.15756 -0.30342,0.14186 -0.66361,0.24193 -0.81322,0.35735 -1.25009,0.60415 -1.50881,0.86111 -0.67571,0.27336 -2.82408,1.22972 -0.48547,0.24163 -0.57448,0.27841 -0.49358,0.23641 -0.43703,0.15253 -0.4815,0.1945 -0.59882,0.25227 -0.65958,0.23666 -0.66764,0.25762 -1.59403,0.76173 -0.39651,0.17341 -0.41263,0.22056 -0.36408,0.19954 -0.42472,0.26247 -0.50984,0.19453 -0.96313,0.31567 -0.74047,0.29437 -0.38447,0.10532 -0.45723,0.18921 -0.4208,0.17345 -0.55002,0.39879 -0.38426,0.24669 -0.81288,0.6034 -0.42881,0.23629 -0.41262,0.23102 -0.76885,0.28394 -0.53822,0.17362 -0.42068,0.26245 -0.50985,0.19452 -2.5658,0.76841 -2.36767,0.59531 -0.58261,0.2784 -0.35996,0.25711 -0.35969,0.4299 -0.29089,0.41409 -0.88113,1.00142 -1.32603,1.32148 -0.86511,0.89667 -0.26258,0.3931 -0.31507,0.49266 -0.27421,0.73869 -0.63004,1.05339 -0.52524,0.74954 -0.29469,0.58164 -0.38379,0.5713 -0.80807,1.1479 -0.39618,0.409 -0.33161,0.26754 -0.32362,0.19946 -0.39261,0.10007 -0.56691,-0.0358 -0.65621,-0.18227 -0.68482,-0.36549 -0.27508,0.1732 -1.61839,0.80353 -3.13566,1.55977 2.57093,5.30544 1.81087,3.3326 1.04158,3.33899 1.03522,1.79438 2.59189,5.65095 0.51985,1.02546 1.04127,3.08241 1.04089,2.82585 2.06695,3.84529 2.32615,3.85012 0.51989,1.02545 1.29125,2.30708 1.03615,2.31271 0.004,0.25656 1.03616,2.30746 1.04666,3.8573 0.5215,2.0517 1.05797,5.91501 1.57271,6.17077 0.27067,2.18821 0.26661,2.18299 0.53611,3.60152 0.27168,2.83223 0.27128,2.57044 1.05245,4.88352 0.2713,2.57568 0.0283,5.14691 0.54867,6.43415 0.28788,5.40308 0.005,0.51835 -1.01377,1.80799 -0.2495,1.03188 0.005,0.51312 0.78163,2.56964 0.26567,1.54419 0.0222,3.85888 -0.24345,2.31992 -0.49417,2.57687 -1.26293,3.09642 -0.75461,1.80759 -0.50875,1.03228 -0.50549,0.51914 -0.76471,0.51955 -1.53507,0.0128 -1.54031,-0.76207 -1.02513,-0.25498 -1.02432,0.26861 -0.76513,0.25774 -0.76471,0.52477 -1.01951,0.77648 -0.76473,0.51953 -0.76029,0.77609 -0.51439,0.006 0.005,0.51311 0.25517,-3.8e-4 1.53992,0.50553 0.51074,0.25055 0.51558,0.77413 0.01,1.02624 -0.50917,0.7757 -0.50957,0.51914 -0.50512,0.7757 -0.25439,0.51875 0.005,0.51311 0.25557,0.25617 0.25517,-0.006 1.01953,-0.77648 1.52987,-0.78251 1.78988,-0.26979 1.27993,-0.007 1.28032,0.24935 0.25963,0.25616 4.1018,1.77385 1.03001,0.76808 0.77078,0.76325 1.04175,3.08759 0.77484,0.76323 1.54727,2.5632 0.2657,1.54419 0.26086,1.03107 0.004,0.25656 -0.25437,0.51876 -0.25519,4e-4 -1.78508,0.78297 -1.27917,0.5256 -0.76475,0.51956 0.005,0.51311 -0.25479,0.25696 0.51037,-7.9e-4 1.02399,-0.5252 0.25073,-0.25696 0.76476,-0.51956 2.04958,-0.0137 0.51604,1.02543 4e-4,0.25656 -0.25032,0.51876 0.25559,0.25616 1.03006,0.76282 1.02642,1.02463 0.51524,0.51231 1.02521,0.2497 1.03049,1.02461 0.006,1.28804 -1.26987,1.2953 0.005,0.76968 1.5352,-0.008 0.51525,0.5123 3.07122,0.49252 0.51444,-8.2e-4 1.02036,-0.26344 0.51038,-0.006 0.51526,0.51229 1.03135,1.53772 0.51526,0.51229 1.2902,1.28074 0.25602,0.51271 0.005,0.51311 -0.25438,0.51354 0.005,0.51835 1.02607,0.7628 0.52017,1.03064 0.7713,1.025 -0.2552,4.1e-4 -0.25478,0.25698 -0.25437,0.51877 0.25967,0.25614 4.1e-4,0.25656 0.77006,0.25008 3.84139,0.74773 1.02569,0.50621 1.02528,0.25489 0.25924,-0.006 0.25605,0.51794 0.25519,-0.006 -0.24946,1.0319 4.2e-4,0.2618 0.51934,0.50703 1.28048,0.24923 0.25563,0.25614 8.4e-4,0.51312 -0.24989,0.77534 4.2e-4,0.25656 0.52021,1.03063 1.0306,1.01931 0.51083,0.25572 0.25521,-4.2e-4 0.50998,-0.26264 0.50956,-0.5192 2.05059,0.50449 0.51488,0.25047 0.51532,0.51227 0.77137,1.02497 0.26545,1.2876 0.007,1.80117 0.77501,0.76839 0.77139,1.02496 1.02574,0.50618 0.25969,0.25613 1.27968,-0.26394 0.76562,-0.007 0.77098,0.76839 0.26055,0.76925 0.005,0.51312 -0.25392,0.77535 -0.50551,0.51921 -0.25391,0.77534 0.005,0.51312 0.51534,0.51226 0.25608,0.5127 0.26055,0.76924 0.005,0.77492 -0.50423,1.28889 0.005,0.77492 0.51535,0.51226 0.51043,-0.006 0.2597,0.25613 1.28721,1.79377 1.03027,0.76794 0.51087,0.25047 1.5358,0.24872 0.2597,0.25612 0.26593,1.54416 0.25609,0.51269 1.04275,3.33878 0.52566,1.80028 0.0116,2.05771 -0.24986,0.77535 -0.2548,0.257 -0.51001,0.26266 -1.28018,0.007 -0.51002,0.26266 8.7e-4,0.51313 -0.25031,0.51878 0.51089,0.25046 4.3e-4,0.25656 1.7947,-0.008 1.02626,0.76271 0.51539,0.51224 0.26058,0.76925 1.55241,2.82469 0.006,1.2881 -0.22622,5.1473 0.78224,2.5695 0.0273,4.1207 0.25524,-4e-4 0.25568,0.2561 1.28518,0.5057 0.25568,0.2561 0.51586,0.7688 0.52078,1.2819 0.26061,0.7693 0.0121,2.3195 -1.00847,2.583 -0.24944,1.0267 0.0116,2.063 0.26554,1.2823 0.0121,2.3195 -0.24944,1.0319 -0.24856,1.5451 -0.5047,1.0323 -2.03402,2.3335 -0.10354,1.0631 -0.44093,0.4144 -2.61599,0.8422 -0.97532,0.6771 -0.46086,0.6186 -0.45148,1.3726 0.0667,1.1309 0.95406,1.1188 1.0954,0.8359 2.52439,2.4566 0.28856,0.5179 0.20411,0.8898 0.12071,1.8847 0.33256,0.1827 1.82703,-0.2126 1.18432,0.6891 0.77185,1.1663 0.62155,0.9362 1.0024,0.925 1.37057,0.5946 1.13094,0.265 1.69373,0.018 1.60111,0.3532 0.51913,0.2766 1.19328,1.1603 0.1466,0.4239 1.92161,2.8921 0.6836,1.6429 0.0135,0.754 0.0581,0.801 -0.13728,0.2829 0.12055,1.7434 0.8256,1.7369 0.29724,0.8215 0.14251,0.3977 0.0186,1.3666 -0.54033,1.5141 -0.68711,1.0013 -0.11421,1.8904 -0.53596,1.7026 -0.99204,2.7506 -0.32326,0.5242 -0.7403,0.7186 -0.40754,0.9955 0.005,0.377 0.61187,-0.01 1.76904,-1.0189 0.38077,-0.074 2.1163,0.6036 2.59937,1.0898 1.66353,1.2013 1.0027,1.0245 0.28878,0.6068 -0.0747,1.2777 -0.77105,1.6612 -0.29397,1.0477 0.14187,0.021 0.44962,-0.1055 0.47343,-0.3883 0.15347,-0.2935 0.25048,-0.4298 0.23442,-0.346 0.29935,-0.2937 0.27928,-0.1838 0.31992,-0.1157 0.28372,0.036 0.28786,0.083 0.27996,0.1984 0.38186,0.5334 0.36122,0.324 0.36095,0.1669 0.34858,0.047 0.28769,-0.011 0.56688,-0.2471 0.53851,-0.247 0.401,-0.1002 0.23914,0.031 0.2231,0.1305 0.29598,0.088 0.28368,0.015 0.25521,-0.047 0.24281,-0.1837 0.70389,-0.6767 0.25884,-0.278 0.45764,-0.1527 0.38514,0.099 0.42983,0.1616 0.57179,0.2398 0.31623,0.083 0.2553,0 0.32,-0.074 0.24691,-0.1523 0.49349,-0.4931 0.36411,-0.3305 0.29949,-0.21 0.35645,-0.079 0.35637,-0.1264 0.29551,-0.168 0.28758,-0.074 0.9234,-0.2844 0.35212,-0.2362 0.6195,-0.2682 0.38471,-0.1421 0.45764,-0.1422 0.28356,-0.058 0.31199,-0.016 0.61606,0.067 1.34999,0.3274 1.30545,0.3484 0.74154,-0.012 0.30403,0.062 0.47851,0.1876 0.93693,0.4747 0.3932,0.073 0.24718,-0.01 0.21877,-0.026 0.21484,0.036 0.16227,0.099 0.22315,0.1514 0.28391,0.1409 0.23492,-0.063 0.24718,-4e-4 0.28773,0.01 0.46633,0.1719 0.34049,0.057 0.21083,0.062 0.369,0.1303 0.33261,0.1774 0.35264,0.052 0.6808,0.01 0.27953,-0.037 0.43347,-0.069 0.30803,0.031 0.4419,0.1144 0.51894,0.1351 0.43774,0.052 0.2553,0 0.23911,0.015 0.46619,0.093 0.24737,0.099 0.16644,0.162 0.25986,0.277 0.35317,0.3345 0.21484,0.042 0.17013,-0.037 0.12535,-0.1468 0.1371,-0.3616 0.17803,-0.1469 0.17405,-0.1051 0.31589,-0.1 0.32802,-0.1158 0.33195,-0.1839 0.31977,-0.1891 0.32415,-0.016 0.2148,0.015 0.27155,0.026 1.18384,0.3119 0.60817,0.1769 0.35647,-0.069 0.24733,0.078 0.12986,0.099 0.17056,0.1934 0.21937,0.2928 0.39902,1.015 0.1868,0.2091 0.24717,-0.011 0.24703,-0.084 0.30349,-0.2257 0.40859,-0.3725 0.43708,-0.2993 0.42499,-0.2678 0.61914,-0.4567 0.30362,-0.1577 0.5345,-0.2104 0.95217,-0.059 0.78211,0.014 0.36465,-0.032 0.40903,-0.1317 0.20255,-0.032 0.26342,0.015 0.80246,0.056 0.34428,-0.084 0.50231,-0.09 0.34033,-0.032 0.44181,0.062 0.0531,0.2303 0.23545,0.2247 0.24733,0.073 0.32424,0.031 0.37709,0.1197 0.31654,0.2454 0.42188,0.2349 0.3369,0.2925 0.41768,0.1563 0.46233,0.1981 0.26368,0.1461 0.31267,0.3397 0.1543,0.1621 0.1504,0.2458 0.24368,0.2822 0.24742,0.12 0.29188,0.062 0.4903,-0.017 0.31642,0.1827 0.25974,0.2037 0.17844,0.073 0.24341,0.1409 0.2961,0.1513 0.24697,-0.1157 0.15782,-0.1155 0.24692,-0.1418 0.23464,-0.2047 0.25888,-0.2465 0.17407,-0.089 0.92004,0.087 1.41827,-0.018 0.72471,-0.3365 0.43325,-0.1789 0.24715,-0.021 0.55124,0.067 0.41711,-0.1422 0.59931,-0.221 0.18639,-0.01 0.72575,0.2028 0.28382,0.083 0.27967,0.031 0.31613,0.025 0.70536,0.1348 0.26755,0.052 0.31183,-0.1001 0.28383,0.089 0.3202,0.036 0.27562,0.031 0.17033,0.068 0.23117,0.099 0.47884,0.3446 0.60474,0.4858 0.23928,0.1042 0.42572,0.1144 0.3934,0.1668 0.40133,0.078 0.32427,0.046 0.3001,0.1146 0.30831,0.1722 0.82362,0.5115 1.31004,0.5838 0.36069,0.02 0.31193,-0.053 0.2632,-0.1 0.22664,-0.1471 0.23903,-0.032 0.22692,-0.01 0.39316,0.046 0.35656,-0.022 0.30826,0.1407 1.16034,0.6994 0.53961,0.334 1.24928,0.5892 0.8922,0.3438 0.88011,0.3805 0.5392,0.1193 0.88361,0.103 0.27147,-0.022 0.35639,-0.1054 0.36449,-0.1107 0.33597,-0.1892 0.40467,-0.2835 0.46127,-0.3518 0.42551,0.01 0.30787,-0.058 0.53857,-0.1949 0.44142,-0.1422 0.28772,0 0.43776,0.052 0.12549,-0.063 0.34844,-0.032 0.40129,0.057 0.43396,0.1772 0.60813,0.1401 0.57156,0.093 0.41777,0.1877 1.11594,0.7727 0.34837,-0.069 0.093,-0.095 0.0158,-0.1937 0.089,-0.079 0.23094,-0.021 1.07403,0.076 0.9522,-0.049 0.89144,-0.038 0.65651,0.014 0.36493,0.1092 0.53116,0.1508 0.66129,0.3756 0.63274,0.2815 0.59591,0.1087 0.34865,0.073 -1.20006,3.7252 -0.60408,1.8705 -0.80956,2.4625 -0.71707,2.1116 1.30425,-0.3168 4.66203,-1.1562 0.95585,-0.2585 0.95602,-0.1747 0.3203,0.078 0.26827,0.3922 0.1018,0.2406 0.15067,0.3558 0.3056,0.8162 0.81769,-0.4415 1.39229,-0.8564 1.12109,-0.7039 0.57871,-0.3834 0.66359,-0.4936 1.04413,-0.6776 0.70915,-0.012 0.30013,0.1198 0.23514,0.052 0.27468,-0.4299 0.84909,-0.9286 0.29533,-0.2414 0.46947,-0.2942 0.50994,-0.3205 0.68056,-0.1218 0.87078,-0.2322 0.7293,-0.064 0.78639,0.1084 1.54018,0.1276 0.68451,-0.1637 0.27116,-0.1681 0.23464,-0.1942 0.15752,-0.2517 0.24193,-0.5817 0.54381,-1.5615 0.28648,-0.5922 0.26251,-0.4299 0.56589,1.2502 0.57805,1.2502 0.3991,0.9416 -0.20609,0.2779 -0.2223,0.278 -0.2669,0.2676 -0.32361,0.2782 0.001,0.5393 0.0306,1.0733 0.11479,0.6333 0.20748,0.387 0.21528,0.2404 0.36908,0.1459 1.18823,0.4111 0.6246,0.25 0.50259,0.041 0.60797,0.051 0.67303,0.1557 0.8031,0.3386 0.70167,0.2813 0.45418,0.1456 0.39724,0.046 0.21422,-0.2675 0.59845,-0.6191 1.44354,-1.5058 0.67078,-0.9124 0.29529,-0.252 0.23485,-0.09 0.28744,-0.1367 0.43327,-0.158 1.18247,-0.3953 0.91536,-0.2271 2.28064,-0.408 0.41696,-0.2051 1.0817,1.7622 1.36633,2.2066 0.35097,-0.7442 0.12408,-0.7228 0.27177,0.1198 0.60454,0.339 1.10813,0.8459 1.83009,1.1322 1.60662,0.8605 0.86071,0.7364 1.81156,1.9177 2.15241,2.1158 0.19878,0.099 0.10566,0.1359 2.03485,2.0847 0.82063,0.925 0.7876,0.6475 1.02306,0.8303 1.31148,1.1438 1.43304,1.1331 1.23731,0.5784 0.9617,0.5582 0.57336,0.8836 2.04507,3.0009 0.79473,0.1867 0.62477,0.2971 0.41396,0.2661 0.21529,0.2299 0.0373,0.3717 -0.12585,1.7386 0.0291,0.335 0.21147,0.3294 1.60874,1.7505 0.88204,1.1761 0.69785,0.3545 0.75872,0.3858 1.03201,1.1758 0.96157,0.4796 0.6281,-0.033 0.48188,-0.1791 0.43696,-0.3308 0.68749,-0.6613 0.44475,-0.4722 0.49787,-0.2734 0.49041,0.01 0.43408,0.198 0.58508,0.6636 1.01152,1.0659 0.80427,0.815 0.8243,0.7102 0.89682,-3.0965 0.61597,-0.017 0.42136,-0.058 0.68039,-0.2057 0.38892,-0.064 0.35666,0.01 0.57184,0.1767 1.32356,-0.7465 0.66,-0.2633 0.28729,-0.1996 0.16723,-1.3198 -0.0372,-0.3403 -0.26569,-1.0047 -0.40451,-1.4547 -0.018,-0.801 0.0627,-0.9688 -0.0975,-1.9109 -0.0668,-0.8795 -0.21733,-1.1253 -0.0865,-0.6071 0.007,-0.6127 0.0674,-0.6494 0.18509,-0.5868 0.35843,-0.9957 0.32267,-0.6814 0.35989,-0.3464 0.47739,-0.3623 0.49399,-0.1844 0.5592,-0.022 0.82282,0.066 0.83513,0.1342 0.74607,0.1763 0.8426,-0.1485 0.56632,-0.4568 1.80782,-1.6064 0.53757,-0.6243 0.33458,-0.7757 1.18385,-1.5473 0.21792,-0.4037 0.10428,-0.4715 0.015,-0.5341 -0.11914,-0.7065 0.19026,-0.09 0.83856,-0.1328 1.43816,-0.2075 0.63579,-0.1952 -0.13543,-0.738 -0.11122,-0.7851 -0.0374,-0.4188 -0.0624,-0.7015 0.0441,-0.1938 1.14259,-0.086 0.12399,-0.7124 0.20583,-0.367 0.77223,-0.7767 0.31139,-0.2782 0.89276,-1.2273 0.69046,-1.0855 0.90818,-1.5624 0.66459,0 -0.19893,-1.9107 -0.0707,-0.7747 -0.13484,-0.4814 -0.1431,-0.5495 -0.0658,-0.4239 -0.0523,-1.5707 -0.0709,-0.8638 0.002,-0.7906 0.12775,-0.8328 0.0869,-0.9898 -0.009,-0.4608 -0.0579,-0.4868 0.008,-0.1099 0.04,-0.2096 0.25745,-0.8226 0.16508,-0.4559 1.02128,-1.7041 0.64572,-1.1377 0.68719,-0.7294 0.31517,-0.3882 0.36801,-0.3202 1.21363,-0.872 0.88626,-0.5048 0.42109,-0.1423 1.38568,-0.071 0.34819,-0.1265 0.94733,-0.3792 0.48201,-0.085 0.40121,0.02 0.56352,0.1138 0.40938,0.046 0.51413,-0.2106 0.18191,-0.189 0.0684,-0.1834 0.0922,-0.4505 0.10214,-1.3721 0.0675,-0.5708 0.24779,-1.4719 0.21708,-0.7388 0.16793,-0.9638 -0.11349,-3.4712 0.006,-0.8221 -0.0175,-0.5706 -10e-4,-0.5446 0.0478,-0.3718 0.0714,-0.6495 -0.0129,-0.3246 -0.0371,-0.2722 -0.0979,-0.2615 -0.14659,-0.3086 -0.102,-0.2982 -0.10276,-0.6228 -0.10334,-0.869 -0.0575,-0.3454 -0.005,-0.2932 0.25395,-0.5661 0.21792,-0.3775 0.003,-0.4241 -0.017,-0.3508 -0.10188,-0.2458 -0.0897,-0.2616 -0.20378,-0.5022 -0.14702,-0.4918 0.0631,-0.7332 0.0677,-0.5028 0.81071,0.1342 2.75219,0.3914 0.74588,0.1344 1.00891,-0.01 0.89528,-0.086 0.40493,-0.1162 0.45726,-0.2576 0.5578,-0.5773 0.77091,-1.2742 0.58965,-0.8182 1.64802,-2.1768 0.869,-0.9079 0.032,-0.1676 1.92822,-0.1984 0.56284,-0.1584 0.79339,-0.3265 0.34421,-0.085 0.243,-0.048 0.59576,0.056 0.33481,-0.6238 0.30273,-0.4877 0.3242,0.02 0.68846,-0.1483 0.29971,-0.053 0.49412,-0.085 0.43001,0.2136 0.42986,0.1508 0.6844,-0.1535 0.66012,-0.1377 1.06107,-0.2172 1.36085,-0.2389 1.17005,-0.3903 0.42079,-0.2471 0.29925,-0.2469 0.36375,-0.3778 0.37269,-0.032 0.26745,0.01 1.24658,-0.5738 0.7813,-0.2898 1.08914,-0.3326 1.06462,-0.4162 1.05592,-0.6623 0.62677,-0.5199 1.8765,-1.4549 0.49786,-0.2107 1.25073,-0.5214 0.52236,-0.1322 0.99217,-0.2119 1.19868,-0.2647 0.71236,-0.3054 0.53372,-0.4569 0.37157,-0.4878 0.35478,-0.7235 0.37148,-0.5245 0.21048,-0.084 0.19039,-0.016 0.27949,-0.032 0.11734,-0.068 0.14959,-0.1313 1.0684,-2.1598 0.4154,-0.7865 0.49206,-0.9122 0.11211,-0.5449 0.37358,-1.3099 0.1799,-0.9848 0.1493,-0.2517 0.17698,-0.524 0.35859,-0.8125 0.0926,-0.2254 -2.7e-4,-0.1099 -0.0615,-0.2983 0.007,-0.2985 0.0883,-0.3562 0.0397,-0.3248 0.10851,-0.3563 0.0394,-0.4347 0.13131,-0.9689 0.13192,-0.7229 0.17365,-0.2309 0.0279,-0.178 0.0155,-0.2985 0.0436,-0.4033 0.24923,-0.7965 0.0841,-0.4138 0.0187,-0.6389 0.0236,-0.288 0.16057,-0.6078 0.46625,-1.5091 0.25748,-0.7389 0.0393,-0.4818 -0.0738,-0.3454 -0.18278,-0.1881 -0.28001,-0.1825 -0.17476,-0.2195 -0.0246,-0.1047 -0.029,-0.2722 0.11622,-0.5186 0.0275,-0.3299 -0.12303,-0.6019 -0.005,-0.3927 0.0599,-0.3509 0.0475,-0.44 -0.005,-0.4555 -0.0496,-0.3925 0.0155,-0.2776 0.0681,-0.3196 0.13694,-0.3302 0.25028,-0.3671 0.0886,-0.2149 0.0421,-1.0159 0.0651,-1.5238 0.008,-1.487 0.0869,-2.5449 0.12727,-2.6026 0.1849,-0.5922 -0.0874,-0.9475 -10e-4,-0.4974 0.0761,-0.3719 0.092,-0.4767 0.13703,-0.2883 0.38367,-0.4879 0.70426,-0.2688 1.30372,-0.3279 0.37272,-9e-4 0.50662,0.082 1.45088,0.2058 0.80259,0.1708 0.64024,0.051 1.77839,-0.057 2.20796,-0.01 3.04487,-0.6883 1.10556,-0.1808 1.12587,-0.1547 0.75332,-0.091 0.12975,0.042 0.0934,0.084 0.0207,0.1727 0.009,0.2513 1.23854,-0.4639 1.23035,-0.4953 1.42066,-0.5324 0.52039,-0.88095 2.10944,-3.70196 -0.11016,-0.30864 0.85134,-1.36876 0.9781,-0.90308 1.02284,-0.83513 0.95432,-0.69359 0.90241,-0.395 1.11948,-1.06054 0.92502,-1.06003 0.5492,-0.68733 -0.11367,-0.0939 -1.11155,-0.59929 -0.24743,-0.11979 -0.73016,-0.37512 -0.44585,-0.0879 -0.17258,-0.9525 -0.26833,-0.37631 -0.21142,-0.29791 -0.36605,-0.56978 -0.12589,-0.12011 -0.2191,-0.13034 -0.76968,0.0124 -0.27542,0.0217 -0.25097,0.0792 -0.24282,0.1001 -0.45045,-0.30777 -1.28956,1.08713 -0.46725,1.05885 -0.75892,-0.53737 -1.14483,-0.95004 -1.59116,-1.23166 0.02,-0.0838 -0.99513,-1.0342 -0.60562,-0.79434 -0.19035,0.0214 -1.37366,-0.13267 -0.12905,0.23071 -0.5104,0.017 -0.80001,-0.77291 -0.34059,-0.11957 -0.7391,-0.71546 -0.26024,-0.38681 -0.0873,-0.86895 -0.16473,-1.07296 -0.0739,-0.39775 -0.40218,-0.44928 0.034,-0.97398 0.20217,-0.15235 1.02274,-0.86651 0.35104,-0.5559 0.0657,-1.27775 -0.4208,0.20003 -0.29148,0.0793 -0.44159,-0.0146 -1.27654,-0.18528 -1.39414,-0.23736 -0.48219,-0.0511 -0.34027,0.006 -0.83379,0.29007 -1.17776,0.4323 -1.44737,-0.46238 -1.34203,-0.46265 -0.89985,-0.21243 -0.97263,-0.15466 -0.51872,-0.0773 -0.15687,-1.18294 -0.25962,-0.14596 -1.32631,-0.66167 -1.26139,-0.61995 -1.98312,-0.89044 -0.049,-0.16743 -0.0493,-0.28262 -0.10686,-0.62282 -0.10335,-0.84273 -0.24552,-0.99947 -0.11844,-0.3924 -1.76299,-0.34122 -0.20329,-0.30319 0.0523,-0.15197 -0.16271,-0.2771 -0.65613,-1.60059 -0.0367,-0.0942 0.95521,-0.32699 -1.72983,-1.69219 -0.32133,-0.53328 -0.19102,-0.25609 -0.24765,-0.22454 0.2741,-0.55045 0.0517,-0.40853 -0.0175,-0.51832 -0.12597,-0.16201 -2.59862,-2.48593 -0.87684,-0.7623 -0.43033,-0.38641 -1.94885,-1.83306 -1.04741,-0.95039 -0.54394,-0.46467 -0.18577,0.23084 -0.2508,0.14198 -0.42082,0.18952 -1.19302,-0.86103 -0.64044,-0.17122 -0.35394,1.04282 -0.13767,0.0213 -1.51775,0.53252 -0.3423,-0.84216 -0.53118,-0.21862 -0.25979,-0.22452 -0.12201,-0.19867 -0.0531,-0.1936 -0.021,-0.29317 -0.005,-0.28797 -0.0171,-0.37694 0.0236,-0.2828 0.1651,-0.40881 -0.89074,0.17495 -0.0271,-1.1728 -0.28021,-0.29253 -0.23532,-0.15651 1.25933,-1.86183 1.34822,-1.95105 -0.56749,-0.16094 -0.19506,-0.26132 -1.39882,-0.55163 -0.15445,-0.21953 -3.66515,-1.38915 -2.23791,-0.81666 0.64648,-2.36298 0.59206,-1.4099 -0.0374,-0.39785 -0.25994,-0.29259 -0.87307,-0.91419 -1.44489,-1.2008 -0.58778,-0.18708 -0.36558,-0.43371 -0.0336,-0.48687 0.4342,-1.36239 0.42215,-1.32048 0.34647,-0.781 0.42721,-0.89638 0.70231,-1.03317 1.75093,-2.91019 0.71021,-1.11174 0.54063,-0.88618 0.67404,-0.99123 0.79106,-1.17477 0.39095,-0.80205 0.42346,-0.76024 -0.0568,-0.0575 -1.81386,-1.38315 -3.98402,-2.72882 -0.12994,-0.13582 -2.43124,-2.1252 -2.13017,-1.57093 -1.3713,-0.96538 -0.21534,-0.28223 0.21437,-0.12618 0.83292,-0.60412 -0.411,-0.80536 -1.25358,-2.56264 -0.96045,-1.93502 -0.24825,-0.49683 -0.76119,-1.60039 0.35187,-0.21028 -0.35434,-0.83168 -0.42387,-1.11949 -0.90064,-2.34358 -1.48117,0.50618 -0.70565,-2.10319 -0.39174,-1.24 -0.46924,-1.47544 1.55345,-0.75766 0.37206,-0.23127 -0.22769,-0.37645 -0.32997,-0.80555 -0.11024,-0.37673 -0.0948,-0.68046 -0.0518,-1.35076 -0.0419,-0.60203 -0.0322,-1.63355 -0.11672,-1.4082 -0.0909,-0.76948 0.0274,-0.41371 0.0427,-0.8012 -0.15331,-1.46571 -0.16707,-0.42896 -0.25622,-0.45492 -0.58934,-0.88872 -0.34575,-0.63797 -0.19159,-0.52315 -0.36593,-0.61174 -0.80445,-1.08718 -0.58892,-0.7107 -1.1444,-0.9869 -2.16238,-1.61283 -2.54783,-1.92085 -0.79736,-1.53751 -0.23198,-0.4864 -0.0327,-0.12559 2.66765,-0.51415 0.56275,-0.0746 1.8542,-0.26616 1.55431,-0.35448 1.53377,-0.47486 0.68404,-0.16393 0.76106,-0.12747 0.85399,-0.22194 0.9874,-0.32173 -1.15406,-1.65707 -0.5292,-1.15066 -0.16841,-1.00491 0.17383,-0.13131 -0.68314,-1.17648 -0.25126,-0.0727 -0.17094,-0.36088 -0.0899,-0.34536 -0.13033,-0.31385 0.15682,-0.47685 -0.23176,-0.39215 -0.15521,-0.55988 -0.07,-0.48678 -0.0336,-0.49734 -0.01,-0.7749 -0.0507,-0.89523 -0.0868,-0.75901 -0.0986,-0.59667 0.0764,-0.22533 1.58315,-0.11894 0.0488,0.0679 0.41492,0.78442 0.48354,0.68476 1.38177,0.34754 1.1426,0.24337 0.50105,-0.46719 0.21392,-0.3042 0.10055,-0.28822 0.0358,-0.28806 -0.15896,-0.42897 -0.0572,-0.20407 0.048,-0.27239 0.3142,-0.7076 -0.24417,-0.50208 -0.21984,-0.48642 -0.34651,-0.96783 -0.19568,-0.54408 -0.26425,-0.43395 -0.21948,-0.33459 2.23893,-1.92693 0.27091,-0.17343 -0.13838,-0.29289 -0.0859,-0.34013 -0.0333,-0.36644 -0.002,-0.64402 0.0359,-0.24094 0.2939,-0.72327 0.46059,-0.44616 0.60632,-0.47268 0.79387,0.0662 0.0797,-0.56044 0.30257,-2.18413 0.22729,-1.48233 -0.005,-0.24084 -0.39711,-0.10377 -0.11417,-0.32959 -0.50083,-1.15072 -0.10596,-0.28249 -0.0169,-0.29318 -0.005,-0.46599 0.0428,-0.71743 0.0553,-0.60227 0.14763,-0.92712 0.0639,-0.36667 -0.0406,-0.0313 -2.47369,-1.47588 -0.11366,-0.11493 -0.12426,-1.17256 -0.41986,-4.58048 -0.18396,-2.43953 -0.0531,-0.19361 -1.3402,0.0608 -0.74917,-0.0139 -0.68443,-0.0403 -0.53018,0.12168 0.7805,-0.4312 0.2909,-0.27819 0.23352,-0.56604 0.0882,-0.38768 0.0881,-0.40338 0.0462,-1.01065 -0.0419,-0.61251 -0.0702,-0.56008 -0.49752,-1.48061 0.40093,0.02 1.00472,0.20705 0.41732,0.10373 0.87108,0.20213 0.2612,-0.84362 0.14019,-0.64959 0.14518,-0.25168 0.18907,-0.52405 0.29247,-1.31492 0.19147,-1.22045 0.055,-0.72269 0.0761,-0.35623 0.11644,-0.41392 0.43697,-1.84934 0.23607,-1.19437 0.42377,-2.28914 0.13196,-0.6967 0.58416,-2.94925 0.26027,-1.22585 0.35673,-1.52976 0.0756,-0.53948 0.14755,-0.94807 0.31041,-2.27316 0.24868,-0.99019 0.0994,-0.74899 0.15516,-1.15229 0.23165,-1.34096 0.18711,-1.33563 0.13591,-0.7386 0.47607,-2.40969 0.21751,-2.16822 0.18727,-1.26756 0.0356,-0.34042 0.14763,-0.91142 0.34054,-1.51401 0.15574,-0.9062 0.25538,-1.56617 0.28806,-1.44583 0.21883,-1.60797 0.15956,-1.00046 0.13567,-0.83285 0.15567,-0.93237 0.18443,-0.75443 0.24773,-1.37766 0.23575,-1.30433 0.0802,-0.34053 -0.005,-0.57594 0.0275,-0.36135 0.13123,-0.99516 0.14755,-0.93759 0.0997,-0.61285 0.0825,-1.03169 0.12835,-0.50296 0.23611,-1.15249 0.0553,-0.55515 0.23243,-0.99539 0.002,-0.70163 -0.1443,-1.07827 0.66481,-1.34201 0.74175,-1.33173 0.7377,-1.33172 0.31068,-0.44057 0.62565,-0.78168 1.5673,-1.4751 1.15413,-1.55788 0.88398,-1.10171 0.60016,-1.26856 2.41781,-4.66591 0.92653,-1.90292 0.48708,-1.14263 0.13962,-0.85381 -0.0132,-0.41885 -0.0705,-0.6805 -0.0786,-0.6962 -0.14793,-0.90023 -0.40577,-2.04628 -0.20175,-1.39228 -0.3038,-1.73761 -0.23067,-1.62783 -0.19283,-1.0572 -0.50488,-2.85762 -0.55425,-3.18736 -0.25504,-1.66966 -0.27949,-1.73767 -0.15726,-1.41334 0.064,-0.30908 0.19341,-0.37222 0.41049,-1.00107 0.57134,-1.44653 0.38273,-0.76015 0.53128,-1.2684 0.25805,-0.42474 0.27018,-0.43001 0.14063,-0.43493 0.14066,-0.41922 0.11636,-0.42964 0.0922,-0.35627 0.20541,-0.42985 0.28973,-0.7128 0.40726,-0.6555 0.19754,-0.33558 0.31005,-0.68144 -0.0936,-0.21445 0.58998,-0.42555 0.27486,-0.16823 0.48483,-0.38864 0.44445,-0.34143 0.48489,-0.36247 0.52539,-0.3521 0.51349,-0.25258 0.50098,-0.39917 0.51717,-0.40444 0.52946,-0.34164 0.25026,-0.29383 0.21432,-0.0895 0.38741,-0.49313 0.40371,-0.44605 0.39552,-0.48269 0.9642,-1.33755 0.69004,-0.88658 0.33076,-0.47729 0.35531,-0.37263 0.12511,-0.15215 0.15682,-0.42974 0.14879,-0.3983 0.14035,-0.53966 0.0762,-0.30387 0.0884,-0.26202 0.1771,-0.40884 0.0525,-0.063 -0.0252,-0.36122 -0.80497,0.23761 -0.92374,-0.32759 -1.82389,0.71135 -1.35435,0.70495 -2.61838,0.27346 -1.70093,-0.31524 -1.27137,-0.12256 -1.4815,0.0246 -1.40831,0.16051 -1.27119,-0.0493 -0.85073,-0.27021 -1.28066,-0.61998 -0.85091,-0.34351 -0.57176,-0.41226 -0.49417,-0.13494 -1.91091,-0.11058 -1.05667,-0.0603 -1.13372,-0.12293 -0.98818,-0.19659"
       id="path888"
       inkscape:connector-curvature="0"
       style="fill:#696969;fill-opacity:1;fill-rule:evenodd;stroke:#000000;stroke-width:1.88235295;stroke-opacity:1" />
    <path
       d="m 843.71646,572.12297 0,0 -1.5595,-4.19566 -0.70308,0.44145 -0.6425,0.38895 -0.50808,0.77609 -2.02888,2.84782 -0.76706,0.77669 -0.24971,0.5137 -1.01737,1.03906 5.9e-4,0.25656 -0.76244,1.03324 -0.50927,0.26297 5.8e-4,0.25656 -0.76421,0.26355 -1.27231,1.03964 -0.76709,0.77668 -1.01915,0.26412 -1.02262,0.52069 -2.55224,0.52941 -0.76826,0.26354 -0.76365,0.52009 -0.76248,1.03322 -1.018,0.78247 -0.76307,0.77665 -2.29039,1.81682 -1.02265,0.52067 -2.29561,1.30368 -0.18591,0.11037 -1.08708,0.66741 -3.31197,2.85578 -0.76368,0.52007 -2.54544,1.81732 -0.25438,0.25713 -1.7858,1.30248 -3.31439,1.81899 -1.27303,0.78297 -0.25438,0.25712 -6.12302,3.64722 -1.2725,1.0395 -1.52747,1.04006 -1.52636,1.55318 -1.27142,1.55261 -0.50879,0.51947 -1.01244,1.54681 -1.272,1.29604 -0.50935,0.2629 -0.76836,0.26346 -4.3442,1.05656 -2.0415,1.04634 -1.27315,0.77765 -0.75864,1.03311 -1.02223,0.78235 -4.33237,2.85759 -3.56863,2.34281 -1.27211,1.29597 -1.27321,0.77761 -2.80597,1.30442 -3.06499,1.31018 -1.0188,0.52049 -1.01827,0.77705 -1.27162,1.55773 -0.75873,1.03307 -2.29558,1.55985 -1.27837,0.26445 -1.01936,0.2639 -1.0234,0.26392 -4.60515,0.28697 -1.53282,0.52674 -2.80664,1.04769 -1.78781,0.52724 -1.27331,0.77751 -0.51295,0.5194 -1.2677,1.55243 -1.01887,0.52042 -1.27736,0.78274 -0.25446,0.25708 -0.25445,0.26231 -0.25498,5.2e-4 -1.01783,1.03877 -1.27335,0.77749 -1.2779,0.52616 -2.5528,0.52872 -1.02294,0.5204 -2.2968,1.04654 -1.27286,1.03926 -1.78282,1.04026 -1.27287,1.03925 -3.30819,3.36803 -1.53294,0.52661 -1.52739,1.29629 -3.57538,1.31075 -2.04294,0.52758 -2.55243,0.78512 -0.76851,0.26329 -0.76495,0.007 -1.79351,-0.24787 -0.50997,0.006 -0.51303,0.51935 -0.50948,0.25755 -1.01896,0.52556 -2.29698,1.04113 -7.41198,1.59539 -1.01899,0.5203 -0.50999,9.6e-4 -0.2545,0.26228 -0.25904,4.9e-4 -2.29799,0.52794 -0.76449,0.26323 -2.55656,0.7902 -1.01949,0.26371 -3.58155,0.27896 -5.36959,0.81106 -2.55755,0.27176 -1.534,0.0133 -3.073,-0.49703 -2.0485,-0.24235 -4.35696,-1.00263 -2.56345,-0.75459 -4.6178,-2.0285 -2.05389,-1.01735 -1.28533,-1.28052 -0.51539,-0.76877 -0.005,-0.51312 0.24864,-1.29373 -0.26581,-1.53891 0.25361,-0.77537 0.25002,-0.51881 -9.2e-4,-0.51313 -0.77037,-0.76831 -0.0104,-1.2828 -0.2559,-0.51791 -0.25948,-0.25086 -0.51538,-0.76878 -0.006,-1.03148 0.24865,-1.28849 -0.0167,-2.57608 -0.50995,0.006 -0.2649,-1.03102 -0.50995,0.006 -0.76357,0.77628 -0.25498,4.5e-4 -0.25498,4.5e-4 -0.25948,-0.2561 -0.26038,-0.76923 -0.005,-0.7435 0.2484,-1.4351 -0.005,-0.65449 -0.51582,-1.02534 -0.26038,-0.77447 -0.25947,-0.25087 0.76896,-0.007 0.50949,-0.2627 -4.5e-4,-0.25656 -0.25947,-0.25611 -0.25543,-0.25611 -0.76942,-0.24997 -0.25542,-0.25611 -0.005,-0.51835 0.50408,-1.03238 -0.25588,-0.51268 -0.25947,-0.2561 -0.25497,4.5e-4 -0.76401,0.51971 -0.3993,0.78086 -0.0397,0.46084 0.19122,0.56515 0.004,0.25656 1.02531,0.76788 0.005,0.25655 -0.25498,4.5e-4 -0.77391,-0.50652 -0.76898,10e-4 -0.25002,0.5188 -0.50905,0.51402 0.006,1.28805 0.25498,-4.5e-4 0.51939,0.76877 0.25543,0.25612 0.25993,0.51267 -0.25407,0.5188 0.005,0.51312 0.26038,0.76923 0.006,1.03148 0.51446,0.25566 0.006,1.02624 -0.25452,0.26225 -1.27895,0.007 -0.76222,1.55119 -0.50502,0.51401 -0.50861,0.77582 0.005,0.77491 0.26038,0.76924 1.02983,1.02444 0.26083,1.0258 0.005,0.77491 -0.24958,0.77537 -1.27268,1.29552 -0.25409,0.51357 0.52123,1.80027 -0.2442,1.54504 9e-4,0.51312 0.52033,1.28714 0.26084,1.0258 0.006,1.03148 -0.49738,2.57697 0.52484,1.5437 10e-4,0.76968 -0.50459,0.77581 0.006,1.28805 0.25949,0.2561 0.2559,0.51268 0.51448,0.25042 0.7695,0.25521 0.51494,0.51222 9e-4,0.51313 -0.24959,0.77536 0.005,0.76968 0.51495,0.51222 0.51,-9e-4 0.7695,0.24997 1.78813,-0.52676 0.76905,-10e-4 0.51044,0.25042 2.05351,0.76081 2.05985,2.04883 0.78127,2.30768 0.006,1.03147 0.26134,1.28235 0.0118,2.06296 -0.24416,1.54505 -0.24867,1.2885 -0.24912,1.03193 -1.01186,2.32658 -1.25697,3.35327 -1.26645,2.58359 -1.26738,2.06523 -1.77202,2.84627 -2.5407,3.10418 -1.01873,0.77672 -2.5466,2.07792 -1.78201,1.81476 -0.76462,0.26314 -0.76417,0.51969 -3.57664,1.05341 -1.2738,0.77713 -0.76419,0.51968 -5.60756,4.15654 -1.783,1.30157 -1.52843,1.03932 -1.01881,0.77666 -8.42787,2.63221 -1.78799,0.78316 -0.50921,0.51921 -0.50474,0.77053 -1.52763,1.55763 -0.76425,0.51964 -2.5527,1.04619 -0.25461,0.25698 -2.03859,1.04533 -1.53342,0.52612 -2.55315,0.78959 -3.57207,1.56615 -0.51413,8.4e-4 -2.0431,0.78871 -3.82757,1.30995 -1.53346,0.52606 -8.1795,1.34298 -1.5343,0.008 -0.46146,0.0269 0.12942,2.49213 0.0296,0.81676 0.071,1.36648 0.1202,1.77481 0.0498,0.74343 0.19906,3.01037 0.0874,1.49212 0.0664,1.0052 0.13741,2.4188 0.0207,0.28271 0.0182,1.25661 -0.0315,0.59695 -0.0589,1.14154 -0.29419,3.43526 -0.30228,3.43528 -0.11132,1.29346 -0.23879,2.62361 -0.62989,1.08484 -1.68773,2.94004 -1.52217,2.67797 -0.77529,1.32068 -2.19252,3.82045 -1.97467,3.34363 -2.01505,3.44316 0.2234,0.46042 0.42068,-0.26245 0.53822,-0.17362 0.76885,-0.28394 0.41262,-0.23102 0.42881,-0.23629 0.81288,-0.6034 0.38426,-0.24669 0.55002,-0.39879 0.4208,-0.17345 0.45723,-0.18921 0.38447,-0.10532 0.74047,-0.29437 0.96313,-0.31567 0.50984,-0.19453 0.42472,-0.26247 0.36408,-0.19954 0.41263,-0.22056 0.39651,-0.17341 1.59403,-0.76173 0.66764,-0.25762 0.65958,-0.23666 0.59882,-0.25227 0.4815,-0.1945 0.43703,-0.15253 0.49358,-0.23641 0.57448,-0.27841 0.48547,-0.24163 2.82408,-1.22972 0.67571,-0.27336 1.50881,-0.86111 1.25009,-0.60415 0.81322,-0.35735 0.66361,-0.24193 0.30342,-0.14186 0.29936,-0.15756 0.30751,-0.11569 0.30346,-0.12092 0.33579,-0.15762 0.33579,-0.15762 0.31961,-0.15236 0.31554,-0.15759 0.35595,-0.21002 0.36405,-0.20479 0.59881,-0.24706 0.60694,-0.23137 0.63529,-0.21571 0.62716,-0.24187 0.34383,-0.18906 0.33976,-0.20475 0.34787,-0.1943 0.36005,-0.17861 0.38842,-0.15248 0.38844,-0.14724 0.36819,-0.14721 0.36008,-0.15767 0.35596,-0.19431 0.35191,-0.19955 0.38029,-0.17864 0.39245,-0.1682 0.86181,-0.34175 0.36414,-0.14197 0.36414,-0.1472 0.41674,-0.16824 0.41673,-0.17347 0.34793,-0.15242 0.34387,-0.16288 0.33577,-0.16811 0.33172,-0.16286 0.33985,-0.14193 0.33582,-0.13669 0.73226,-0.33108 0.3884,-0.16296 0.38435,-0.16295 0.30345,-0.12093 0.30751,-0.1157 0.42895,-0.12637 0.42897,-0.11067 0.42089,-0.10542 0.42901,-0.0845 0.39671,-0.0373 0.40075,-0.0373 0.4493,-0.0636 0.45334,-0.0636 0.41691,-0.0583 0.41691,-0.0583 0.37646,-0.0425 0.37645,-0.0425 0.42906,-0.0583 0.4331,-0.0635 0.42905,-0.0583 0.43311,-0.0583 0.44523,-0.074 0.44522,-0.0793 0.91073,-0.12196 0.46954,-0.0636 0.92287,-0.13246 0.46143,-0.0636 0.43717,-0.0479 0.8339,-0.0747 0.39265,-0.0373 0.45335,-0.0584 0.44929,-0.0636 0.87427,-0.13762 0.55049,-0.0742 0.5505,-0.0638 0.46552,-0.0427 0.46147,-0.0479 0.95117,-0.14822 1.00379,-0.1588 0.53833,-0.0794 0.54238,-0.0795 0.35209,-0.0844 0.35615,-0.0739 0.56675,-0.0324 0.74059,-0.17929 0.34806,-0.0687 0.34403,-0.0634 0.80138,-0.14275 0.33187,-0.0686 0.33185,-0.0791 0.39252,-0.11064 0.38848,-0.11062 0.3966,-0.0949 0.40066,-0.0897 0.40876,-0.0845 0.40471,-0.0897 0.33589,-0.0843 0.74054,-0.20549 0.40465,-0.12112 0.40463,-0.1316 0.39651,-0.1473 0.36006,-0.15247 0.35601,-0.15246 0.40053,-0.16301 0.39649,-0.15777 0.36815,-0.15772 0.36409,-0.16294 0.32367,-0.121 0.3196,-0.14192 0.58244,-0.32041 0.8332,-0.46222 0.31549,-0.16811 0.3155,-0.1681 0.37613,-0.22057 0.35991,-0.23624 0.37202,-0.25722 0.34375,-0.21528 0.35587,-0.23624 0.35586,-0.23624 0.35589,-0.2153 0.35185,-0.21529 0.22644,-0.15748 0.2224,-0.15747 0.23457,-0.13655 0.18996,-0.18359 0.0722,-0.35617 0.0723,-0.32476 0.004,-0.14138 0.076,-0.5185 0.44597,-1.94856 0.24945,-0.88532 0.30211,-0.86971 0.27396,-0.76493 0.28207,-0.75448 0.3022,-0.81211 0.31033,-0.80165 0.25395,-0.62353 0.258,-0.62354 0.24593,-0.58686 0.25401,-0.58688 0.2744,-0.50838 0.33517,-0.4823 0.30281,-0.46654 0.35953,-0.44046 0.25866,-0.24655 0.29519,-0.19425 0.30743,-0.14192 0.31962,-0.11576 0.42892,-0.11595 0.42487,-0.12118 0.50982,-0.15799 0.55836,-0.17901 0.45719,-0.15266 0.45314,-0.15788 0.43288,-0.16833 0.4207,-0.18924 0.45705,-0.2312 0.44489,-0.24689 0.4124,-0.29919 0.42051,-0.28873 0.49344,-0.26268 0.49749,-0.25745 1.05972,-0.53074 0.49748,-0.26269 0.49341,-0.27315 0.23453,-0.15227 0.2264,-0.17319 0.26271,-0.24133 0.24243,-0.26224 0.25046,-0.2989 0.2464,-0.30413 0.33122,-0.41424 0.3231,-0.4247 0.36745,-0.52949 0.35933,-0.53996 0.84378,-1.28434 0.58942,-0.90689 0.18564,-0.31973 0.1897,-0.31973 0.1737,-0.20976 0.20208,-0.18362 0.25869,-0.22038 0.27087,-0.19946 0.32349,-0.21003 0.3235,-0.19955 0.33565,-0.19434 0.35191,-0.16295 0.2711,-0.0738 0.37233,-0.0583 0.98014,0.24954 1.08553,0.32789 1.06943,0.37504 1.12212,0.41159 1.10599,0.44303 1.17497,0.52668 1.15884,0.56336 1.13056,0.58959 1.1144,0.60532 0.70516,0.41234 0.67691,0.45428 0.62844,0.51196 0.58397,0.5487 0.54754,0.54876 0.53541,0.55926 0.8316,0.90951 0.29197,0.2665 0.32833,0.2193 0.34039,0.17739 0.89138,0.40151 0.55503,0.21364 1.2679,0.41128 0.25522,0.0885 0.79391,0.23414 0.79392,0.23413 1.11797,0.32777 1.12201,0.32253 0.36852,0.0621 0.37649,-0.006 0.32785,-0.0373 0.33188,-0.0425 0.57066,-0.0901 0.56659,-0.0953 0.83361,-0.19007 0.82956,-0.19006 0.3238,-0.0373 0.32389,0.01 0.29558,0.0256 0.28758,0.0728 0.44565,0.17718 0.43756,0.17719 0.57938,0.23976 0.57937,0.23975 0.39712,0.19821 1.0089,0.44838 0.98054,0.43796 1.42206,0.56277 1.40998,0.58897 2.5853,1.26215 0.30394,0.16173 0.30801,0.16696 0.27158,0.1775 0.26758,0.19846 0.28375,0.18795 0.34859,0.21924 0.3647,0.17732 0.36874,0.17208 0.38898,0.17203 0.38899,0.17728 0.42952,0.19813 0.4295,0.19291 0.49019,0.1666 0.49825,0.15088 0.41727,0.1458 0.41728,0.1458 0.86699,0.32295 0.44565,0.16669 0.4497,0.16144 0.48196,0.0986 0.48597,0.0828 0.79392,0.21313 0.40511,0.13535 0.41308,0.0725 0.41695,-0.0218 0.51823,0.009 0.35593,-0.17348 0.35592,-0.17348 0.36405,-0.16303 0.91819,-0.41544 0.63102,-0.27874 0.37219,-0.13687 0.38033,-0.11593 0.39654,-0.1055 0.40472,-0.0636 0.5748,-0.043 0.57492,0.0198 0.44543,0.0515 0.44549,0.0829 0.43339,0.10387 0.43745,0.10909 0.78173,0.19219 0.39697,0.10918 0.39696,0.10917 0.41315,0.1039 0.41314,0.0987 0.38477,0.0883 0.38478,0.0883 0.38484,0.11967 0.3768,0.14586 0.39706,0.15629 0.38898,0.16678 0.37278,0.16157 0.36876,0.17206 0.31204,0.15646 0.31204,0.15646 0.34448,0.18257 0.34449,0.18258 0.41335,0.20338 0.42545,0.18241 0.33628,0.13023 0.34435,0.11451 0.78592,0.25499 0.40107,0.13534 0.39701,0.1301 0.42942,0.14052 0.43338,0.0934 0.29156,0.0361 0.29157,0.0361 0.78116,-0.10104 0.53021,-0.0691 0.44516,-0.0899 1.61498,-0.1865 2.43276,-0.1934 1.70831,-0.0767 1.14164,-0.018 0.77749,0.0874 0.9356,0.19706 2.08202,0.54031 0.9557,0.12372 1.19448,0.0813 0.62745,-0.0327 0.80199,0.18686 0.93162,0.22847 0.52686,0.2712 1.11093,0.79882 1.04261,1.04506 1.3672,1.38472 0.83991,0.90409 0.95367,1.09759 0.52791,0.77384 0.39395,0.60132 0.061,0.13078 0.41079,0.91544 0.74027,1.65828 0.56919,1.15597 0.22353,0.41318 0.55563,0.46485 0.0851,0.0417 0.7174,0.38074 0.15801,0.052 2.81561,0.86855 2.42683,0.80652 0.15392,0.0363 1.40965,0.34262 1.74585,0.41522 3.2411,1.0299 0.9197,0.30698 1.60366,0.17987 1.02489,0.27011 0.35648,0.0935 1.14247,0.34839 1.96529,0.78645 2.87682,1.05154 1.78293,0.70304 1.18713,0.3954 0.9517,0.11838 2.23137,0.2413 0.90708,0.0766 1.82711,0.52489 0.90707,0.0713 0.68442,0.0823 0.54222,-0.14254 0.72422,-0.23719 1.07938,-0.75109 0.38013,-0.21026 0.27178,0.24026 0.78592,0.21297 0.96065,0.5058 0.47015,0.22936 0.22293,0.1147 0.81051,0.34905 0.438,0.33938 0.96914,0.6838 0.74621,0.56909 0.61231,0.43324 0.55132,0.31296 0.64436,0.27609 0.68096,0.34932 0.72543,-1.5305 0.35104,-0.54532 -0.14201,-0.14105 -0.78201,-0.27579 -0.54702,-0.19777 -0.12594,-0.19869 -0.10216,-0.42913 0.0155,-0.29325 0.039,-0.67553 0.0393,-0.52892 0.0784,-1.18874 0.11761,-1.75955 0.0273,-0.49224 0.0481,-0.21478 0.4309,-1.05861 -0.0681,-1.53923 -0.0121,-1.81163 0.0746,-1.05259 0.014,-0.97916 0.0671,-0.77507 0.33534,-0.32014 0.78001,-0.62479 0.85291,-0.60925 1.12451,-0.45801 0.31961,-0.10019 0.61857,-0.39406 0.62631,-0.5564 0.94098,-1.05974 1.6965,-1.76305 0.4318,-0.62927 0.39501,-0.79151 0.16882,-0.55016 0.0681,-0.32478 7.27965,-3.44055 0.40446,-0.17369 1.86701,-3.3238 0.55291,-0.77093 0.61848,-0.41504 1.5603,-1.06641 2.01209,-1.78477 1.21685,-0.76197 2.2682,-1.30366 0.92909,-0.89746 0.62905,-1.10099 0.45087,-1.12676 0.23501,-1.69175 0.0362,-1.87457 0.008,-3.74898 0.068,-3.94809 0.0577,-4.91672 -0.0284,-1.81159 0.24039,-1.1001 0.80954,-1.82397 1.25377,-2.28051 0.37035,-0.9119 0.11055,-1.23071 0.0452,-1.48713 -0.0982,-2.26172 0.12076,-2.07896 0.14116,-0.23071 0.2588,-0.11578 2.14889,-0.26147 1.78024,-0.38107 1.6305,-0.36503 1.19784,-0.15983 1.04858,0.0709 3.27925,0.16521 3.75285,0.16409 0.61133,0.0352 0.70068,0.16592 0.83012,0.1185 2.27539,0.18319 6.84894,-0.10507 1.30736,-0.0607 3.35472,-0.44775 0.99951,-0.14374 1.35187,-0.066 0.91482,-0.0127 1.22223,-0.10762 2.56954,-0.38835 1.86935,-0.33957 3.11602,-0.38446 1.47371,0.10642 0.98818,0.19659 1.13372,0.12293 1.05667,0.0603 1.91091,0.11058 0.49417,0.13494 0.57176,0.41226 0.85091,0.34351 1.28066,0.61998 0.85073,0.27021 1.27119,0.0493 1.40831,-0.16051 1.4815,-0.0246 1.27137,0.12256 1.70093,0.31524 2.61838,-0.27346 1.35435,-0.70495 1.82389,-0.71135 0.92374,0.32759 0.80497,-0.23761 -0.0126,-0.18323 0.0234,-0.35087 0.0561,-0.23052 0.16867,-0.54496 0.35757,-1.0952 0.16019,-0.70202 0.56946,-2.16911 0.74621,-2.71409 0.44135,-1.58759 0.3493,-1.15802 -0.19966,-0.53358 -0.4279,-1.16657 -0.86814,-2.41164 -0.1141,-0.30864 -0.27317,-0.7952 -0.81959,-2.43271 -0.79522,-2.39612 -0.44043,-1.33409 -1.35837,-4.26398 -0.71,-2.32303 -0.66093,-2.12419 -0.46503,-1.47017 -0.58347,-1.89923 -0.39193,-1.3761 -0.68917,-2.09271 -0.31028,-1.09356 -0.31039,-1.13545 -1.55275,-2.69797 -0.81691,-1.3803 -1.25182,-2.13322 -1.13819,-2.01308 -0.68288,-1.19738 -0.30903,-0.58568 -0.81297,-1.43792 -0.63003,-1.10326 -0.97554,-1.72027 -0.48777,-0.86275 -0.96734,-1.67841 -0.79234,-1.28613 -0.19092,-0.28752 -1.83253,-2.98008 -0.9307,-1.6052 -0.92252,-1.57381 -0.70681,-1.0769 -0.33738,-0.60657 -0.95499,-1.62085 -0.93062,-1.58427 -0.51601,-0.84175 -0.52397,-0.78414 -0.39049,-0.82112 -0.62977,-1.02474 -0.90958,-1.25969 -0.20404,-0.70637 -0.50792,-0.84702 -0.93862,-1.56331 -1.08491,-1.81953 -0.66237,-1.1294 -1.51019,-1.96513 -0.34558,-0.66415 -1.43505,-2.71406 -0.42271,-0.76869 -1.91374,-3.21035 -1.95383,-3.06366 -0.96278,-1.54758 -1.17796,-1.84552 -0.81649,-1.30184 -0.65403,-1.05613 -1.06433,-1.72013 -1.6455,-2.78168 -0.98707,-1.57895 -3.76936,-5.96544 -1.53937,-2.43115 -0.79204,-1.26002 -2.43703,-3.88468 -2.29471,-3.60751 -0.75948,-1.19728 -0.23159,-0.40263 -0.13826,-0.2929 -0.0451,-0.23552 0.0277,-0.27757 0.11223,-0.46626 0.19662,-0.71779 0.0638,-0.40332 0.029,-1.4452 -0.037,-0.25124"
       id="path890"
       inkscape:connector-curvature="0"
       style="fill:#696969;fill-opacity:1;fill-rule:evenodd;stroke:#000000;stroke-width:1.88235295;stroke-opacity:1" />
    <path
       d="m 489.45709,648.54072 0,0 -1.01994,0.007 -0.50928,0.51905 -0.2543,0.51346 0.0152,2.31952 1.03552,2.56425 0.26955,1.80605 0.5154,1.02032 0.25939,0.26145 1.80389,2.04484 1.02946,1.02487 1.0291,0.76306 0.50999,-6.9e-4 0.77007,0.76341 0.25974,0.51277 -0.50454,1.03741 3.4e-4,0.25656 1.28412,0.76271 0.51474,0.51242 0.005,0.76969 -0.2441,2.0633 3.5e-4,0.25657 0.25974,0.51277 0.255,-3.5e-4 0.51915,0.76898 0.2557,0.51278 0.005,0.77492 -0.24991,0.77003 -0.75955,1.03776 0.005,0.76968 0.51545,1.02555 0.005,0.51835 -1.01318,2.06436 -0.48893,3.60825 -0.24921,1.28839 -0.75924,1.28909 -0.25431,0.5187 -0.76434,0.5194 -1.01899,0.78154 -2.29776,1.04505 -0.50968,0.25725 -1.0197,0.26317 -1.53343,0.52565 -0.51441,-0.25064 -0.76504,0.001 -1.53918,-0.76241 -0.25906,0.006 -1.79419,-0.76207 -2.31331,-1.53109 -2.56325,-0.75585 -1.02508,-0.76312 -1.79854,-1.01867 -1.02475,-0.51179 -1.02408,0.007 -0.51472,-0.50723 -0.25501,3.3e-4 -0.5191,-0.76902 -0.51505,-0.76902 -1.02911,-0.76312 -1.02473,-0.51181 -0.7741,-0.76346 -1.02976,-1.2815 -0.77409,-0.76869 -0.765,0.006 -0.25501,3.2e-4 -0.2597,-0.51279 -0.25938,-0.25623 -0.76938,-0.25035 -0.255,3.2e-4 -0.50968,0.26245 -0.25436,0.51345 -1.01433,1.29457 -0.50936,0.51901 -0.76436,0.51933 -1.0197,0.26308 -0.25468,0.26212 -0.76906,9.7e-4 -0.76938,-0.25036 -1.28441,-1.01941 -1.28408,-0.76808 -1.2847,-1.27598 -0.76937,-0.25037 -1.02407,10e-4 -1.79279,0.26926 -1.53375,0.26892 -0.76469,0.26274 -1.27376,1.03829 -0.76438,0.51929 -1.52845,1.30039 -3.06256,1.30748 -1.78442,0.52575 -6.64979,0.55774 -1.53844,-0.24951 -1.53348,0.52541 -2.0438,0.26944 -1.53439,-0.2443 -1.79375,-0.50579 -1.02407,0.006 -0.25935,-0.25626 -0.25995,-0.76939 -0.25501,3e-4 -0.255,0.006 -0.51376,0.25716 -0.76502,0.006 -0.76936,-0.25044 -0.51406,5.9e-4 -0.76965,-0.507 -1.53409,0.007 -0.51464,-0.5073 -0.51406,5.9e-4 -0.76443,0.51923 -1.51931,2.32651 -0.50943,0.51894 -0.51002,5.8e-4 -1.02407,0.0116 -1.01946,0.51951 -1.02841,-0.25017 -0.50539,0.51893 -1.02408,0.006 5.7e-4,0.51312 0.25963,0.51284 0.004,0.25655 -0.51407,0.006 -0.25501,2.8e-4 -0.76936,-0.25047 -0.25934,-0.25627 -0.76445,0.51922 -0.25068,0.26207 -0.76417,0.77578 -0.50973,0.26236 -1.2791,0.007 -1.2742,0.78156 -0.7688,0.26265 -0.50974,0.25712 -0.25472,0.26208 -0.50513,0.77548 -0.25502,2.8e-4 2.8e-4,0.25657 -0.50946,0.51892 -1.27422,0.78155 -0.25473,0.25684 -0.25445,0.51864 -0.24552,1.28832 -0.25417,0.7752 -0.50543,0.51891 -0.5138,0.25712 -0.76532,-0.25049 -0.25907,2.8e-4 -0.25068,0.26207 -0.76366,1.28887 -0.25502,0.006 -0.76477,0.26263 -1.01951,0.51946 -0.76937,-0.2505 -0.51409,5.5e-4 0.01,1.80116 -0.50543,0.51891 -1.52902,1.03835 5.5e-4,0.51836 -0.50003,1.80171 -0.14122,0.43474 -0.10893,0.34045 -1.01386,2.06406 -0.50032,1.55038 -1.019,1.0378 -2.29334,1.81406 -0.50546,0.51889 -0.25449,0.51863 -0.49495,2.83318 -0.24991,1.03175 -1.01446,1.55091 -0.76024,0.77572 -0.24964,1.28831 -0.25019,0.77518 -1.26924,1.81297 -0.50954,0.51889 -0.50953,0.51889 -1.52484,1.29486 -0.2545,0.51862 -0.50928,0.77545 -0.24562,1.2883 -0.24994,1.03174 -0.25451,0.51339 -0.50955,0.51889 -0.25504,2.6e-4 0.004,0.26179 -0.50929,0.77545 -0.75976,1.28882 -0.76002,1.0375 -0.25478,0.25682 -0.75925,1.80718 -1.01,2.064 -0.24995,1.03174 0.005,1.03148 -0.76514,0.006 -0.77401,-0.7689 -0.51008,0.006 -0.50983,0.26231 5.1e-4,0.51312 0.005,0.76968 0.5243,2.05722 0.26978,2.57059 0.26392,0.77466 0.51949,1.28229 0.26039,1.28255 0.51416,-5.2e-4 0.25479,-0.25682 -0.004,-0.25656 0.25427,-0.77518 0.24566,-1.2883 -5.3e-4,-0.51836 -0.51923,-1.02573 -0.005,-0.51312 0.25427,-0.77518 0.25505,-2.6e-4 0.25531,0.25631 0.76945,0.25054 1.80819,2.56379 1.02477,0.50684 0.7692,-0.006 1.01941,-0.77597 1.53434,-0.012 0.51441,0.25603 1.79451,1.01392 1.53893,0.50629 1.28389,0.50654 1.53462,0.24972 1.02452,0.25025 0.2591,-2.7e-4 0.51469,0.50734 0.2556,0.51809 0.77407,0.76364 1.02912,0.76336 1.28473,1.28145 1.53924,0.76281 0.77436,1.02542 1.02482,0.50679 0.77382,0.51229 1.28448,1.01963 0.51444,0.25601 1.53494,0.50099 1.54332,0.76277 0.76546,0.25573 3.08752,2.29521 0.77008,0.76884 0.76979,0.50704 0.76952,0.25571 1.02457,0.25019 1.02428,-0.0116 0.50984,-0.25713 0.50955,-0.51893 0.50955,-0.51893 0.25506,-2.8e-4 1.78946,-0.0125 1.27906,-0.26324 0.76489,-0.26266 1.78396,-1.30053 0.25476,-0.25686 0.51012,-0.006 0.5188,0.51254 0.25564,0.51283 -0.24493,1.80146 0.25999,0.77462 0.26433,1.02595 0.77011,0.76882 1.02893,0.50671 1.2901,2.30759 0.51476,0.51253 0.51477,0.51254 1.54372,1.01924 1.53473,0.24431 1.27938,-0.007 0.25447,-0.51343 0.25476,-0.26209 0.76519,-0.006 0.25477,-0.25686 0.25507,-2.9e-4 0.24982,-1.03178 0.50982,-0.26239 0.81301,-0.66069 0.46111,-0.37753 -1.26482,2.06969 -1.01412,1.8076 -0.25012,0.77521 0.005,1.02625 0.26002,0.77462 0.77015,0.76355 0.7739,0.51222 0.51448,0.25073 0.51014,-6e-4 0.76521,-0.006 0.51388,-0.26241 1.27444,-0.77642 0.25506,-0.006 0.51014,-6e-4 1.02958,1.02503 2.04926,0.50022 0.76955,0.25041 3.1e-4,0.25657 0.25912,-3.1e-4 0.25568,0.51282 0.25943,0.25625 0.76987,0.51221 0.25942,0.25101 1.02028,-0.006 0.76896,-0.25749 0.7652,-0.006 1.79888,1.01885 0.25507,-0.006 0.76459,-0.51928 0.7649,-0.26273 0.25943,0.25625 1.02464,0.25008 0.76958,0.25562 0.76489,-0.26273 1.01467,-1.29452 0.76894,-0.26274 0.25507,-3.2e-4 1.26972,-1.29484 0.76925,-0.006 1.28439,0.76287 1.01996,-0.26306 0.51418,-0.006 3.2e-4,0.25656 0.26008,0.7746 0.25539,0.25625 1.02432,-0.007 0.25443,-0.51868 0.50982,-0.26244 0.51515,0.76905 0.76925,-0.006 -0.004,-0.25655 0.50918,-0.77556 0.25507,-3.2e-4 0.77427,0.76871 1.53478,0.24417 1.27439,-0.77653 2.30371,-0.0186 0.76926,-9.7e-4 1.78384,-1.30079 0.76455,-0.51934 0.75984,-1.0377 0.25507,-3.2e-4 0.76925,-0.006 0.51014,-6.6e-4 1.78414,-1.03902 0.76453,-0.52458 0.76388,-1.03247 0.2554,0.25623 -0.25474,0.25689 0.005,0.51836 -0.25507,3.3e-4 -2.03855,1.55771 -0.76487,0.26278 -0.25474,0.25689 6.6e-4,0.51836 0.25978,0.51279 0.51485,0.51247 0.76991,0.5069 0.0101,1.5446 0.25978,0.51279 0.2554,0.25623 0.76992,0.51213 0.7743,0.76345 1.02434,-0.007 1.52438,-1.55183 1.02399,-0.26313 1.27468,-0.52526 1.02433,-0.007 0.51486,0.51245 1.28513,1.2759 0.77466,1.02523 0.76927,-10e-4 0.25507,-0.006 0.25035,-0.51346 1.00912,-2.3261 0.50946,-0.51904 0.76419,-0.77593 0.50979,-0.26248 0.25541,0.25622 0.2642,0.77458 0.2554,0.25098 0.76961,0.25554 1.27939,-0.0122 0.25507,-3.4e-4 1.28448,0.76797 1.27939,-0.0122 0.51015,-6.8e-4 0.1085,-0.60752 2.80348,4.28972 1.48909,2.35417 1.58251,2.553 1.39988,2.21815 1.37543,2.09774 2.07787,3.52097 1.0356,2.27622 0.68698,1.96778 0.44303,1.22461 0.63467,2.19823 5.66072,-8.59487 3.44834,-0.96825 2.42433,-0.69457 2.17745,-0.61046 2.84115,-0.83656 4.96185,-1.46272 4.67042,-1.37859 1.9482,0.47887 0.25507,-0.006 2.30935,1.01763 0.76966,0.2502 1.285,1.02436 1.03106,1.79442 3.36009,5.12629 1.03553,2.05096 0.53612,1.11447 3.13566,-1.55977 1.61839,-0.80353 0.27508,-0.1732 0.68482,0.36549 0.65621,0.18227 0.56691,0.0358 0.39261,-0.10007 0.32362,-0.19946 0.33161,-0.26754 0.39618,-0.409 0.80807,-1.1479 0.38379,-0.5713 0.29469,-0.58164 0.52524,-0.74954 0.63004,-1.05339 0.27421,-0.73869 0.31507,-0.49266 0.26258,-0.3931 0.86511,-0.89667 1.32603,-1.32148 0.88113,-1.00142 0.29089,-0.41409 0.35969,-0.4299 0.35996,-0.25711 0.58261,-0.2784 2.36767,-0.59531 2.5658,-0.76841 0.50985,-0.19452 -0.2234,-0.46042 2.01505,-3.44316 1.97467,-3.34363 2.19252,-3.82045 0.77529,-1.32068 1.52217,-2.67797 1.68773,-2.94004 0.62989,-1.08484 0.23879,-2.62361 0.11132,-1.29346 0.30228,-3.43528 0.29419,-3.43526 0.0589,-1.14154 0.0315,-0.59695 -0.0182,-1.25661 -0.0207,-0.28271 -0.13741,-2.4188 -0.0664,-1.0052 -0.0874,-1.49212 -0.19906,-3.01037 -0.0498,-0.74343 -0.1202,-1.77481 -0.071,-1.36648 -0.0296,-0.81676 -0.12942,-2.49213 -4.14507,0.26308 -0.51049,-0.25576 -1.53874,-0.24892 -2.04923,-0.49946 -2.56414,-1.01704 -3.58794,-0.74844 -2.04881,-0.24295 -3.0734,-0.49271 -4.86753,-0.99792 -1.53506,-0.50558 -5.89169,-0.99124 -1.79413,-0.50522 -2.56365,-0.75541 -3.07371,-0.74945 -3.08293,-1.52439 -2.05429,-1.27458 -1.28514,-1.28094 -1.02492,-0.50641 -2.30893,-1.01767 -2.0535,-0.75626 -1.02491,-0.50642 -1.28473,-1.02441 -1.02931,-0.76298 -0.77466,-1.02514 -0.5152,-0.76896 -0.51484,-0.51239 -0.77979,-1.80007 -0.51556,-1.02551 -0.2653,-1.53901 -0.005,-0.51835 0.2543,-0.51349 0.50968,-0.26252 0.25503,-3.6e-4 2.55833,-0.0194 1.01937,-0.51982 0.76875,-0.2629 0.25466,-0.25693 -0.005,-0.51835 -0.25539,-0.2562 -0.25907,0.006 -0.51042,-0.25583 -2.05305,-0.49972 -1.53419,0.007 -1.53455,-0.24915 -0.25907,0.006 -0.50527,0.51385 -0.76362,1.0378 -0.25466,0.25692 -0.51004,0.006 -0.2598,-0.51276 -0.0161,-2.83264 -0.51482,-0.5124 -0.25502,3.6e-4 -0.7746,-1.02516 -0.51518,-0.76897 -0.26014,-0.76932 -0.53569,-3.85816 -0.26527,-1.54425 0.2543,-0.51348 0.50454,-1.03219 0.76395,-0.78124 1.01934,-0.5198 -3.6e-4,-0.25656 0.75954,-1.03256 1.77263,-3.10221 0.25464,-0.26216 0.25429,-0.51348 1.77883,-1.55762 0.50928,-0.51908 0.25392,-0.77005 -0.005,-0.77492 0.24435,-1.80153 -0.005,-0.77491 -0.52029,-1.53864 -0.51516,-0.76896 -0.25941,-0.25619 -0.25537,-0.2562 -0.51406,7.3e-4 -0.76465,0.26288 -0.255,3.7e-4 -0.51442,-0.2506 -1.02442,-0.24988 -0.004,-0.26179 -0.2605,-1.02589 -7.2e-4,-0.51312 -1.02955,-1.0248 -0.26455,-1.02588 -0.006,-1.28804 -0.25977,-0.51276 -0.51477,-0.5124 -0.25941,-0.2562 -0.51036,-0.25585 -1.53881,-0.50573 -1.02476,-0.50646 -1.02916,-0.76301 -1.03392,-1.28138 -0.25571,-0.51277 -0.5144,-0.25585 -0.76903,0.006 -0.76464,0.26286 -0.76428,0.51942 -1.27868,0.26356 -1.27938,-0.24956 -0.76974,-0.50683 -0.51475,-0.51242 -2.31836,-2.30066 -0.77448,-1.02519 0.50859,-1.03218 -0.005,-0.51836 -0.25499,3.5e-4 -0.51438,-0.25063 0.50454,-1.03217 0.50893,-0.77562 0.25024,-0.51871 -10e-4,-0.77492 -0.25938,-0.25097 -1.02911,-0.76829 -0.25499,3.5e-4 -1.28409,-0.7627 -0.51438,-0.25587 -0.51507,-0.76899 -0.51541,-1.02555 -0.26413,-0.76933 -0.26042,-1.0259 -1.03521,-2.31291 -0.51472,-0.51243 -0.25902,0.006 -1.01925,0.51973 -0.50997,0.006 -0.77374,-0.51209"
       id="path892"
       inkscape:connector-curvature="0"
       style="fill:#696969;fill-opacity:1;fill-rule:evenodd;stroke:#000000;stroke-width:1.88235295;stroke-opacity:1" />
    <path
       d="m -27.678577,413.31198 0,0 -0.254822,-2e-5 0.008,1.03149 0.529735,1.79599 0.008,1.03148 -1.270163,1.04187 -0.505669,0.77488 -0.509674,0.26176 -0.509654,0.005 -1.035399,-1.0211 -0.254848,0.25654 0.004,0.25657 0.266873,1.03151 0.004,0.51312 -0.258873,-2e-5 -0.768528,0.0104 -0.250828,0.5131 -0.497637,1.29324 -0.246833,1.03147 -0.509707,0.52355 -0.509684,0.25652 -0.50966,0.005 -0.258875,0.005 -0.517675,-0.76974 -0.525686,-1.54467 -0.800552,-3.34064 -1.04735,-2.57097 -0.258843,-0.25659 -0.258869,0.005 -0.250806,0.25653 0.008,0.77493 0.266797,1.54464 -0.238837,1.80116 0.262862,0.51839 0.772494,0.76453 0.004,0.25656 0.024,2.57611 0.262867,0.51315 0.262843,0.76972 1.035376,1.28292 0.004,0.51312 -0.250813,0.26178 -0.258877,-3e-5 -0.772535,-0.50797 -0.25885,-0.25659 -1.039389,-1.53948 -0.258821,-0.51316 -0.254858,0.26178 -0.254831,-3e-5 -0.25087,0.7749 0.008,0.77492 0.262866,0.51316 0.004,0.51312 0.772533,0.51321 0.258851,0.25136 0.02799,3.09447 0.266863,1.02628 1.035393,1.28292 1.031406,0.76455 1.981915,1.62859 1.638096,1.69137 0.513679,0.51317 0.262864,0.76971 0.008,0.51836 -0.254863,0.25654 -0.768568,0.005 -1.031428,-0.76454 -1.035445,-1.02112 -0.776555,-1.02633 -1.807987,-1.52908 -2.074832,-2.56062 -0.780519,-1.5447 -1.031389,-0.76456 -1.306234,-2.56578 -0.525694,-1.28288 -2.074679,-3.07377 -0.517685,-0.51319 -1.031387,-0.50803 -0.772511,-0.50798 -1.027371,-0.25147 -0.76853,0.005 -0.250819,0.26176 -0.254863,0.25653 0.004,0.51836 0.51768,0.50796 -0.250855,0.51833 -0.254865,0.26177 -1.019357,0.26166 -0.768573,0.26692 -0.760557,0.77482 0.004,0.51836 0.266821,1.02629 0.008,0.77493 -1.270306,1.29834 -1.003461,2.06807 0.0079,1.03149 -0.242892,1.28801 0.266781,1.28286 0.533643,2.05782 0.525596,1.80125 0.02393,2.31954 0.541563,3.34588 0.01195,1.28805 -0.254845,-4e-5 -2.596409,-3.84359 -0.772539,-0.50801 -1.031423,-0.50805 -2.564556,-0.24127 -0.764525,0.005 -0.258887,-4e-5 -0.250883,0.51832 0.262847,0.51317 0.254842,4e-5 0.004,0.51836 -0.505726,0.51828 0.01188,1.54462 -0.768577,0.005 0.008,0.51312 -0.254888,0.26176 -1.28227,-0.24631 -4.5e-5,0.25656 0.270804,1.28286 1.039346,1.53956 1.827788,3.84875 0.004,0.51837 -0.50574,0.51827 -1.027491,0.0103 -0.24689,0.76965 -1.015536,1.04179 -2.289893,1.55992 -0.254899,0.26175 0.008,0.77493 0.517706,0.50798 0.768561,0.25146 1.02746,0.25151 0.517755,0.25142 -4.4e-5,0.25656 -0.254899,0.26175 -2.301827,0.27711 -0.509756,0.26171 -0.250902,0.51308 0.258808,0.51317 0.517709,0.51322 1.027469,0.25151 0.004,0.51312 -0.764615,0.26167 -1.533233,0.27199 -0.768616,0.005 -0.509809,0.51827 0.01194,1.03149 0.262806,0.76973 0.77657,0.76984 2.058871,1.27271 0.26286,0.51317 -4.5e-5,0.25657 -0.25086,0.25652 -1.788165,0.53374 -0.509768,0.25647 -0.760682,0.78002 -1.015644,1.29834 -0.246917,0.77488 0.0039,0.51312 0.258861,0.25662 1.031448,0.76464 0.254864,5e-5 0.008,0.51313 0.262814,0.76973 -4.7e-5,0.25657 0.517774,0.25666 1.792104,0.24117 1.537285,-0.0102 2.298008,-1.0468 0.760676,-0.78004 0.497845,-1.54977 0.238933,-1.54457 -0.004,-0.51836 1.019529,-0.5182 1.792121,-0.0154 0.254902,-0.26176 0.250895,-0.51832 0.5098,-0.51828 0.509721,-0.005 0.262874,0.51316 0.004,0.51837 0.258868,0.2566 0.513768,-0.005 1.52928,-0.78518 0.51373,0.25664 0.01593,1.80118 -0.497811,1.54978 -1.011551,1.29314 -0.752686,1.55498 -0.238991,2.06294 -0.752698,1.54973 0.008,0.77493 0.517751,0.50797 1.031498,0.76461 1.282363,0.50807 0.517795,0.2514 0.776601,1.02637 0.768622,0.25143 1.290397,1.02119 0.254906,-0.26176 0.250894,-0.5131 -0.004,-0.51836 -0.529691,-2.05781 -0.01597,-1.54462 0.254902,-0.25653 0.254869,-0.005 0.505757,-0.51829 0.768648,-0.005 0.509768,-0.26173 0.5098,-0.5183 0.246906,-1.03145 -0.01997,-2.06298 -1.03153,-0.50279 -0.51374,-0.25663 -0.258876,-0.2566 0.509761,-0.26173 2.051048,-0.0154 0.505745,-0.5183 0.505775,-0.77486 0.242882,-1.29326 0.505771,-0.77486 -0.004,-0.51313 -0.521765,-0.76975 -0.004,-0.51836 -0.282834,-2.8327 -0.258872,-0.25136 -0.25884,-0.51316 -0.258871,-0.2566 -0.262885,-0.51315 3.2e-5,-0.25657 0.250844,-0.26177 1.282375,-0.0103 0.517712,0.76975 0.776618,0.76978 0.004,0.25657 1.302346,2.30921 0.517753,0.50795 0.509719,6e-5 0.509749,-0.26175 0.25087,-0.51833 0.250897,-0.7749 -0.012,-1.28805 -0.262893,-0.51316 -0.254829,-0.25659 -1.027492,-0.25144 -0.517747,-0.50795 -1.286361,-0.50803 -1.800084,-0.75944 -0.517739,-0.51319 3.2e-5,-0.25656 -0.270846,-1.54465 -0.01201,-1.02625 0.513752,-0.005 0.517737,0.50795 0.513722,0.25663 0.768608,-0.005 1.019476,-0.52348 0.772624,0.25142 0.764562,-0.005 0.772625,0.25141 -0.004,-0.25657 0.250865,-0.51833 2.7e-5,-0.25656 0.509707,-0.005 1.545223,0.76462 0.768608,-0.0104 0.254854,3e-5 0.01201,1.28805 0.262895,0.51315 0.513756,-0.005 1.019445,-0.2617 0.509734,-0.26175 0.254879,-0.26178 0.75659,-1.29322 0.505707,-0.51831 -0.004,-0.77493 -0.258875,-0.25659 -0.258898,0.005 -0.258852,-0.51315 -2.317817,-1.27257 -0.258872,-0.25658 -0.262865,-0.76972 -0.004,-0.51313 0.513721,0.25138 0.262892,0.51315 0.509702,-0.005 0.509726,-0.26175 0.25485,2e-5 0.258896,2e-5 1.023449,-0.0104 0.764597,-0.5183 1.905308,0.005 0.639149,-0.0104 0.590623,-0.2251 0.91832,-0.67014 0.03239,-0.41887 -0.2629,-0.51315 -0.258874,-0.25658 2e-5,-0.25656 0.505711,-0.78013 -0.262879,-0.76971 -0.788672,-1.796 -0.521745,-1.02629 0.250842,-0.51835 2e-5,-0.25656 0.254866,-0.26178 0.254845,2e-5 0.776611,0.76452 0.889926,0.1362 0.218406,0.45554 0.109201,0.2461 0.347723,2.24627 0.521758,1.02629 0.772601,0.50794 1.027451,0.50796 1.286349,0.50797 1.796052,0.49753 1.282353,-0.26697 0.509712,-0.26177 1.019423,-0.52354 0.752485,-1.54982 0.760533,-0.78012 -0.0081,-0.76969 0.246814,-1.29328 -0.0081,-0.76969 1.529104,-0.78533 0.764554,-0.52357 -0.0121,-1.02625 -0.780659,-1.28285 1.1e-5,-0.25656 0.254853,-0.26179 0.501624,-0.77491 1.783937,-1.30369 0.760494,-0.51834 0.254857,-0.51835 -0.0121,-1.28806 -0.517752,-0.51314 -0.262912,-0.51313 -0.004,-0.51313 0.254847,-0.26179 0.76453,-0.51834 1.5290398,-0.52879 0.7645245,-0.51834 -0.020175,-2.06298 -0.2588678,-0.51313 -0.7766197,-0.76971 -1.0314508,-0.76448 -2.313696,-1.01063 -2.058849,-1.01586 -1.286287,-0.24614 -2.313665,-1.0159 -1.80399,-1.01588 -2.317653,-1.52904 -0.513689,-0.25136 -0.258858,-0.25658 -0.004,-0.25656 0.250818,-0.51835 0.258874,2e-5 0.250816,-0.51835 0.744404,-2.32473 -0.008,-1.03149 -0.25884,-0.51314 -0.262867,-0.76971 -0.262883,-0.51314 -1.035413,-1.02108 -1.031379,-0.76976 -1.811931,-2.0474 -0.768513,0.0104"
       id="path894"
       inkscape:connector-curvature="0"
       style="fill:#696969;fill-opacity:1;fill-rule:evenodd;stroke:#000000;stroke-width:1.88235295;stroke-opacity:1" />
    <path
       d="m 904.44689,689.69815 0,0 -1.21716,-1.13319 -0.3493,1.15802 -0.44135,1.58759 -0.74621,2.71409 -0.56946,2.16911 -0.16019,0.70202 -0.35757,1.0952 -0.16867,0.54496 -0.0561,0.23052 -0.0234,0.35087 0.0126,0.18323 0.0252,0.36122 -0.0525,0.063 -0.1771,0.40884 -0.0884,0.26202 -0.0762,0.30387 -0.14035,0.53966 -0.14879,0.3983 -0.15682,0.42974 -0.12511,0.15215 -0.35531,0.37263 -0.33076,0.47729 -0.69004,0.88658 -0.9642,1.33755 -0.39552,0.48269 -0.40371,0.44605 -0.38741,0.49313 -0.21432,0.0895 -0.25026,0.29383 -0.52946,0.34164 -0.51717,0.40444 -0.50098,0.39917 -0.51349,0.25258 -0.52539,0.3521 -0.48489,0.36247 -0.44445,0.34143 -0.48483,0.38864 -0.27486,0.16823 -0.58998,0.42555 0.0936,0.21445 -0.31005,0.68144 -0.19754,0.33558 -0.40726,0.6555 -0.28973,0.7128 -0.20541,0.42985 -0.0922,0.35627 -0.11636,0.42964 -0.14066,0.41922 -0.14063,0.43493 -0.27018,0.43001 -0.25805,0.42474 -0.53128,1.2684 -0.38273,0.76015 -0.57134,1.44653 -0.41049,1.00107 -0.19341,0.37222 -0.064,0.30908 0.15726,1.41334 0.27949,1.73767 0.25504,1.66966 0.55425,3.18736 0.50488,2.85762 0.19283,1.0572 0.23067,1.62783 0.3038,1.73761 0.20175,1.39228 0.40577,2.04628 0.14793,0.90023 0.0786,0.6962 0.0705,0.6805 0.0132,0.41885 -0.13962,0.85381 -0.48708,1.14263 -0.92653,1.90292 -2.41781,4.66591 -0.60016,1.26856 -0.88398,1.10171 -1.15413,1.55788 -1.5673,1.4751 -0.62565,0.78168 -0.31068,0.44057 -0.7377,1.33172 -0.74175,1.33173 -0.66481,1.34201 0.1443,1.07827 -0.002,0.70163 -0.23243,0.99539 -0.0553,0.55515 -0.23611,1.15249 -0.12835,0.50296 -0.0825,1.03169 -0.0997,0.61285 -0.14755,0.93759 -0.13123,0.99516 -0.0275,0.36135 0.005,0.57594 -0.0802,0.34053 -0.23575,1.30433 -0.24773,1.37766 -0.18443,0.75443 -0.15567,0.93237 -0.13567,0.83285 -0.15956,1.00046 -0.21883,1.60797 -0.28806,1.44583 -0.25538,1.56617 -0.15574,0.9062 -0.34054,1.51401 -0.14763,0.91142 -0.0356,0.34042 -0.18727,1.26756 -0.21751,2.16822 -0.47607,2.40969 -0.13591,0.7386 -0.18711,1.33563 -0.23165,1.34096 -0.15516,1.15229 -0.0994,0.74899 -0.24868,0.99019 -0.31041,2.27316 -0.14755,0.94807 -0.0756,0.53948 -0.35673,1.52976 -0.26027,1.22585 -0.58416,2.94925 -0.13196,0.6967 -0.42377,2.28914 -0.23607,1.19437 -0.43697,1.84934 -0.11644,0.41392 -0.0761,0.35623 -0.055,0.72269 -0.19147,1.22045 -0.29247,1.31492 -0.18907,0.52405 -0.14518,0.25168 -0.14019,0.64959 -0.2612,0.84362 -0.87108,-0.20213 -0.41732,-0.10373 -1.00472,-0.20705 -0.40093,-0.02 0.49752,1.48061 0.0702,0.56008 0.0419,0.61251 -0.0462,1.01065 -0.0881,0.40338 -0.0882,0.38768 -0.23352,0.56604 -0.2909,0.27819 -0.7805,0.4312 0.53018,-0.12168 0.68443,0.0403 0.74917,0.0139 1.3402,-0.0608 0.0531,0.19361 0.18396,2.43953 0.41986,4.58048 0.12426,1.17256 0.11366,0.11493 2.47369,1.47588 0.0406,0.0313 -0.0639,0.36667 -0.14763,0.92712 -0.0553,0.60227 -0.0428,0.71743 0.005,0.46599 0.0169,0.29318 0.10596,0.28249 0.50083,1.15072 0.11417,0.32959 0.39711,0.10377 0.005,0.24084 -0.22729,1.48233 -0.30257,2.18413 -0.0797,0.56044 -0.79387,-0.0662 -0.60632,0.47268 -0.46059,0.44616 -0.2939,0.72327 -0.0359,0.24094 0.002,0.64402 0.0333,0.36644 0.0859,0.34013 0.13838,0.29289 -0.27091,0.17343 -2.23893,1.92693 0.21948,0.33459 0.26425,0.43395 0.19568,0.54408 0.34651,0.96783 0.21984,0.48642 0.24417,0.50208 -0.3142,0.7076 -0.048,0.27239 0.0572,0.20407 0.15896,0.42897 -0.0358,0.28806 -0.10055,0.28822 -0.21392,0.3042 -0.50105,0.46719 -1.1426,-0.24337 -1.38177,-0.34754 -0.48354,-0.68476 -0.41492,-0.78442 -0.0488,-0.0679 -1.58315,0.11894 -0.0764,0.22533 0.0986,0.59667 0.0868,0.75901 0.0507,0.89523 0.01,0.7749 0.0336,0.49734 0.07,0.48678 0.15521,0.55988 0.23176,0.39215 -0.15682,0.47685 0.13033,0.31385 0.0899,0.34536 0.17094,0.36088 0.25126,0.0727 0.68314,1.17648 -0.17383,0.13131 0.16841,1.00491 0.5292,1.15066 1.15406,1.65707 -0.9874,0.32173 -0.85399,0.22194 -0.76106,0.12747 -0.68404,0.16393 -1.53377,0.47486 -1.55431,0.35448 -1.8542,0.26616 -0.56275,0.0746 -2.66765,0.51415 0.0327,0.12559 0.23198,0.4864 0.79736,1.53751 2.54783,1.92085 2.16238,1.61283 1.1444,0.9869 0.58892,0.7107 0.80445,1.08718 0.36593,0.61174 0.19159,0.52315 0.34575,0.63797 0.58934,0.88872 0.25622,0.45492 0.16707,0.42896 0.15331,1.46571 -0.0427,0.8012 -0.0274,0.41371 0.0909,0.76948 0.11672,1.4082 0.0322,1.63355 0.0419,0.60203 0.0518,1.35076 0.0948,0.68046 0.11024,0.37673 0.32997,0.80555 0.22769,0.37645 -0.37206,0.23127 -1.55345,0.75766 0.46924,1.47544 0.39174,1.24 0.70565,2.10319 1.48117,-0.50618 0.90064,2.34358 0.42387,1.11949 0.35434,0.83168 -0.35187,0.21028 0.76119,1.60039 0.24825,0.49683 0.96045,1.93502 1.25358,2.56264 0.411,0.80536 -0.83292,0.60412 -0.21437,0.12618 0.21534,0.28223 1.3713,0.96538 2.13017,1.57093 2.43124,2.1252 0.12994,0.13582 3.98402,2.72882 1.81386,1.38315 0.0568,0.0575 -0.42346,0.76024 -0.39095,0.80205 -0.79106,1.17477 -0.67404,0.99123 -0.54063,0.88618 -0.71021,1.11174 -1.75093,2.91019 -0.70231,1.03317 -0.42721,0.89638 -0.34647,0.781 -0.42215,1.32048 -0.4342,1.36239 0.0336,0.48687 0.36558,0.43371 0.58778,0.18708 1.44489,1.2008 0.87307,0.91419 0.25994,0.29259 0.0374,0.39785 -0.59206,1.4099 -0.64648,2.36298 2.23791,0.81666 3.66515,1.38915 0.15445,0.21953 1.39882,0.55163 0.19506,0.26132 0.56749,0.16094 -1.34822,1.95105 -1.25933,1.86183 0.23532,0.15651 0.28021,0.29253 0.0271,1.1728 0.89074,-0.17495 -0.1651,0.40881 -0.0236,0.2828 0.0171,0.37694 0.005,0.28797 0.021,0.29317 0.0531,0.1936 0.12201,0.19867 0.25979,0.22452 0.53118,0.21862 0.3423,0.84216 1.51775,-0.53252 0.13767,-0.0213 0.35394,-1.04282 0.64044,0.17122 1.19302,0.86103 0.42082,-0.18952 0.2508,-0.14198 0.18577,-0.23084 0.54394,0.46467 1.04741,0.95039 1.94885,1.83306 0.43033,0.38641 0.87684,0.7623 2.59862,2.48593 0.12597,0.16201 0.0175,0.51832 -0.0517,0.40853 -0.2741,0.55045 0.24765,0.22454 0.19102,0.25609 0.32133,0.53328 1.72983,1.69219 -0.95521,0.32699 0.0367,0.0942 0.65613,1.60059 0.16271,0.2771 -0.0523,0.15197 0.20329,0.30319 1.76299,0.34122 0.11844,0.3924 0.24552,0.99947 0.10335,0.84273 0.10686,0.62282 0.0493,0.28262 0.049,0.16743 1.98312,0.89044 1.26139,0.61995 1.32631,0.66167 0.25962,0.14596 0.15687,1.18294 0.51872,0.0773 0.97263,0.15466 0.89985,0.21243 1.34203,0.46265 1.44737,0.46238 1.17776,-0.4323 0.83379,-0.29007 0.34027,-0.006 0.48219,0.0511 1.39414,0.23736 1.27654,0.18528 0.44159,0.0146 0.29148,-0.0793 0.4208,-0.20003 -0.0657,1.27775 -0.35104,0.5559 -1.02274,0.86651 -0.20217,0.15235 -0.034,0.97398 0.40218,0.44928 0.0739,0.39775 0.16473,1.07296 0.0873,0.86895 0.26024,0.38681 0.7391,0.71546 0.34059,0.11957 0.80001,0.77291 0.5104,-0.017 0.12905,-0.23071 1.37366,0.13267 0.19035,-0.0214 0.60562,0.79434 0.99513,1.0342 -0.02,0.0838 1.59116,1.23166 1.14483,0.95004 0.75892,0.53737 0.46725,-1.05885 1.28956,-1.08713 0.45045,0.30777 0.24282,-0.1001 0.25097,-0.0792 0.27542,-0.0217 0.76968,-0.0124 0.2191,0.13034 0.12589,0.12011 0.36605,0.56978 0.21142,0.29791 0.26833,0.37631 0.17258,0.9525 0.44585,0.0879 0.73016,0.37512 0.24743,0.11979 1.11155,0.59929 0.11367,0.0939 0.18573,-0.24656 0.89726,-0.81912 0.91772,-0.74063 0.91369,-0.73015 0.93826,-0.6255 0.43658,-0.36764 0.99466,-0.74607 0.97828,-0.81411 -0.34142,-0.43894 0.96196,-0.85595 1.03092,-0.81947 1.0435,-0.65197 1.2046,-1.01366 0.83664,-0.75092 -0.79568,-0.64719 0.24223,-0.32003 0.26285,-0.18394 0.33983,-0.17367 0.65962,-0.27398 0.43325,-0.0797 0.49394,-0.11123 0.26305,-0.10541 0.33577,-0.17889 0.80866,-0.59901 0.67523,-0.49918 0.54144,-0.53548 0.82833,-0.81897 0.52965,-0.39932 0.23042,-0.1891 1.79013,-1.7116 0.81181,-0.93413 0.73922,-0.80828 0.6182,-0.61423 1.2284,-1.18132 0.56171,-0.52507 0.8289,-0.58861 0.21017,-0.18381 0.29476,-0.3673 0.11283,-0.22544 1.22266,1.26912 2.45749,2.53297 1.33788,-1.13451 0.213,0.88955 0.96268,0.98706 0.0321,1.42933 1.56153,-0.81571 1.3755,-0.6948 0.80457,-0.59381 0.47299,-0.36777 -0.86772,-1.83552 -0.31794,-0.74267 -0.16079,-1.06247 -0.0958,-0.99459 0.75957,-0.756 0.90926,-0.8297 0.52561,-0.37839 0.49296,-0.47255 0.80803,-0.80849 0.90474,-1.00249 1.77837,-1.50747 0.37192,-0.28374 0.77959,-0.83461 0.71169,-0.47314 0.82942,-0.37398 0.41262,-0.21054 0.36878,0.0566 0.4203,-0.36765 0.51741,-0.4098 0.33175,-0.15797 0.22303,0.0884 0.11795,0.1777 0.18837,0.75871 0.16321,0.43939 0.19117,0.2927 0.23569,0.27687 0.29641,0.261 0.10996,0.21962 0.0738,0.32443 0.0383,0.69105 0.009,0.27224 2.29519,-2.12151 1.36599,-1.18702 -0.0942,-0.38721 0.003,-0.42412 0.007,-0.48173 0.39908,-0.72364 0.48408,-0.75006 0.20618,-0.1524 0.25098,-0.0635 -0.17932,-0.40268 -0.78985,-1.48489 -0.50491,-0.97253 0.18246,0.0676 0.29621,0.18769 0.4642,-0.60862 0.11594,-0.57104 -0.0424,-0.6858 -0.0695,-0.2459 -0.21563,-0.35023 -0.56103,-0.75247 -0.85314,-0.92446 -0.43507,-0.61144 -0.45154,-0.71087 -0.24031,-0.49154 -0.25309,-0.72712 -0.21165,-0.37642 -0.59347,-0.77332 -0.4109,-0.66387 -0.0739,-0.36108 -0.013,-0.3246 0.0754,-0.56569 -0.0369,-0.16745 -0.28876,-0.43381 -0.74358,-0.86194 -0.56092,-0.72105 -0.53215,-0.5693 -0.55617,-0.45927 -0.37342,-0.28698 -0.5271,-0.19231 -0.87981,-0.3118 -0.45031,-0.2606 -0.39785,-0.33404 -0.77992,-0.82519 -0.51587,-0.54317 -0.44626,-0.2606 -1.16447,-0.73517 -1.37094,-0.69273 0.0484,-0.0891 0.0606,-0.0682 1.05203,-0.42168 0.92111,-0.90828 0.69077,-0.70347 -0.51294,-0.96729 -0.78421,0.599 -0.3605,9.6e-4 0.24497,-0.79652 0.33116,-0.3674 0.36292,-0.61358 0.007,-0.37701 -0.0862,-0.42912 -0.23227,-0.52298 -1.5604,-1.88603 -0.73282,-1.40652 -1.01374,-1.95033 0.45847,-1.23691 1.28644,-3.6529 -0.0128,-0.24606 -0.92983,-2.39037 -0.88567,-2.54233 -0.40426,0.29429 -0.35165,0.27321 -0.55594,-0.39122 -0.17234,-0.84254 -0.42561,-1.65344 -0.82991,0.15405 -0.25522,-0.0203 0.0185,-0.67549 -0.058,-0.5025 -0.0986,-0.52334 -0.12267,-0.43949 -0.0904,-0.48671 -0.026,-0.6649 0.0467,-0.71745 0.1077,-0.62861 0.0152,-0.37179 -9.8e-4,-0.37176 0.0109,-0.46079 0.0759,-0.41384 0.12042,-0.41397 0.23361,-0.4928 0.22129,-0.5556 0.22493,-0.71269 0.14749,-0.89574 -0.37417,-2.11958 -0.38188,-0.43881 -0.40434,0.25763 -0.44119,0.10589 -0.29963,0.0322 -0.38091,-0.0723 -0.27588,-0.1773 0.0603,-0.152 -0.2593,-0.036 -0.40481,0.0796 -0.38427,0.18951 -0.48123,0.28401 -0.21048,0.0477 0.0305,-0.73312 0.12661,-1.13654 0.1381,-1.3879 -0.71837,-0.56882 0.48035,-0.61388 0.31667,-2.78638 -2.38829,-1.0566 -0.90149,0.64117 -0.71206,0.28985 -0.89864,0.18563 -0.46567,0.0326 -0.47269,0.45153 -2.02716,0.7436 -0.31646,-0.20861 0.13633,-0.52919 0.0725,-0.16774 0.12525,-0.11552 0.24271,-0.11583 0.3357,-0.17367 0.22223,-0.19955 0.0724,-0.18345 -0.0168,-0.21987 -0.082,-0.3663 0.25923,-3.08991 0.7238,-0.44172 -0.30608,-0.88932 0.17786,-0.13136 0.17362,-1.74928 -0.21856,0.0529 -0.21025,0.13668 -0.20999,0.23094 -0.73667,0.16948 -0.64496,-1.93562 -0.12628,-0.27718 -0.46878,0.3887 -0.2083,-2.21951 -0.26381,-3.31893 -0.2519,-0.30826 -1.66178,-0.49831 -0.0729,-3.10475 -0.01,-0.54451 -0.001,-0.53407 0.20639,-0.0581 -0.075,-0.79044 -0.0832,-0.82707 -0.10006,-1.09929 0.56642,-0.21616 -0.23264,-0.69054 -0.5309,-1.69507 -0.27342,-0.80039 0.90233,-0.30081 -0.0571,-0.14646 -0.50196,-1.47 -0.13188,-0.8793 -0.65604,0.0122 -0.51759,0.29981 -0.49145,-0.5485 -0.17492,-0.298 -0.13881,-0.42898 -0.0619,-0.45014 -0.0462,-0.62296 -0.0663,-0.56008 -0.0172,-0.38218 0.0315,-0.34042 0.0475,-0.41377 0.12709,-0.96375 0.0234,-0.35087 0.0232,-0.42941 -0.0171,-0.35077 -0.15181,-0.75882 -0.0703,-0.5653 0.051,-2.17307 -1.1777,0.29628 -0.17741,-1.26141 -0.0998,-1.01028 -0.23802,-1.20889 -0.0359,-1.35079 -1.27644,-0.31084 -0.21474,-0.0413 0.2415,-0.57135 0.53569,-1.1219 0.55548,-1.29997 0.40677,-0.86499 0.17658,-0.61831 0.0671,-0.67562 -0.28535,-0.72182 -0.1396,-0.73791 -0.0137,-0.60734 0.0147,-0.57599 0.15504,-1.11567 0.0911,-0.7804 -0.42526,-0.0198 -0.0127,-0.19893 -0.58741,-0.0875 -0.33192,-1.5071 -0.55151,-1.86257 -0.60533,-2.32321 0.3804,-0.0952 0.59912,-0.0801 0.39671,-0.0534 -0.0703,-0.57054 -0.0253,-0.37693 -0.0335,-0.41355 -0.078,-0.42915 -0.15148,-0.6384 -0.0338,-0.55492 0.003,-0.30894 -9.3e-4,-0.35604 -2.27852,0.50333 -0.12193,-0.17247 -0.13847,-0.30333 -0.20386,-0.53877 -0.15916,-0.47607 -0.0534,-0.30878 -0.15964,-0.66456 -0.19965,-0.47595 -0.35012,-0.7269 -0.28141,-0.7742 -0.0897,-0.25633 -0.0172,-0.39265 0.0194,-0.35086 0.0437,-0.32998 0.0398,-0.26714 0.20479,-0.67074 -0.0138,-0.62828 -1.05354,-0.27478 -0.948,-0.17558 -0.0217,-0.55495 -0.0861,-0.41866 0.16211,-1.51885 0.0716,-0.51855 0.2788,-1.80714 0.0308,-0.6284 -0.0132,-0.3979 -0.0983,-0.41862 -0.216,-0.53875 -0.37028,-0.70066 -0.22414,-0.55444 -0.27788,-0.98365 -0.12317,-0.65941 -0.15961,-0.65409 -0.23243,-0.63296 -0.53869,-1.63223 -0.35477,-0.96775 -0.33145,-1.35003 -0.13103,-0.56515 -0.25711,-0.78473 -0.45623,-1.06173 -0.30976,-0.78984 -0.11856,-0.43952 -0.0907,-0.62284 -0.15219,-0.92638 -0.1397,-0.79028 -0.0874,-0.93701 0.11522,-0.859 0.19467,-1.45611 0.004,-1.42943 0.0992,-2.35645 0.0272,-2.00546 0.0434,-0.43469 0.24062,-0.90645 -0.15427,-0.15668 -1.63105,-1.31004 -0.37716,-0.23465 -0.58211,0.36801 -1.52733,-0.33642 -2.52768,-0.43859 0.20292,-1.40376 0.19084,-1.37756 0.2796,-1.50344 0.0951,-0.80135 -0.05,-0.53918 -0.0629,-0.85854 0.0128,-1.32474 0.3246,-1.32029 0.40452,-1.72891 -0.007,-0.98435 -0.0881,-1.20406 0.0317,-1.84838 0.0877,-0.55 0.44405,-0.51427 0.33811,-0.78102 0.0103,-0.7226 -0.14096,-1.29293 -1.24319,-0.0858 -0.0113,-1.24613 0.0281,-1.67035 0.24289,-0.0111 -0.24387,-1.95763 -0.19432,-1.58077 -0.10451,-1.29303 -0.14476,-1.19867 -0.16564,-1.44994 -0.21396,-1.3451 -0.1519,-0.8269 0.34995,-2.48275 -0.10582,-0.21965 0.0607,-1.60236 -0.119,-0.62278 -0.12244,-0.38715 -0.3502,-0.79498 -0.57342,-1.00908 -0.60983,-1.00375 -0.55626,-0.63214 -0.90461,-0.70455 0.27437,-0.36722 -0.35694,-3.44961 -0.28714,-3.07279 -0.17023,-1.66985 -0.10142,-0.0835 -0.24653,-1.4288 -0.13945,-0.71174 -0.25143,-1.76389 -0.1897,-1.37135 -0.0697,-1.94237 -0.0578,-0.4292 -0.15565,-0.71694 -0.002,-0.77492 0.0108,-0.54981 -0.1237,-2.48678 -0.0631,-0.94232 -0.19127,-0.39221 -0.41524,-0.91524 -0.71511,-1.03491 -0.21552,-0.37645 -0.33767,-0.65887 -0.44741,-0.83139 -0.27684,-0.61715 -0.18293,-0.30322 -0.30113,-0.61708 -0.3133,-0.62753 -0.2155,-0.37644 -0.27627,-0.392 -0.31703,-0.50186 -0.52053,-0.93592 -0.78496,-1.45362 -0.47567,-0.80514 -0.56125,-1.03531 -1.13437,-1.96587 -1.38614,-2.2794 -1.30073,-2.12778 -0.3981,-0.55401 -0.51614,-0.81552 -0.81675,-1.23364 -0.57694,-0.84678 -1.06028,-1.49484 -1.30827,-1.92881 -0.52823,-0.79978 -0.14628,-0.21955 -1.24746,-1.89755 -0.48355,-0.7423 -0.70343,-1.26012 -0.36592,-0.64311 -0.49199,-0.88366 -0.53694,-1.0511 0.0678,-0.42428 -0.324,-0.0673 -0.38644,-0.7635 -0.16676,-0.31898 -0.5695,-1.12956 -0.42744,-0.97283 -1.21311,-1.12796"
       id="path896"
       inkscape:connector-curvature="0"
       style="fill:#696969;fill-opacity:1;fill-rule:evenodd;stroke:#000000;stroke-width:1.88235295;stroke-opacity:1" />
  </g>
</svg>
